<?xml version="1.0" encoding="utf-8"?>
<svg viewBox="17.581 56.141 474.404 400.497" xmlns="http://www.w3.org/2000/svg">
  <path d="m415.6 209.933v-162.8c0-25.989-21.144-47.133-47.133-47.133h-321.334c-25.989 0-47.133 21.144-47.133 47.133v162.8c0 25.99 21.144 47.134 47.133 47.134h17.133v49.267c0 6.067 3.655 11.537 9.26 13.858 5.185 2.147 11.739 1.356 16.347-3.252l59.874-59.873h218.72c25.989 0 47.133-21.144 47.133-47.134zm-321.333-73.366c-.738 19.881-29.269 19.866-30 0v-16.067c.738-19.881 29.269-19.866 30 0zm64.266 37.491c-.738 19.881-29.269 19.866-30 0v-91.05c.738-19.881 29.269-19.866 30 0zm64.267-18.749c-.738 19.881-29.269 19.866-30 0v-53.55c.738-19.881 29.269-19.866 30 0zm64.267 37.491c-.738 19.881-29.269 19.866-30 0v-128.533c.738-19.881 29.269-19.866 30 0zm64.267-56.233c-.738 19.881-29.269 19.866-30 0v-16.067c.738-19.881 29.269-19.866 30 0z" transform="matrix(1.1281222105026245, 0, 0, 1.2401607036590576, 21.576210343483268, 56.75020302459899)" fill="#2e56f3"/>
</svg>