<svg id="Layer_1" data-name="Layer 1" xmlns="http://www.w3.org/2000/svg" viewBox="0 0 1260.28 265.35"><defs><style>.cls-1{fill:#efeff4;}.cls-2{fill:#ada4f7;}.cls-3{fill:#e2e1ef;}.cls-4{fill:#fd8753;}.cls-5{fill:#fc8165;}.cls-6{fill:#ea366e;}.cls-7{fill:#ffaf45;}.cls-8{fill:#fff;}.cls-9{fill:#bebdd1;}.cls-10{fill:#d8d6e5;}.cls-11{fill:#a8a7bc;}.cls-12{fill:#bab8cc;}.cls-13{fill:#a6a6bc;}.cls-14{fill:#8758e7;}.cls-15{fill:#80c6ff;}.cls-16{fill:#d87d68;}.cls-17{fill:#d87166;}.cls-18{fill:#50447e;}.cls-19{fill:#cbcadd;}.cls-20{fill:#9a9aaf;}.cls-21{fill:#3e6bf7;}.cls-22{fill:#dddcea;}</style></defs><rect class="cls-1" y="-52.32" width="1260.28" height="400"/><path class="cls-2" d="M313.11,121.23c.31,5.19,3.23,9.24,6.52,9s5.72-4.57,5.41-9.76-3.23-9.24-6.52-9S312.8,116,313.11,121.23Z"/><path class="cls-3" d="M332,265.34H197.58a88.29,88.29,0,0,1,1.58-16.79c7.75-40.13,41.36-52.12,41.36-52.12l69.18,52.12Z"/><polygon class="cls-4" points="407.47 207.78 386.16 211.58 382.06 186.36 400.35 179.8 398 194.71 407.47 207.78"/><path class="cls-5" d="M402.08,177.45s13.17-14.38,17.9-12.11-6.64,13.84-6.64,13.84l15,2.36s16.23,4.13,18.31,6.94-5.1,4.72-5.1,4.72S453.2,195.93,449,200s-12.6,2.94-12.6,2.94,11.71,2.14,6.25,6.56c-3,2.4-31.8,3.07-46-5.68s-2-16.56-2-16.56Z"/><path d="M428,202.82a.78.78,0,0,1-.73-.51l-6-16.73a.76.76,0,0,1,.47-1,.78.78,0,0,1,1,.47l6,16.73a.78.78,0,0,1-.47,1A.75.75,0,0,1,428,202.82Z"/><path d="M404.64,194.59a10.18,10.18,0,0,1-2.39-.27.77.77,0,0,1,.39-1.5s3.92,1,6.59-1.35c2.32-2,3.14-5.89,2.46-11.52a.77.77,0,0,1,.67-.86.79.79,0,0,1,.87.67c.75,6.18-.26,10.51-3,12.89A8.44,8.44,0,0,1,404.64,194.59Z"/><path class="cls-6" d="M400.42,177s-40.24,8.37-70-15.76l-13.67,51.16a66.94,66.94,0,0,0,38.35,13.84c23.4.92,48.48-15.59,48.48-15.59Z"/><path class="cls-7" d="M393.6,194.39a.79.79,0,0,1-.78-.73L391.9,178a.77.77,0,0,1,.73-.82.79.79,0,0,1,.82.73l.92,15.64a.78.78,0,0,1-.73.82Z"/><path class="cls-7" d="M393.13,186.09a.77.77,0,0,1-.07-1.54l8-.81a.79.79,0,0,1,.85.69.78.78,0,0,1-.7.85l-8,.81Z"/><path class="cls-6" d="M344.68,237.59v11.1s-28.11,6.44-51.18,4.78-31.69-5.7-31.69-5.7L252,191.45,281.48,150l24.1-2,29.87,22.49,5,60Z"/><path class="cls-5" d="M293.13,216.66s7.18-3.83,10.68-4.75l.1,0a5.57,5.57,0,0,1,6.77,4.27l0,.2s11.49,2.51,19.59,6.56,6.62,7.73,6.62,7.73,5.16,3.31,2.95,5.52-10.68,0-10.68,0,10.68,4.05,6.26,6.44-14.15,1.66-14.15,1.66-21.18,3.68-28.18-3.68S293.13,216.66,293.13,216.66Z"/><path class="cls-6" d="M288.72,149.12s-39.94,1.47-60,33.68S224.48,244.08,256,250s47.85-2.76,47.85-2.76l-7.5-36.62-16.14-2.39L264.39,189Z"/><path class="cls-7" d="M293.92,246a.76.76,0,0,1-.76-.65l-5.65-36a.77.77,0,0,1,1.53-.24l5.65,36a.78.78,0,0,1-.65.88Z"/><path class="cls-7" d="M290,219a.78.78,0,0,1-.08-1.55l7.36-.77a.77.77,0,0,1,.16,1.54l-7.35.77Z"/><path class="cls-7" d="M291.1,228a.77.77,0,0,1-.76-.63.78.78,0,0,1,.62-.91l8-1.49a.77.77,0,1,1,.28,1.52l-8,1.5Z"/><path class="cls-7" d="M293.06,237.2a.77.77,0,0,1-.14-1.53l8.23-1.51a.77.77,0,0,1,.28,1.52l-8.23,1.51Z"/><path d="M310.72,217.14l-.22,0-6.45-1.91a.78.78,0,1,1,.44-1.49l6.45,1.91a.78.78,0,0,1-.22,1.52Z"/><path d="M336.45,230.84a.78.78,0,0,1-.22,0l-15.07-4.36a.78.78,0,0,1-.53-1,.78.78,0,0,1,1-.53l15.07,4.36a.78.78,0,0,1-.21,1.52Z"/><path d="M330.31,237.16a.76.76,0,0,1-.21,0l-10.3-3a.74.74,0,0,1,.41-1.42l10.31,3a.74.74,0,0,1-.21,1.44Z"/><path class="cls-7" d="M296.31,211.36h-.14c-.38-.07-38-6.7-50.52-6.7a.78.78,0,0,1-.78-.78.77.77,0,0,1,.78-.77c12.62,0,49.24,6.45,50.79,6.73a.77.77,0,0,1-.13,1.53Z"/><path class="cls-7" d="M261.8,206a.79.79,0,0,1-.29-.06c-3.3-1.36-14.09-6-14.24-9.1a1.71,1.71,0,0,1,1-1.63c4.58-2.44,13.14,8.31,14.1,9.54a.78.78,0,0,1,0,.94A.77.77,0,0,1,261.8,206Zm-11.9-9.62a1.84,1.84,0,0,0-.85.2.64.64,0,0,0-.23.18c-.15,1,4.48,3.81,10.29,6.45C256.11,199.82,252.23,196.35,249.9,196.35Z"/><path class="cls-8" d="M345.91,202.52a.62.62,0,0,1-.44-1.05c.3-.32,7.6-7.84,14.6-9.52a.61.61,0,0,1,.75.46.63.63,0,0,1-.46.75c-6.64,1.59-13.92,9.09-14,9.17A.64.64,0,0,1,345.91,202.52Z"/><path class="cls-7" d="M293,115.34s5.77-1.43,8.47-4.75,3.15-11.53,3.15-11.53,10.45,5.43,13.2,4.83,8.13-12.91,4.5-18.22-11,1.26-11,1.26-1.51-7.59-9.53-5.82C292.41,83.19,290,92.75,290,92.75s-.63-10.37-7.18-5.82-4.2,16.45-4.2,16.45-5.24,2.28-4.19,7.21,8.12,9.69,8.12,9.69Z"/><path class="cls-5" d="M292.05,130.24l-1.37,15.64s2.53,4.74,11.94,6.26c7,1.13,9.63-.21,9.63-.21l-.29-8-.3-7.81-16.79-5Z"/><path d="M294.87,131.08a5,5,0,0,0,.34,1.55c2.94,8.11,12.7,10.61,16.75,11.3l-.3-7.81Z"/><path class="cls-5" d="M318.41,100.75s6.78,20.32,2.47,30.94-14.44,7.9-20.39,5.19a20.27,20.27,0,0,1-8.44-6.64,8.89,8.89,0,0,1-9.28-4.22c-3.31-5.55-.32-11.27,3.11-12.31s7.11,1.63,7.11,1.63l-2.48-6S306.4,81.9,318.41,100.75Z"/><path d="M291.7,123.89a.76.76,0,0,1-.49-.18l-6.85-5.66a.77.77,0,0,1,1-1.2l6.86,5.67a.77.77,0,0,1-.5,1.37Z"/><path d="M302.86,109.63a.77.77,0,0,1-.53-.21.76.76,0,0,1,0-1.09,5.85,5.85,0,0,1,6.52-1.75.77.77,0,0,1-.62,1.42,4.36,4.36,0,0,0-4.78,1.39A.77.77,0,0,1,302.86,109.63Z"/><path d="M319.94,108.6a.77.77,0,0,1-.53-.21,3.18,3.18,0,0,0-3.42-.62.78.78,0,0,1-.65-1.41,4.76,4.76,0,0,1,5.14.9.78.78,0,0,1-.54,1.34Z"/><path d="M319.07,116.11a.79.79,0,0,1-.76-.63l-.69-3.67a.77.77,0,1,1,1.52-.29l.7,3.67a.78.78,0,0,1-.62.91Z"/><path d="M307.34,116.11a.77.77,0,0,1-.76-.63l-.7-3.67a.77.77,0,1,1,1.52-.29l.7,3.67a.78.78,0,0,1-.62.91Z"/><path d="M310.06,130.28a2.78,2.78,0,0,1-.79-.11c-1.49-.43-2.6-2-3.31-4.81a.77.77,0,0,1,.3-.82.75.75,0,0,1,.87,0l5.33,3.5a.76.76,0,0,1,.35.58.77.77,0,0,1-.24.63A4,4,0,0,1,310.06,130.28Zm-1.86-3.21a2.8,2.8,0,0,0,1.5,1.61,1.46,1.46,0,0,0,.88,0Z"/><path class="cls-7" d="M293,115.34s6.19-1.07,8.47-6.14a21.78,21.78,0,0,0,2-9.61,10.55,10.55,0,0,0,8.55,2.85c5.42-.57,6.9-6.14,6.9-6.14l-5-5.82s-20.41,4.3-20.91,3.67-7.93,12.6-7.93,12.6Z"/><path class="cls-6" d="M336.36,197.89a76.24,76.24,0,0,1-77.89-7.55c3-18.39,6.26-33.47,8.75-35.18a19.08,19.08,0,0,1,1.85-1.06,35.81,35.81,0,0,1,11.17-2.9c.24,0,.46-.07.7-.08s.72-.08,1.08-.12.67,0,1-.06c.48,0,.93-.07,1.34-.08,1.82-.1,3-.09,3-.09a1,1,0,0,1,0-.11c.09-1,.81-9.24,3-9.06s8.09,4.15,14.15,4.64a63.5,63.5,0,0,0,10.53-.05c1.23,0,1.48,6.48,1.48,6.48s8.14,2.77,13.9,8.52a.62.62,0,0,1,.18.18c.28.29.94,1,1.9,2.13a17.76,17.76,0,0,1,1.92,2.95C336.1,169.71,336.52,182.56,336.36,197.89Z"/><path class="cls-7" d="M297.38,155.25h-.12a34.32,34.32,0,0,1-10.31-3.8.77.77,0,0,1-.28-1.06.78.78,0,0,1,1.06-.28,33.06,33.06,0,0,0,9.77,3.61.78.78,0,0,1,.65.88A.77.77,0,0,1,297.38,155.25Z"/><path d="M285.06,123.75a.76.76,0,0,1-.68-.41.77.77,0,0,1,.31-1l3.94-2.1a.78.78,0,0,1,.73,1.37l-3.94,2.1A.77.77,0,0,1,285.06,123.75Z"/><path class="cls-8" d="M306.48,120.37H303a4.35,4.35,0,0,1-4.35-4.35v-3.63a2.1,2.1,0,0,1,2.09-2.1h8a2.11,2.11,0,0,1,2.1,2.1V116A4.36,4.36,0,0,1,306.48,120.37Zm-5.75-8.53a.55.55,0,0,0-.54.55V116a2.8,2.8,0,0,0,2.8,2.8h3.49a2.81,2.81,0,0,0,2.81-2.8v-3.63a.55.55,0,0,0-.55-.55Z"/><path class="cls-8" d="M299.12,115.25l-.22,0a31.94,31.94,0,0,0-11.78-1,.76.76,0,0,1-.88-.65.78.78,0,0,1,.65-.88,33,33,0,0,1,12.45,1,.77.77,0,0,1,.52,1A.76.76,0,0,1,299.12,115.25Z"/><path d="M312.71,123.26a.72.72,0,0,1-.29-.06.77.77,0,0,1-.43-1c2.16-5.3.09-7.6,0-7.7a.77.77,0,0,1,0-1.09.76.76,0,0,1,1.08,0c.12.12,2.89,3.06.33,9.37A.77.77,0,0,1,312.71,123.26Z"/><path class="cls-8" d="M320.17,120.56h-1.95a3.93,3.93,0,0,1-3.92-3.93v-4.21a1.94,1.94,0,0,1,1.94-1.94h5.91a1.94,1.94,0,0,1,1.94,1.94v4.21A3.93,3.93,0,0,1,320.17,120.56ZM316.24,112a.38.38,0,0,0-.39.39v4.21a2.38,2.38,0,0,0,2.37,2.38h1.95a2.38,2.38,0,0,0,2.37-2.38v-4.21a.38.38,0,0,0-.39-.39Z"/><path class="cls-8" d="M309.59,116.17a.78.78,0,0,1-.36-1.46c.17-.09,4.15-2.16,6.36-.18a.78.78,0,1,1-1,1.15c-1.16-1-3.71-.07-4.6.4A.77.77,0,0,1,309.59,116.17Z"/><path class="cls-7" d="M334.12,199.68a.77.77,0,0,1-.77-.78V173.4a.77.77,0,0,1,.77-.78.78.78,0,0,1,.78.78v25.5A.78.78,0,0,1,334.12,199.68Z"/><path class="cls-2" d="M283.73,121.84c.3,5.19,3.23,9.24,6.52,9s5.72-4.57,5.41-9.76-3.23-9.24-6.53-9S283.42,116.65,283.73,121.84Z"/><path class="cls-8" d="M281.67,122c.31,5.2,3.23,9.25,6.52,9s5.72-4.56,5.41-9.75-3.23-9.25-6.52-9.05S281.36,116.77,281.67,122Z"/><path class="cls-8" d="M292.05,88.55S288.18,93,288.76,103s3.37,14.28,3.37,14.28l-6.46-.46s-2.53-10.2-1.17-18.48S286.6,88.16,292.05,88.55Z"/><path class="cls-9" d="M397.76,245.67a1.42,1.42,0,0,1-1.38-1l-13.26-47.52-28.78-22.89a1.43,1.43,0,1,1,1.78-2.24l29.15,23.17a1.43,1.43,0,0,1,.49.74l13.38,48a1.43,1.43,0,0,1-1,1.76A1.28,1.28,0,0,1,397.76,245.67Z"/><path class="cls-8" d="M393.65,236.64a5.52,5.52,0,0,1-5.31-3c-.54-1.09-.21-2.73.46-4.29a9.49,9.49,0,0,1-5.11-4.78c-4.14-8.05-2.61-22-2.12-25.64-3.87-.19-18.71-2.32-24.61-23.21a.77.77,0,1,1,1.49-.42c6.43,22.76,23.25,22.14,24,22.1a.78.78,0,0,1,.8.9c0,.16-2.63,16.88,1.84,25.56a7.93,7.93,0,0,0,4.42,4.1,13.28,13.28,0,0,1,1.1-1.66c.88-1.12,2.21-2.38,3.56-2.06.87.2,1.45,1,1.74,2.3s-.58,2.43-2.16,3a6.86,6.86,0,0,1-3.42.22c-.61,1.35-.87,2.61-.58,3.2,1.92,3.83,7.66,1.33,7.71,1.31a.79.79,0,0,1,1,.39.78.78,0,0,1-.4,1A11.42,11.42,0,0,1,393.65,236.64Zm-2.57-8.32a5.05,5.05,0,0,0,2.13-.24c.61-.21,1.28-.66,1.16-1.21-.16-.76-.41-1.08-.57-1.11s-1,.28-2,1.51A9.8,9.8,0,0,0,391.08,228.32Z"/><path class="cls-10" d="M379.72,196.27a4.66,4.66,0,1,0,4.66-4.66A4.66,4.66,0,0,0,379.72,196.27Z"/><rect class="cls-11" x="340.35" y="138.64" width="15.77" height="42.32" rx="5.85" transform="translate(730 127.2) rotate(150.47)"/><rect class="cls-12" x="342.22" y="137.58" width="15.77" height="42.32" rx="5.85" transform="translate(732.97 124.29) rotate(150.47)"/><path class="cls-8" d="M350.11,147.88a.76.76,0,0,1-.66-.36l-3.8-6a.79.79,0,0,1,.24-1.07.77.77,0,0,1,1.07.24l3.8,6a.76.76,0,0,1-.24,1.06A.7.7,0,0,1,350.11,147.88Z"/><path class="cls-13" d="M378.17,239.76h39.18a0,0,0,0,1,0,0v3.62a5.22,5.22,0,0,1-5.22,5.22H383.39a5.22,5.22,0,0,1-5.22-5.22v-3.62A0,0,0,0,1,378.17,239.76Z" transform="translate(795.52 488.35) rotate(180)"/><path class="cls-8" d="M315.47,241.72h83.38l23.82-53.87h-80.1a5.06,5.06,0,0,0-4.62,3Z"/><path class="cls-14" d="M322.71,241.72H406.1l21.25-48.08a4.12,4.12,0,0,0-3.77-5.79H346.53Z"/><path class="cls-15" d="M287.52,248.52H405.25a3.4,3.4,0,0,0,0-6.8H287.52a3.4,3.4,0,1,0,0,6.8Z"/><circle class="cls-8" cx="375.21" cy="214.78" r="7.08"/><path class="cls-7" d="M283,156.75a.78.78,0,0,1-.48-1.38l2.91-2.33a.78.78,0,1,1,1,1.21l-2.91,2.33A.81.81,0,0,1,283,156.75Z"/><path class="cls-7" d="M290,160.75l-.22,0a.77.77,0,0,1-.52-1l1.19-4a.77.77,0,0,1,1.48.44l-1.18,4A.78.78,0,0,1,290,160.75Z"/><path class="cls-7" d="M299.41,162.58a.77.77,0,0,1-.77-.78V158a.77.77,0,0,1,.77-.77.78.78,0,0,1,.78.77v3.83A.78.78,0,0,1,299.41,162.58Z"/><path class="cls-7" d="M310.07,162.58a.77.77,0,0,1-.73-.52l-1.56-4.41a.76.76,0,0,1,.47-1,.78.78,0,0,1,1,.47l1.56,4.41a.78.78,0,0,1-.47,1A.85.85,0,0,1,310.07,162.58Z"/><path class="cls-7" d="M318.86,158.75a.74.74,0,0,1-.46-.16l-3.79-2.81a.77.77,0,0,1-.16-1.08.76.76,0,0,1,1.08-.16l3.79,2.81a.78.78,0,0,1-.46,1.4Z"/><path class="cls-2" d="M127.26,105.68c.31,5.19,3.23,9.24,6.53,9s5.72-4.57,5.41-9.76-3.23-9.24-6.53-9S127,100.49,127.26,105.68Z"/><polygon class="cls-16" points="164.7 154.47 178.22 183.07 161.11 199.65 164.7 154.47"/><path class="cls-3" d="M165.14,265.34H33.4a85.25,85.25,0,0,1,2-16.79c8.45-38.55,40.95-50.14,40.95-50.14l66.54,50.14Z"/><path class="cls-17" d="M193.29,127.33s2.27-10.07,7.65-14.65,11.75-7.55,10.63-3.46S206.73,120,206.73,120l9.76-2.6a84.44,84.44,0,0,1,11-4.19c4.62-1.23,6.08,2.17,6.08,2.17s4.62-1.23,6.63.13.59,4.26.59,4.26,6.63.12,4.13,5.2-21.09,19-27.46,22-15.23-.51-15.23-.51S189.35,149.22,193.29,127.33Z"/><path d="M229,129.77a.74.74,0,0,1-.37-.1l-16.92-9.07a.78.78,0,0,1,.73-1.37l16.93,9.08a.78.78,0,0,1-.37,1.46Z"/><path d="M196,135.24a.77.77,0,0,1-.74-.58.78.78,0,0,1,.55-.95c5.06-1.31,8.3-3.4,9.64-6.22a7.28,7.28,0,0,0,.15-5.73.79.79,0,0,1,.38-1,.78.78,0,0,1,1,.38,8.83,8.83,0,0,1-.14,7c-1.54,3.26-5.13,5.65-10.67,7.08A.69.69,0,0,1,196,135.24Z"/><path class="cls-17" d="M192.87,138.78l24.58-.46s-.44,72.42-28.36,85.52c-22.07,10.36-36.31-21.57-36.31-21.57Z"/><path class="cls-14" d="M35.09,205.54s12.17-46,38.1-64,70.92-10.25,82.66-.15c11.13,9.57,12.4,27.65,12.4,27.65l5.62,84.13-10,.54L74.6,256.09l.17-49.53Z"/><path class="cls-17" d="M112.92,190.53a9.23,9.23,0,0,1,7.72-3.38c4.85.3,12.17.86,13.86,1.65a36.54,36.54,0,0,1,5.05,3.3,4.35,4.35,0,0,1,1,6s22.29,11.64,20.48,16.23c-1.22,3.12-11.11-1.35-11.11-1.35s9.89,5.48,8.17,8.9-14.46-2-14.46-2,9.83,6.31,4.62,7.86-40.72-8.21-42.59-18.67C104.41,202.25,109.37,194.82,112.92,190.53Z"/><path d="M141.37,198.59a.77.77,0,0,1-.41-.11L135.29,195a.77.77,0,0,1-.25-1.07.78.78,0,0,1,1.07-.25l5.67,3.53a.77.77,0,0,1-.41,1.43Z"/><path d="M151.64,214.38a.81.81,0,0,1-.37-.09l-14.87-8a.77.77,0,1,1,.73-1.36l14.87,8a.77.77,0,0,1-.36,1.45Z"/><path d="M145.36,221.86a.84.84,0,0,1-.37-.09l-13.33-7.25a.77.77,0,0,1,.74-1.36l13.33,7.25a.76.76,0,0,1,.31,1.05A.78.78,0,0,1,145.36,221.86Z"/><path class="cls-17" d="M38,205.62S29.8,236.8,58.37,241s54.29-24.3,54.29-24.3L116.22,188,59.69,206.17Z"/><path class="cls-18" d="M85.65,196.76a.78.78,0,0,1-.77-.78v-8.85a.78.78,0,0,1,1.55,0V196A.78.78,0,0,1,85.65,196.76Z"/><path d="M130.51,80s7.32,8.29,3.29,17.42-8.34-16.59-8.34-16.59Z"/><path class="cls-17" d="M105.87,117.21l-.27,16.43s2.88,4.78,12.48,5.72c7.15.71,9.7-.87,9.7-.87l-.86-8.34-.85-8.13-17.29-4.12Z"/><path d="M108.78,117.9c0,.45-2.65,1.87-2.39,2.48,3.53,8.27,16.72,12.43,20.85,12.87L126.07,122Z"/><path class="cls-17" d="M127.38,80.8a15.49,15.49,0,0,1,4.77,7.12c2.15,6.35,6.49,21.16,3.65,30.24-3.69,11.79-14.33,9.59-20.66,7.08a21.16,21.16,0,0,1-9.16-6.57,8.94,8.94,0,0,1-9.86-3.89C92.31,109,95,102.62,98.45,101.24s7.44,1.25,7.44,1.25l-3-6.25S114.89,70.64,127.38,80.8Z"/><path d="M105,110.57a.82.82,0,0,1-.47-.15l-6-4.47a.78.78,0,0,1,.93-1.25l6,4.48a.78.78,0,0,1,.16,1.08A.76.76,0,0,1,105,110.57Z"/><path d="M98.27,110.37a.78.78,0,0,1-.18-1.53l4.9-1.17a.77.77,0,1,1,.36,1.5l-4.9,1.18Z"/><path d="M131.74,99.67a.77.77,0,0,1-.75-.58l-1-3.79a.78.78,0,0,1,1.51-.38l1,3.78a.76.76,0,0,1-.56.94A.63.63,0,0,1,131.74,99.67Z"/><path d="M120.12,101.28a.77.77,0,0,1-.75-.58l-1-3.79A.79.79,0,0,1,119,96a.78.78,0,0,1,1,.56l1,3.79a.77.77,0,0,1-.56.94Z"/><path d="M132.82,91.78h-.09l-3.12-.34a.76.76,0,0,1-.68-.85.77.77,0,0,1,.85-.69l3.12.34a.78.78,0,0,1-.08,1.55Z"/><path d="M117.44,94.34a.78.78,0,0,1-.73-.53.77.77,0,0,1,.49-1l4.39-1.47a.77.77,0,0,1,1,.49.79.79,0,0,1-.49,1l-4.39,1.47A.73.73,0,0,1,117.44,94.34Z"/><path d="M105.89,102.49s1.71,6.84,3,6,2.54-10.7,1.56-15.11-1.69-6.63-1.69-6.63,18-1.6,22.68-5.87-5.26-7-15.49-5.08-14.25,5.78-14.25,5.78-6.41-1-8.8,3,3,18.76,3,18.76S97.59,99.57,105.89,102.49Z"/><path d="M140.13,109.56s-5-5.56-7.57-4.72a9.73,9.73,0,0,0-4.33,3.58s-2.18-3.21-5.52-2-10.51,1.62-10.58,2.78,2,1.57,2,1.57S131,112.69,140.13,109.56Z"/><path d="M105.89,102.49s.3,11.1.09,16.18,13.92,13,23.68,8.64,7.09-17.18,7.09-17.18l-8.7.81a16.73,16.73,0,0,0-4.29-1.61c-2.28-.47-5.32.77-5.32.77Z"/><path class="cls-16" d="M127.78,111.52s-3.52,5.69-5.7-1.62Z"/><path d="M128,107a.85.85,0,0,1-.35-.08.77.77,0,0,1-.34-1c2-4.06-1.08-8.63-1.11-8.68a.77.77,0,0,1,1.27-.88c.15.21,3.67,5.36,1.22,10.25A.78.78,0,0,1,128,107Z"/><path class="cls-18" d="M122.57,140.2c-5.8,0-13.2-1.37-18.14-7.23a.77.77,0,0,1,.09-1.09.78.78,0,0,1,1.09.09c8.41,10,25.28,5.75,25.45,5.7a.79.79,0,0,1,.95.56.77.77,0,0,1-.56.94A37.94,37.94,0,0,1,122.57,140.2Z"/><path class="cls-2" d="M97.64,110.42c.31,5.19,3.24,9.24,6.53,9s5.72-4.56,5.41-9.75-3.23-9.25-6.53-9S97.34,105.22,97.64,110.42Z"/><path class="cls-8" d="M95.59,110.54c.31,5.19,3.23,9.24,6.52,9s5.72-4.56,5.41-9.75-3.23-9.24-6.52-9S95.28,105.35,95.59,110.54Z"/><path class="cls-8" d="M105.83,79s-3.84,4.16-3.22,13.52,3.44,13.37,3.44,13.37l-6.46-.46S97,95.87,98.33,88.13,100.39,78.6,105.83,79Z"/><polygon class="cls-14" points="158.37 143.93 173.87 165.1 176.55 225.5 164.11 225.71 158.37 143.93"/><path class="cls-9" d="M208.87,245.67a1.44,1.44,0,0,1-1.38-1l-13.25-47.52-28.78-22.89a1.43,1.43,0,1,1,1.78-2.24l29.15,23.17a1.43,1.43,0,0,1,.49.74l13.38,48a1.43,1.43,0,0,1-1,1.76A1.31,1.31,0,0,1,208.87,245.67Z"/><path class="cls-8" d="M204.77,236.64a5.52,5.52,0,0,1-5.31-3c-.54-1.09-.21-2.73.45-4.29a9.51,9.51,0,0,1-5.1-4.78c-4.15-8.05-2.61-22-2.12-25.64-3.87-.19-18.71-2.32-24.62-23.21a.79.79,0,0,1,.54-1,.78.78,0,0,1,1,.54c6.43,22.76,23.25,22.14,24,22.1a.78.78,0,0,1,.62.26.75.75,0,0,1,.19.64c0,.16-2.63,16.88,1.84,25.56a7.93,7.93,0,0,0,4.42,4.1,13.28,13.28,0,0,1,1.1-1.66c.88-1.11,2.2-2.38,3.56-2.06.87.2,1.45,1,1.74,2.3s-.58,2.43-2.17,3a6.85,6.85,0,0,1-3.42.22c-.6,1.35-.87,2.61-.57,3.2,1.91,3.82,7.48,1.41,7.71,1.31a.77.77,0,0,1,1,.39.77.77,0,0,1-.39,1A11.42,11.42,0,0,1,204.77,236.64Zm-2.57-8.32a5,5,0,0,0,2.12-.24c.61-.21,1.29-.66,1.17-1.21-.16-.76-.41-1.08-.57-1.11s-1,.29-2,1.51A9.8,9.8,0,0,0,202.2,228.32Z"/><path class="cls-10" d="M190.84,196.27a4.66,4.66,0,1,0,4.66-4.66A4.65,4.65,0,0,0,190.84,196.27Z"/><rect class="cls-11" x="151.47" y="138.64" width="15.77" height="42.32" rx="5.85" transform="translate(376.77 220.3) rotate(150.47)"/><rect class="cls-12" x="153.34" y="137.58" width="15.77" height="42.32" rx="5.85" transform="translate(379.75 217.39) rotate(150.47)"/><path class="cls-8" d="M161.23,147.88a.76.76,0,0,1-.66-.36l-3.8-6a.78.78,0,1,1,1.31-.83l3.8,6a.76.76,0,0,1-.24,1.06A.7.7,0,0,1,161.23,147.88Z"/><path class="cls-13" d="M189.29,239.76h39.18a0,0,0,0,1,0,0v3.62a5.22,5.22,0,0,1-5.22,5.22H194.5a5.22,5.22,0,0,1-5.22-5.22v-3.62A0,0,0,0,1,189.29,239.76Z" transform="translate(417.75 488.35) rotate(180)"/><path class="cls-18" d="M171.18,224.64a.78.78,0,0,1-.78-.78V212.92a.78.78,0,1,1,1.55,0v10.94A.78.78,0,0,1,171.18,224.64Z"/><path class="cls-14" d="M764.67,108.74c.82,5.47-1.39,10.33-4.95,10.87s-7.09-3.48-7.91-9,1.39-10.34,5-10.87S763.85,103.26,764.67,108.74Z"/><path class="cls-5" d="M872.06,186.79s11.56-9.27,13.8-10.06,7.28-5.91,9.15-2.56-6.53,12.62-6.53,12.62,15.49-2,19.78-2.76,12.31-5.72,14.93-3-2.43,7.3-2.43,7.3,7.09-1.86,6.53,1.73-4.48,7.14-4.48,7.14,6.6-2.36,4.51,2.57-12,12.22-25,15-30.23-1.18-30.23-1.18Z"/><path d="M906,203.5a.8.8,0,0,1-.67-.37l-8.3-13.25a.78.78,0,1,1,1.33-.83l8,12.82c2.3-.31,12.12-1.83,15.87-5.21a.78.78,0,0,1,1.11.06.79.79,0,0,1-.06,1.11c-4.61,4.16-16.72,5.61-17.23,5.67Z"/><path d="M900.29,194.37a.79.79,0,0,1,0-1.57,48.65,48.65,0,0,0,20.11-5.11.79.79,0,0,1,1.07.29.78.78,0,0,1-.29,1.07c-.33.19-8.4,4.76-20.82,5.32Z"/><path d="M875.52,200.07a18.18,18.18,0,0,1-2.06-.12.78.78,0,0,1,.17-1.56,11.92,11.92,0,0,0,9.12-2.26c4.24-3.39,4.94-9.36,5-9.42a.78.78,0,0,1,.86-.7.8.8,0,0,1,.7.87c0,.26-.77,6.66-5.52,10.47A12.74,12.74,0,0,1,875.52,200.07Z"/><path class="cls-3" d="M828.54,265.34h-159a130.51,130.51,0,0,1,.62-16.79c7.4-74.14,75.45-93.59,75.45-93.59l70.36,93.59Z"/><path class="cls-18" d="M829.14,248.55c1.69,5.13,3.66,11.11,5.44,16.79H814.43l-10.08-16.79L802.83,246s-38.63-85.48-49-115.14c0,0,24.59-1.12,34.67,6.7s33.43,44.32,33.43,44.32l50.16-4.76,5.8,43.68-53.19,14.36S826.61,240.91,829.14,248.55Z"/><path class="cls-7" d="M758.3,251.29s11.18,2.56,28.67,0,20.69-4.2,20.69-4.2l-36.48-81.63-17.39-34.59L731,135.54Z"/><path class="cls-5" d="M732.58,121.67,734,138.42s3.42,4.56,13.28,4.54c7.35,0,9.77-1.88,9.77-1.88l-1.72-8.39-1.69-8.19-18-2.42Z"/><path d="M735.6,122.08a5.56,5.56,0,0,0,.62,1.58c4.44,8.05,14.84,9,19.08,9l-1.69-8.19Z"/><path class="cls-5" d="M754.5,85.71s10.8,20.77,8.24,33-13.64,11.1-20.35,9.22a21.76,21.76,0,0,1-10-5.7,9.26,9.26,0,0,1-10.46-2.93c-4.48-5.41-2.41-12.12,1-13.86s7.72.51,7.72.51l-3.68-6S738.51,67.44,754.5,85.71Z"/><path d="M730.61,106s8.31-2.16,10.87-9.26.16-11.3.16-11.3a9.3,9.3,0,0,1,8-1.07c4.89,1.36,7.32,6.56,7.32,6.56s11.29-10.16,6.81-17.66-12.92-.18-12.92-.18,1.32-6.53-10.91-4.33-14.73,18.11-14.73,18.11-3-6.17-6.74,4.18,3.07,15.51,3.07,15.51S724.59,104.6,730.61,106Z"/><path d="M730.69,115.3a.78.78,0,0,1-.35-.1l-8.19-4.92a.68.68,0,0,1,.7-1.16L731,114a.68.68,0,0,1,.24.93A.7.7,0,0,1,730.69,115.3Z"/><path d="M723.64,115.79a.68.68,0,0,1-.64-.46.67.67,0,0,1,.42-.86l5-1.74a.68.68,0,1,1,.44,1.28l-5,1.74A.85.85,0,0,1,723.64,115.79Z"/><path d="M740.82,96.06a.75.75,0,0,1-.43-.13.78.78,0,0,1-.23-1.08,5.41,5.41,0,0,1,6.72-2.35.78.78,0,0,1-.62,1.44,3.87,3.87,0,0,0-4.78,1.76A.8.8,0,0,1,740.82,96.06Z"/><path d="M757.4,93.87a.85.85,0,0,1-.45-.14,3.34,3.34,0,0,0-3.71-.07.77.77,0,0,1-1.08-.2.78.78,0,0,1,.18-1.09,4.9,4.9,0,0,1,5.51.07.79.79,0,0,1,.2,1.09A.8.8,0,0,1,757.4,93.87Z"/><path d="M755.66,112.94h-.16a.8.8,0,0,1-.61-.93,10.7,10.7,0,0,0-3.11-10.12.79.79,0,1,1,1-1.2,12.28,12.28,0,0,1,3.63,11.64A.78.78,0,0,1,755.66,112.94Z"/><path d="M752.36,118.6c-1.78,0-3.27-1.53-3.92-2.58a.79.79,0,0,1,.25-1.08.78.78,0,0,1,1.08.25c.07.11,1.71,2.67,3.56,1.54a.79.79,0,0,1,.82,1.34A3.35,3.35,0,0,1,752.36,118.6Z"/><path class="cls-5" d="M809.39,193s9.16.33,9.16,3.8S808.34,201,808.34,201l-1.77-2.16,1.7-4.39Z"/><path class="cls-9" d="M846.75,246.7a1.58,1.58,0,0,1-1.52-1.15L830.72,193.5l-31.53-25.07a1.57,1.57,0,0,1,1.95-2.46l31.93,25.39a1.54,1.54,0,0,1,.53.81l14.66,52.54a1.57,1.57,0,0,1-1.09,1.93A1.52,1.52,0,0,1,846.75,246.7Z"/><path class="cls-8" d="M842.25,236.74a6,6,0,0,1-5.76-3.24c-.6-1.19-.22-3,.53-4.71a10.31,10.31,0,0,1-5.63-5.22c-4.53-8.82-2.85-24.06-2.31-28-4.37.07-21-1.15-27.43-24.09a.79.79,0,0,1,1.51-.43c7.05,25,25.93,23,26.74,22.9a.83.83,0,0,1,.66.24.78.78,0,0,1,.21.67c0,.18-2.88,18.51,2,28a8.78,8.78,0,0,0,4.93,4.53,13.81,13.81,0,0,1,1.23-1.85c.95-1.21,2.38-2.58,3.83-2.24.93.22,1.55,1.05,1.86,2.48s-.63,2.6-2.33,3.2a7.61,7.61,0,0,1-3.76.23c-.68,1.51-1,2.94-.65,3.6,2.11,4.24,8.27,1.58,8.53,1.47a.78.78,0,0,1,.64,1.43A12.59,12.59,0,0,1,842.25,236.74Zm-2.93-9a5.7,5.7,0,0,0,2.46-.25c.69-.24,1.46-.76,1.32-1.39s-.41-1.22-.68-1.28-1.23.4-2.24,1.68A13.65,13.65,0,0,0,839.32,227.74Z"/><path class="cls-10" d="M827,192.59a5.1,5.1,0,1,0,5.1-5.1A5.1,5.1,0,0,0,827,192.59Z"/><rect class="cls-11" x="783.87" y="129.46" width="17.27" height="46.35" rx="6.41" transform="translate(1557.28 -105.18) rotate(150.47)"/><rect class="cls-12" x="785.91" y="128.3" width="17.27" height="46.35" rx="6.41" transform="translate(1560.54 -108.36) rotate(150.47)"/><path class="cls-8" d="M794.55,139.52a.79.79,0,0,1-.66-.36l-4.16-6.58a.78.78,0,1,1,1.32-.84l4.16,6.58a.77.77,0,0,1-.24,1.08A.81.81,0,0,1,794.55,139.52Z"/><path class="cls-13" d="M825.29,240.22h42.92a0,0,0,0,1,0,0v4a5.72,5.72,0,0,1-5.72,5.72H831a5.72,5.72,0,0,1-5.72-5.72v-4A0,0,0,0,1,825.29,240.22Z" transform="translate(1693.49 490.12) rotate(180)"/><path class="cls-14" d="M733,112.05c.82,5.47-1.4,10.34-4.95,10.87s-7.1-3.47-7.92-8.94,1.4-10.34,5-10.87S732.21,106.58,733,112.05Z"/><path class="cls-8" d="M730.62,112.41c.82,5.47-1.39,10.34-5,10.87s-7.1-3.47-7.92-8.94,1.4-10.34,5-10.87S729.8,106.94,730.62,112.41Z"/><path class="cls-8" d="M721.51,106.54s-2.65-15.67,1-21.76,5.55-6.29,5.55-6.29-4.63,14.86-1.45,28.05S721.51,106.54,721.51,106.54Z"/><path d="M746.28,105.42a.78.78,0,0,1-.76-.62l-1-4.51a.78.78,0,1,1,1.53-.34l1,4.51a.78.78,0,0,1-.6.94Z"/><path d="M757.46,104.32a.78.78,0,0,1-.77-.62l-1-4.51a.8.8,0,0,1,.6-.94.78.78,0,0,1,.93.6l1,4.52a.77.77,0,0,1-.6.93Z"/><path class="cls-15" d="M821.21,181.27h25.94a3.86,3.86,0,0,1,3.86,3.86v40.16a0,0,0,0,1,0,0H817.35a0,0,0,0,1,0,0V185.13A3.86,3.86,0,0,1,821.21,181.27Z" transform="translate(1668.37 406.56) rotate(180)"/><path class="cls-8" d="M817.35,181.27c0,1.07,7.54,1.93,16.84,1.93s16.83-.86,16.83-1.93-7.54-1.93-16.83-1.93S817.35,180.2,817.35,181.27Z"/><path class="cls-15" d="M804.77,205.62c0-9,5.65-16.26,12.58-16.26s12.59,7.29,12.59,16.26-5.65,16.25-12.59,16.25S804.77,214.58,804.77,205.62Zm3,0c0,7.32,4.31,13.28,9.6,13.28s9.61-6,9.61-13.28-4.31-13.28-9.61-13.28S807.75,198.3,807.75,205.62Z"/><path class="cls-5" d="M778.94,204.87s13.67-10.7,17.63-11.89,12.82.06,12.82.06l-1.57,1.9-1.43,2.61-.65,1.84s11.59,1.23,10.79,5A38,38,0,0,1,814,211.8s1.78,15.25-4.55,18.62-28.13,1-28.13,1Z"/><path class="cls-18" d="M733,129.91s-39.35,13-43.26,45.49-8.19,74,28.2,78.45S788.46,241,788.46,241L778.38,197.3,757,200.66Z"/><path d="M807.66,200.7l-7.49-.75a.79.79,0,0,1-.7-.86.76.76,0,0,1,.86-.7l7.41.74a.78.78,0,0,1,.7.86A.79.79,0,0,1,807.66,200.7Z"/><path d="M811,214a.78.78,0,0,1-.71-.45.8.8,0,0,1,.38-1.05l3-1.37a.79.79,0,0,1,1,.39.78.78,0,0,1-.38,1l-3,1.37A.78.78,0,0,1,811,214Z"/><path class="cls-2" d="M747.44,143.63a44.11,44.11,0,0,1-9.79-1.18.78.78,0,1,1,.34-1.53c12.32,2.79,18.6-.49,18.66-.53a.79.79,0,0,1,.75,1.38C757.21,141.88,753.91,143.63,747.44,143.63Z"/><path class="cls-2" d="M717,206.4a.79.79,0,0,1-.22-1.54,126.69,126.69,0,0,1,40.27-5,.78.78,0,0,1,.72.84.75.75,0,0,1-.84.73,124.53,124.53,0,0,0-39.71,4.92A.83.83,0,0,1,717,206.4Z"/><path class="cls-2" d="M724.78,204.1c-3.69,0-10.26-.31-11.88-2.47a2.08,2.08,0,0,1-.3-2,2.32,2.32,0,0,1,1.45-1.48c3.5-1.31,12.31,3.82,13.3,4.41a.8.8,0,0,1,.37.87.79.79,0,0,1-.74.59C726.56,204.08,725.77,204.1,724.78,204.1Zm-9.33-4.57a2.37,2.37,0,0,0-.85.13.73.73,0,0,0-.51.5.5.5,0,0,0,.07.52c.92,1.23,5.59,1.76,9.78,1.84C721,201,717.44,199.53,715.45,199.53Z"/><path class="cls-2" d="M732,255.58a117.19,117.19,0,0,1-23.23-2.39.78.78,0,0,1,.35-1.53c.22.05,21.3,4.81,39.67.66a.78.78,0,0,1,.34,1.53A78.87,78.87,0,0,1,732,255.58Z"/><path class="cls-2" d="M869.6,223.83a.79.79,0,0,1-.78-.69L863,178a.78.78,0,0,1,.68-.88.76.76,0,0,1,.87.68l5.81,45.11a.78.78,0,0,1-.68.88Z"/><path class="cls-2" d="M782.41,244.46a.79.79,0,0,1-.77-.6l-11.22-44.92a.78.78,0,0,1,1.52-.38l11.23,44.92a.8.8,0,0,1-.57,1Z"/><ellipse class="cls-6" cx="576.41" cy="117.15" rx="5.98" ry="9.42" transform="translate(-10.35 76.16) rotate(-7.49)"/><path class="cls-5" d="M672.34,179.18l1.15-3.25s14.68-7.41,23.19-9.18c3.59-.74,8,1.25,3.29,4.93a19.19,19.19,0,0,0-4.15,4.62,51.77,51.77,0,0,0,11.63-2.91c3.13-1.34,8.59-8,10.69-6,3.33,3.27-2.39,9.73-2.39,9.73s3.68-8.84,6.78-4.55S712,193.05,706.37,196.46s-32.31,3.68-32.31,3.68Z"/><path d="M701.14,181.4a10.31,10.31,0,0,1-1.11-.05.77.77,0,0,1-.71-.83.78.78,0,0,1,.84-.71c5.64.49,11.83-3.47,11.89-3.51a.77.77,0,0,1,.84,1.3C712.64,177.77,706.94,181.4,701.14,181.4Z"/><path d="M706,186.77a.79.79,0,0,1-.52-.2l-10-8.93a.77.77,0,1,1,1-1.15l9.61,8.57,5.65-2.8a.78.78,0,1,1,.69,1.39l-6.12,3A.84.84,0,0,1,706,186.77Z"/><path d="M534.06,102s-17.36,2.84-23.68,24.62-2.58,50-2.58,50l32.05-9.63-1.39-38.67Z"/><path class="cls-3" d="M588.38,265.34H453.16a89.7,89.7,0,0,1,1.47-16.79c7.51-40.62,41.47-52.75,41.47-52.75l70,52.75Z"/><path class="cls-7" d="M588.85,150.34a40.29,40.29,0,0,0-19.4-5.91c-11.12-.34-5.34,30.29-5.34,30.29h32.55Z"/><path class="cls-7" d="M673.74,172.53l6.21,35s-12.58,17.92-44.21,22c-25.74,3.29-52.07-14.88-52.07-14.88l5.18-64.28s25.9,19.89,43,25.28C649.25,181.08,673.74,172.53,673.74,172.53Z"/><path class="cls-7" d="M553.65,144.43A50.39,50.39,0,0,0,529.71,150c-14.49,7.76-17.19,105.12-16.18,106.37s20.91,4.46,52,2.88,30-4.91,31.72-5.85c1-.53,4.35-36.26-3.19-66a175.1,175.1,0,0,0-16.74-41.26S576,157.32,553.65,144.43Z"/><path class="cls-8" d="M598.8,215.42h-.13a.78.78,0,0,1-.63-.9c0-.21,3.51-21-6.12-39a.78.78,0,0,1,1.37-.73c9.89,18.51,6.31,39.82,6.27,40A.77.77,0,0,1,598.8,215.42Z"/><path class="cls-5" d="M581.21,222.21s23.46-9.28,25.83-9.29,21.48,8.75,23.36,10.7-5.36,3.43-8.08,3.2-6-.78-6-.78,10.83,10.24,10.11,13-5.22,1.73-5.22,1.73,3.56,4-.18,5.17-17-6.09-17-6.09-12,8.66-21.54,4.4-12.2-8.13-12.2-8.13Z"/><path class="cls-5" d="M595.61,219.27s8.35-15.51,2.77-13.39-17.17,16.33-17.17,16.33l6.93,3.29Z"/><path d="M616.34,226.82a.78.78,0,0,1-.48-.17l-5.77-4.52a.77.77,0,0,1-.14-1.08.78.78,0,0,1,1.09-.14l5.77,4.52a.78.78,0,0,1,.14,1.09A.8.8,0,0,1,616.34,226.82Z"/><path d="M620.1,241a.75.75,0,0,1-.5-.19L606.26,229.5a.77.77,0,0,1-.08-1.09.78.78,0,0,1,1.09-.09l13.33,11.33a.78.78,0,0,1-.5,1.37Z"/><path d="M586.14,222.3a.78.78,0,0,1-.34-1.47l11.07-5.44a.78.78,0,0,1,.69,1.39l-11.08,5.44A.81.81,0,0,1,586.14,222.3Z"/><path class="cls-7" d="M540.84,146s-41.12,7-53.63,47.74S508.5,247.42,544,248.5s39.49-2.41,39.49-2.41l-2.9-31.84-25.71-8.47Z"/><path class="cls-8" d="M583.45,246.86a.78.78,0,0,1-.33-.07c-.46-.22-4.5-2.19-4.92-4.91-.32-2,1.65-4.35,2.9-5.6-2.39-1-7.43-3.45-8-6.64s3.56-5.85,6-7.24c-1.62-.59-3.8-1.63-4.67-3.22-1.13-2.08,1.31-4.64,2.89-6-6.14-2.08-32.16-10.59-51.18-12.07a.77.77,0,1,1,.12-1.54c21.8,1.69,52.6,12.5,52.91,12.61a.77.77,0,0,1,.19,1.36c-1.81,1.29-4.19,3.74-3.57,4.88.89,1.62,4.3,2.74,5.54,3a.77.77,0,0,1,.15,1.46c-1.93.88-7.33,4-6.89,6.45s6,5.15,8.15,5.91a.78.78,0,0,1,.24,1.32c-1.39,1.19-3.53,3.6-3.3,5,.25,1.63,3,3.26,4,3.75a.78.78,0,0,1,.37,1A.77.77,0,0,1,583.45,246.86Z"/><path class="cls-8" d="M533.27,202A.88.88,0,0,1,533,202c-2-.91-11.94-5.59-12.29-8.85a1.86,1.86,0,0,1,.81-1.74,2.64,2.64,0,0,1,2.12-.47c4,.68,9.69,9,10.32,9.92a.75.75,0,0,1,0,.93A.77.77,0,0,1,533.27,202ZM523,192.41a1,1,0,0,0-.64.21c-.22.16-.21.26-.2.33.15,1.43,4.52,4.16,8.63,6.27-2.17-2.82-5.38-6.42-7.5-6.78Z"/><path d="M548.87,133.46s-9.9.44-15.6-13.37a27.68,27.68,0,0,1,1.43-24.62L547.13,102l6.75,24.67Z"/><path class="cls-5" d="M549.22,127.49l-1.38,16.27s2.54,4.92,12,6.5c7,1.18,9.66-.22,9.66-.22l-.29-8.32-.29-8.11-16.86-5.24Z"/><path d="M552.05,128.37a5.28,5.28,0,0,0,.34,1.61c3,8.44,12.75,11,16.81,11.74l-.29-8.11Z"/><path class="cls-5" d="M575.68,96.84s6.8,21.12,2.48,32.16-14.5,8.22-20.47,5.4a20.6,20.6,0,0,1-8.47-6.9,8.79,8.79,0,0,1-9.32-4.39c-3.33-5.77-.32-11.71,3.12-12.8s7.14,1.7,7.14,1.7l-2.49-6.19S563.62,77.25,575.68,96.84Z"/><path d="M548.87,120.86a.81.81,0,0,1-.51-.18l-6.88-5.89a.77.77,0,0,1-.08-1.09.77.77,0,0,1,1.09-.09l6.88,5.89a.77.77,0,0,1-.5,1.36Z"/><path d="M542.2,120.21a.79.79,0,0,1-.77-.65.78.78,0,0,1,.64-.89l4.93-.83a.77.77,0,0,1,.26,1.52l-4.93.84Z"/><path d="M561.38,104.4a.75.75,0,0,1-.52-.21.76.76,0,0,1-.05-1.09,5.18,5.18,0,0,1,6.7-1.14.78.78,0,0,1-.85,1.3,3.6,3.6,0,0,0-4.71.88A.76.76,0,0,1,561.38,104.4Z"/><path d="M577.22,105a.81.81,0,0,1-.54-.22c-1.52-1.49-2.51-1.23-2.56-1.22a.78.78,0,0,1-1-.49.77.77,0,0,1,.45-1c.18-.07,1.91-.62,4.15,1.57a.78.78,0,0,1,0,1.1A.82.82,0,0,1,577.22,105Z"/><path d="M572.87,121.28a.77.77,0,0,1-.45-1.4c1.42-1-.69-5.81-2.56-8.74a.78.78,0,1,1,1.31-.83c.91,1.41,5.27,8.61,2.15,10.83A.8.8,0,0,1,572.87,121.28Z"/><path d="M575.86,112.69a.79.79,0,0,1-.76-.64l-.7-3.82a.78.78,0,0,1,.16-.62l1.24-1.56a.79.79,0,0,1,1.09-.12A.77.77,0,0,1,577,107l-1,1.28.64,3.47a.79.79,0,0,1-.63.9Z"/><path d="M564.13,112.87a.78.78,0,0,1-.76-.64l-.7-3.82a.73.73,0,0,1,.19-.66l1.6-1.74a.79.79,0,0,1,1.1,0,.77.77,0,0,1,0,1.09l-1.34,1.46.63,3.43a.77.77,0,0,1-.62.9Z"/><path d="M550.16,112l1.89,2.19L551.1,111s4.46,0,10.28-3.71,7.21-12.63,7.21-12.63A30.89,30.89,0,0,1,573.88,98a9.18,9.18,0,0,1,3.34,4.45s7.3-20.23-8-22.86S543,90,543,90s-8.77,1.21-9.65,9.81,5.13,15.26,5.13,15.26A8.34,8.34,0,0,1,550.16,112Z"/><path class="cls-5" d="M569.49,150l.92,7.32s-20.2-8.46-21.54-12.25,19.72,2.12,19.72,2.12Z"/><path class="cls-8" d="M570.41,158.13a.71.71,0,0,1-.32-.07c-.8-.36-19.62-9-22.89-13.87a.77.77,0,1,1,1.28-.87c2.59,3.83,16.86,10.79,21.08,12.78l-.71-11.85a.78.78,0,0,1,1.55-.09l.78,13.15a.79.79,0,0,1-.33.69A.78.78,0,0,1,570.41,158.13Z"/><path d="M569.25,128.31a2.46,2.46,0,0,1-.53-.06c-2.14-.51-2.66-3.79-2.71-4.17a.76.76,0,0,1,.24-.68.78.78,0,0,1,.7-.18l5.44,1.28a.73.73,0,0,1,.53.45.77.77,0,0,1,0,.71C572.69,126,571.17,128.31,569.25,128.31ZM567.82,125c.26.78.69,1.58,1.25,1.72s1.26-.42,1.8-1Z"/><path d="M681,186.75a17.44,17.44,0,0,1-2.88-.25.77.77,0,0,1-.64-.89.79.79,0,0,1,.89-.64,12.29,12.29,0,0,0,14.17-8,.77.77,0,1,1,1.47.48C694,177.58,690.9,186.75,681,186.75Z"/><path class="cls-8" d="M634.39,190a2.24,2.24,0,0,1-1-.24,2.44,2.44,0,0,1-1.33-1.69c-.82-3.51,4.66-10.74,5.28-11.56a.78.78,0,0,1,.88-.25.77.77,0,0,1,.51.75c-.07,1.83-.57,11.05-3.33,12.7A2,2,0,0,1,634.39,190ZM637,179.63c-1.9,2.85-3.81,6.42-3.43,8.06a.89.89,0,0,0,.5.65.52.52,0,0,0,.54,0C635.83,187.63,636.65,183.43,637,179.63Z"/><path class="cls-19" d="M666.21,245.84a1.44,1.44,0,0,1-1.38-1.05l-13.26-47.52-28.78-22.89a1.43,1.43,0,1,1,1.79-2.24l29.14,23.17a1.43,1.43,0,0,1,.49.74l13.38,48a1.44,1.44,0,0,1-1,1.77A1.58,1.58,0,0,1,666.21,245.84Z"/><path class="cls-8" d="M662.1,236.8a5.5,5.5,0,0,1-5.3-3c-.55-1.09-.22-2.73.45-4.29a9.49,9.49,0,0,1-5.11-4.78c-4.14-8.05-2.61-22-2.12-25.63-3.87-.2-18.71-2.33-24.61-23.22l1.49-.42c6.43,22.77,23.26,22.15,24,22.1l1,0-.15.95c0,.17-2.63,16.88,1.84,25.57a8,8,0,0,0,4.42,4.09,13.28,13.28,0,0,1,1.1-1.66c.88-1.11,2.22-2.38,3.56-2.06.87.2,1.46,1,1.74,2.3s-.58,2.43-2.16,3a7,7,0,0,1-3.42.22c-.61,1.34-.87,2.6-.58,3.19,1.91,3.82,7.48,1.42,7.72,1.31l.62,1.42A11.43,11.43,0,0,1,662.1,236.8Zm-2.57-8.32a5.23,5.23,0,0,0,2.13-.23c.61-.22,1.28-.67,1.16-1.21-.16-.77-.41-1.08-.57-1.12s-1,.28-2,1.51A10.92,10.92,0,0,0,659.53,228.48Z"/><path class="cls-10" d="M648.17,196.44a4.66,4.66,0,1,0,4.66-4.66A4.66,4.66,0,0,0,648.17,196.44Z"/><rect class="cls-20" x="608.8" y="138.81" width="15.77" height="42.32" rx="5.85" transform="translate(1232.11 -4.81) rotate(150.47)"/><rect class="cls-19" x="610.67" y="137.75" width="15.77" height="42.32" rx="5.85" transform="translate(1235.08 -7.73) rotate(150.47)"/><path class="cls-8" d="M618.56,148.05a.79.79,0,0,1-.66-.36l-3.8-6a.77.77,0,0,1,.25-1.06.76.76,0,0,1,1.06.24l3.8,6a.77.77,0,0,1-.65,1.19Z"/><path class="cls-13" d="M646.62,239.92H685.8a0,0,0,0,1,0,0v3.62a5.22,5.22,0,0,1-5.22,5.22H651.84a5.22,5.22,0,0,1-5.22-5.22v-3.62A0,0,0,0,1,646.62,239.92Z" transform="translate(1332.42 488.68) rotate(180)"/><path class="cls-6" d="M540.87,120.17c.68,5.16,3.88,9,7.16,8.56s5.38-5,4.7-10.12-3.89-9-7.16-8.56S540.19,115,540.87,120.17Z"/><path class="cls-8" d="M538.83,120.44c.68,5.16,3.88,9,7.15,8.56s5.38-5,4.7-10.12-3.88-9-7.15-8.56S538.15,115.28,538.83,120.44Z"/><path class="cls-8" d="M546.8,86.37s-3.54,4.73-2.25,14.67,4.38,14,4.38,14h-6.47s-3.26-10-2.5-18.35S541.34,86.37,546.8,86.37Z"/><path class="cls-8" d="M678.89,208.35c-1.72,0-5-.27-6.63-2.16a2.31,2.31,0,0,1-.54-1.74c.19-2.29,3.28-5.33,4.94-6.82-1.47-.64-3.86-1.87-5-3.6-1.37-2.12,1.18-5.59,2.83-7.47-2.18-.31-5.95-1.12-7.33-3-1.93-2.67,3.4-9.25,5.08-11.21a.77.77,0,0,1,1.09-.08.77.77,0,0,1,.08,1.09c-3.07,3.58-5.81,8.17-5,9.29,1.24,1.71,6,2.44,7.74,2.58a.76.76,0,0,1,.66.5.78.78,0,0,1-.17.82c-2,2-4.49,5.44-3.69,6.67,1.34,2.08,5.36,3.43,5.4,3.44a.78.78,0,0,1,.25,1.34c-2,1.63-5.23,4.87-5.37,6.61a.71.71,0,0,0,.16.59c1.45,1.66,5.14,1.71,6.45,1.6a.77.77,0,1,1,.14,1.54C680,208.31,679.53,208.35,678.89,208.35Z"/><path class="cls-7" d="M538.46,129a.77.77,0,0,1-.51-.19c-13.8-11.82-6.7-27-6.63-27.2a.78.78,0,0,1,1.4.67c-.28.58-6.64,14.32,6.24,25.36a.77.77,0,0,1-.5,1.36Z"/><path class="cls-7" d="M521.06,113.62a13.23,13.23,0,0,1-6-1.22,7,7,0,0,1-3.64-4.35c-.5-1.63-.3-2.81.58-3.51,2.14-1.69,8.21.76,12.9,3.1-3.81-3.73-8.46-9-8.2-12.06a2.63,2.63,0,0,1,1.32-2.1,4.91,4.91,0,0,1,4.38-.45c5.29,2,8.91,12.46,9.06,12.9a.78.78,0,1,1-1.47.5c0-.1-3.53-10.25-8.13-11.94a3.36,3.36,0,0,0-3.05.32,1.09,1.09,0,0,0-.57.9c-.29,3.5,8.82,12,12.36,15l.08.07a.89.89,0,0,1,.18.38.76.76,0,0,1,0,.26.77.77,0,0,1-.1.29.8.8,0,0,1-.42.32A32.87,32.87,0,0,1,521.06,113.62Zm-7-8.15a1.81,1.81,0,0,0-1.13.29c-.41.33-.26,1.18-.06,1.84a5.49,5.49,0,0,0,2.87,3.42c3.65,1.88,9.46.8,12.35.07C523.18,108.35,516.88,105.47,514.07,105.47Z"/><path class="cls-5" d="M1003.94,148.22a21.92,21.92,0,0,0-11-10.12c-7.94-3.31-18.63-3.1-17.71,0s7.63,6.46,7.63,6.46-16.49,1.6-22.9,1.56-15.88.58-16.18,3.63,4.27,5.15,4.27,5.15-7.94,0-5.8,4,7.63,4.89,7.63,4.89-7,0-.91,4.88,21.56,6.67,30.84,6.72,19.85-3.05,19.85-3.05Z"/><path d="M998.75,160.31a10.19,10.19,0,0,1-7.58-3c-3.37-3.45-3.84-8.82-3.89-10.62l-4.64-1.4a.79.79,0,0,1-.53-1,.78.78,0,0,1,1-.52l5.19,1.56a.78.78,0,0,1,.56.77c0,.07-.09,6.47,3.46,10.1a8.66,8.66,0,0,0,6.45,2.5.79.79,0,0,1,0,1.57Z"/><path d="M965.76,166.41a.77.77,0,0,1-.35-.08.79.79,0,0,1-.35-1.05l8.55-17.14a.79.79,0,0,1,1.41.7L966.47,166A.78.78,0,0,1,965.76,166.41Z"/><path d="M966.68,164.58h-16.8a.79.79,0,0,1,0-1.57h16.8a.79.79,0,0,1,0,1.57Z"/><path d="M963.87,156.35c-7.16,0-15.42-.63-15.88-.66a.79.79,0,0,1-.72-.85.76.76,0,0,1,.84-.72c.14,0,14.68,1.12,21.86.43a.77.77,0,0,1,.85.71.79.79,0,0,1-.71.86C968.34,156.29,966.16,156.35,963.87,156.35Z"/><path class="cls-3" d="M1232.26,265.34h-159l12.61-16.79L1156.19,155s68,19.43,75.46,93.59A128.78,128.78,0,0,1,1232.26,265.34Z"/><path class="cls-14" d="M1118,122.29c0,5.45-2.72,9.87-6.07,9.87s-6.07-4.42-6.07-9.87,2.72-9.87,6.07-9.87S1118,116.84,1118,122.29Z"/><path d="M1147.51,97.23s16-12.62,28.35,2.52,12.05,82.16,12.05,82.16l-37.79-7.85V118.82Z"/><path class="cls-21" d="M1005.94,141.64l-17.1,36.62s23.55,38.7,54.67,39.26,44-10.1,44-10.1L1103,143.07s-16.55,4.63-25,8.84-23.83,10.65-28,10.65S1005.94,141.64,1005.94,141.64Z"/><path class="cls-21" d="M1103,143.07s17.85-3.15,40.47,3.82,24.28,8.66,24.28,8.66l5.59,109.8-96.46-10.21,8.73-58.94Z"/><path class="cls-5" d="M1142.49,131.18l1.56,17.89s-1.43,3.88-11.82,5.64c-7.74,1.31-11.83-3.07-11.83-3.07l.15-4.75.3-8.92,18.53-5.81Z"/><path d="M1139.38,132.16a5.83,5.83,0,0,1-.37,1.77c-3.22,9.29-14,12.17-18.46,13l.3-8.92Z"/><path class="cls-5" d="M1113.3,97.55s-7.43,23.24-2.64,35.38,16,9,22.54,5.88a22.68,22.68,0,0,0,9.29-7.62,9.67,9.67,0,0,0,10.24-4.86c3.64-6.35.32-12.88-3.47-14.06s-7.85,1.88-7.85,1.88l2.73-6.81S1126.5,76,1113.3,97.55Z"/><path d="M1117.16,125.75a.75.75,0,0,1-.69-.45c-2-4.61.83-9.83,1-10a.75.75,0,0,1,1-.3.77.77,0,0,1,.3,1s-2.59,4.79-.89,8.72a.75.75,0,0,1-.39,1A.8.8,0,0,1,1117.16,125.75Z"/><path d="M1143.43,124.52a.79.79,0,0,1-.46-.15.75.75,0,0,1-.14-1.05l5.33-7.07a.75.75,0,0,1,1.2.91l-5.33,7.06A.75.75,0,0,1,1143.43,124.52Z"/><path d="M1149.63,122.1l-4.28-.17a.76.76,0,0,1-.72-.78.73.73,0,0,1,.78-.72l4.25.17a.75.75,0,0,1,0,1.5Z"/><path d="M1124.54,131.84a7,7,0,0,1-4-1.52.76.76,0,0,1-.27-.68.74.74,0,0,1,.43-.58l8.38-3.85a.76.76,0,0,1,.77.09.75.75,0,0,1,.28.73,8.37,8.37,0,0,1-3.34,5.13A4.15,4.15,0,0,1,1124.54,131.84Zm-1.9-2a3.43,3.43,0,0,0,3.38.06,6.15,6.15,0,0,0,2.15-2.6Z"/><path d="M1129.31,108a.77.77,0,0,1-.63-.34c-1-1.57-4.09-1.42-5.18-1.23a.75.75,0,0,1-.26-1.48c.2,0,4.9-.83,6.7,1.88a.75.75,0,0,1-.22,1A.69.69,0,0,1,1129.31,108Z"/><path d="M1111.91,107.31a.76.76,0,0,1-.43-.14.74.74,0,0,1-.19-1,3.89,3.89,0,0,1,5.08-1.07.75.75,0,1,1-.65,1.35,2.39,2.39,0,0,0-3.19.56A.76.76,0,0,1,1111.91,107.31Z"/><path d="M1126.32,116.35a.75.75,0,0,1-.75-.76l.07-3.91-1.73-1.93a.75.75,0,1,1,1.11-1l1.94,2.15a.78.78,0,0,1,.19.51l-.08,4.2A.75.75,0,0,1,1126.32,116.35Z"/><path d="M1113.92,116.71a.76.76,0,0,1-.75-.78l.14-3.92-1.51-2a.74.74,0,0,1,.13-1,.75.75,0,0,1,1.06.13l1.68,2.16a.8.8,0,0,1,.16.49l-.16,4.2A.75.75,0,0,1,1113.92,116.71Z"/><path d="M1141.35,117.63s-6.93-3.09-10-8a18.13,18.13,0,0,1-2.66-9.87,15.5,15.5,0,0,1-10,2.81,9.91,9.91,0,0,1-9.14-10.89c.37-2.37,4.67-1.85,4.67-1.85a13.6,13.6,0,0,1,11.55-5.64c7.64.37,9.93,4.65,9.93,4.65s6-.6,10.86,2.31,5.4,9.75,5.4,9.75,3.75,1.59,4.15,5.19-2.59,10.74-2.59,10.74S1147.71,109.66,1141.35,117.63Z"/><path class="cls-14" d="M1153.58,122.29c0,5.45-2.72,9.87-6.07,9.87s-6.07-4.42-6.07-9.87,2.71-9.87,6.07-9.87S1153.58,116.84,1153.58,122.29Z"/><path class="cls-8" d="M1156.19,122.29c0,5.45-2.72,9.87-6.07,9.87s-6.07-4.42-6.07-9.87,2.72-9.87,6.07-9.87S1156.19,116.84,1156.19,122.29Z"/><path class="cls-8" d="M1138.26,88.78s5.29-.71,8.34,2.33,7,25.68,7,25.68h-6S1145.24,94.91,1138.26,88.78Z"/><path class="cls-5" d="M1111.91,225.93s.28-.28,0-1.4-9.8-10.94-15.4-12.62-11.22-2-11.5,0,7.57,8.41,7.57,8.41-8.56,1.56-10.37,3.09-7,2.52-9.26,2.52-12.61-3.65-16.54-3.08-2.52,4.76-2.52,4.76-7.57-.28-3.65,4.77,40.38,19.07,61.67,14.58C1126.07,244,1111.91,225.93,1111.91,225.93Z"/><path class="cls-21" d="M1109.05,218.64v39.82s74.1,9.53,89.8-21-14.89-77.68-31.14-81.88-17.59,60.85-17.59,60.85Z"/><path class="cls-8" d="M1083.51,208.39a.52.52,0,0,1-.17,0,.78.78,0,0,1-.59-.94l4-17.11c-.67-1.29-3-6.63.1-14.31,3.43-8.57,13.11-14.18,13.52-14.41a.78.78,0,0,1,1.07.29.77.77,0,0,1-.29,1.07c-.09.06-9.62,5.58-12.84,13.63s-.09,13.15-.06,13.2a.82.82,0,0,1,.1.59l-4,17.41A.78.78,0,0,1,1083.51,208.39Z"/><path class="cls-8" d="M1125.24,218.54a.79.79,0,0,1-.78-.7.78.78,0,0,1,.69-.86l29.06-3.33a.79.79,0,0,1,.18,1.56l-29.06,3.33Z"/><path class="cls-8" d="M1148.76,215.22a.79.79,0,0,1-.52-1.38c1.74-1.52,10.61-9,14.14-8a2.09,2.09,0,0,1,1.46,1.55,2.81,2.81,0,0,1-.39,2.32c-2.38,3.64-13.34,5.31-14.58,5.49Zm12.78-7.92c-1.94,0-6.37,2.94-10,5.84,3.87-.79,9.3-2.29,10.6-4.28a1.19,1.19,0,0,0,.2-1,.56.56,0,0,0-.4-.47A1.6,1.6,0,0,0,1161.54,207.3Z"/><path class="cls-8" d="M1130.07,155.8a16,16,0,0,1-10.21-3.59.79.79,0,0,1,0-1.11.78.78,0,0,1,1.1,0c.39.36,9.48,8.53,22.62-2.59a.78.78,0,0,1,1.1.09.79.79,0,0,1-.09,1.11C1139,154.36,1134.06,155.8,1130.07,155.8Z"/><path d="M1059.27,229.11a15.14,15.14,0,0,1-5.68-.81.74.74,0,0,1-.39-1,.75.75,0,0,1,1-.39c.11,0,5.77,2.29,18.55-1.71a.75.75,0,0,1,.45,1.44A47.3,47.3,0,0,1,1059.27,229.11Z"/><path class="cls-8" d="M1051.25,177.93a2.09,2.09,0,0,1-1.58-.72c-2.45-2.7-.69-13.55-.48-14.78a.78.78,0,0,1,1.51-.14c.72,1.93,4.22,11.73,2.33,14.67a2,2,0,0,1-1.61,1Zm-1-12c-.46,4.12-.59,9,.55,10.2a.54.54,0,0,0,.48.21.46.46,0,0,0,.4-.25C1052.6,174.73,1051.53,170,1050.28,166Z"/><rect class="cls-6" x="944.67" y="206.49" width="33.66" height="44.01"/><path class="cls-8" d="M978.33,206.49c0,1.07-7.53,1.93-16.83,1.93s-16.83-.86-16.83-1.93,7.54-1.94,16.83-1.94S978.33,205.42,978.33,206.49Z"/><path class="cls-6" d="M978.34,247.09c-6.94,0-12.59-7.29-12.59-16.25s5.65-16.26,12.59-16.26,12.58,7.29,12.58,16.26S985.27,247.09,978.34,247.09Zm0-29.53c-5.3,0-9.61,5.95-9.61,13.28s4.31,13.27,9.61,13.27,9.6-6,9.6-13.27S983.63,217.56,978.34,217.56Z"/><path class="cls-19" d="M1018.07,246.7a1.52,1.52,0,0,1-.42-.06,1.57,1.57,0,0,1-1.1-1.93l14.66-52.54a1.56,1.56,0,0,1,.54-.81L1063.67,166a1.58,1.58,0,0,1,2.21.26,1.56,1.56,0,0,1-.25,2.2L1034.1,193.5l-14.52,52.05A1.57,1.57,0,0,1,1018.07,246.7Z"/><path class="cls-8" d="M1022.57,236.74a12.5,12.5,0,0,1-4.82-1,.78.78,0,0,1-.4-1,.77.77,0,0,1,1-.4c.26.11,6.42,2.76,8.54-1.47.33-.66,0-2.09-.66-3.6a7.61,7.61,0,0,1-3.76-.23c-1.7-.6-2.61-1.86-2.32-3.2s.93-2.26,1.85-2.48c1.47-.34,2.89,1,3.84,2.24a14.84,14.84,0,0,1,1.23,1.85,8.79,8.79,0,0,0,4.92-4.53c4.91-9.53,2-27.86,2-28a.76.76,0,0,1,.19-.65.82.82,0,0,1,.63-.26c.79,0,19.27.73,26.33-24.26a.77.77,0,0,1,1-.54.79.79,0,0,1,.54,1c-6.49,23-22.86,25.19-27,25.38.54,3.9,2.26,19.26-2.3,28.12a10.33,10.33,0,0,1-5.62,5.22c.74,1.71,1.12,3.52.52,4.71A6,6,0,0,1,1022.57,236.74Zm-.09-11.93c-.36.07-.61.55-.77,1.29s.63,1.15,1.32,1.39a5.73,5.73,0,0,0,2.46.25,11.89,11.89,0,0,0-.86-1.24C1023.7,225.32,1022.89,224.81,1022.48,224.81Z"/><path class="cls-10" d="M1037.83,192.59a5.11,5.11,0,1,1-5.11-5.1A5.1,5.1,0,0,1,1037.83,192.59Z"/><rect class="cls-11" x="1063.68" y="129.46" width="17.27" height="46.35" rx="6.41" transform="translate(214.55 -508.71) rotate(29.53)"/><rect class="cls-19" x="1061.63" y="128.3" width="17.27" height="46.35" rx="6.41" transform="translate(213.71 -507.86) rotate(29.53)"/><path class="cls-8" d="M1070.26,139.52a.81.81,0,0,1-.42-.12.79.79,0,0,1-.24-1.08l4.16-6.58a.79.79,0,0,1,1.33.84l-4.16,6.58A.8.8,0,0,1,1070.26,139.52Z"/><path class="cls-13" d="M1002.32,240.22h31.49a5.72,5.72,0,0,1,5.72,5.72v4a0,0,0,0,1,0,0H996.61a0,0,0,0,1,0,0v-4A5.72,5.72,0,0,1,1002.32,240.22Z"/><path class="cls-8" d="M1041.36,19.49c30.47,0,55.17,16.89,55.17,37.72,0,13.24-10,24.88-25.09,31.61l14.62,16.45-28.31-12a79,79,0,0,1-16.39,1.69c-30.47,0-55.17-16.89-55.17-37.72S1010.89,19.49,1041.36,19.49Z"/><path class="cls-14" d="M1073.16,48.94h-63.6a.95.95,0,0,1,0-1.89h63.6a.95.95,0,0,1,0,1.89Z"/><path class="cls-14" d="M1073.16,67.05h-63.6a.95.95,0,0,1,0-1.89h63.6a.95.95,0,0,1,0,1.89Z"/><path class="cls-8" d="M638,24.16c-30.47,0-55.17,16.89-55.17,37.72,0,13.25,10,24.89,25.09,31.62l-14.63,16.44,28.31-12A79.08,79.08,0,0,0,638,99.6c30.47,0,55.17-16.89,55.17-37.72S668.45,24.16,638,24.16Z"/><path class="cls-14" d="M606.18,53.62h63.59a.95.95,0,1,0,0-1.89H606.18a.95.95,0,1,0,0,1.89Z"/><path class="cls-14" d="M606.18,71.72h63.59a.95.95,0,1,0,0-1.89H606.18a.95.95,0,1,0,0,1.89Z"/><path class="cls-22" d="M829.88,21.58c-29,0-52.48,16.06-52.48,35.88,0,12.6,9.51,23.67,23.87,30.07l-13.91,15.64,26.93-11.44a74.9,74.9,0,0,0,15.59,1.61c29,0,52.48-16.06,52.48-35.88S858.87,21.58,829.88,21.58Z"/><path class="cls-8" d="M389.85,29c-29,0-52.48,16.06-52.48,35.88,0,12.6,9.5,23.67,23.87,30.07l-13.92,15.64,26.93-11.44a75.68,75.68,0,0,0,15.6,1.61c29,0,52.48-16.07,52.48-35.88S418.83,29,389.85,29Z"/><path class="cls-22" d="M192.54,10.93c-29,0-52.48,16.06-52.48,35.88,0,12.6,9.51,23.67,23.87,30.07L150,92.52,177,81.08a74.83,74.83,0,0,0,15.59,1.61c29,0,52.48-16.06,52.48-35.88S221.52,10.93,192.54,10.93Z"/><path class="cls-10" d="M1247.84,256.94a9,9,0,0,1-2.15,5.94,6.88,6.88,0,0,1-5.18,2.46H18.83c-4,0-7.33-3.75-7.33-8.4A9,9,0,0,1,13.65,251a6.88,6.88,0,0,1,5.18-2.46H1240.51C1244.55,248.55,1247.84,252.32,1247.84,256.94Z"/></svg>