<svg id="Layer_1" data-name="Layer 1" xmlns="http://www.w3.org/2000/svg" xmlns:xlink="http://www.w3.org/1999/xlink" viewBox="0 0 1110.82 1235.69"><defs><style>.cls-1{fill:url(#linear-gradient);}.cls-2{fill:none;}.cls-3{fill:url(#linear-gradient-2);}.cls-4{fill:url(#linear-gradient-3);}.cls-5{fill:url(#linear-gradient-4);}.cls-6{fill:url(#linear-gradient-5);}.cls-7{fill:url(#linear-gradient-6);}.cls-8{fill:url(#linear-gradient-7);}</style><linearGradient id="linear-gradient" x1="1106.13" y1="1416.49" x2="238.52" y2="773.65" gradientUnits="userSpaceOnUse"><stop offset="0" stop-color="#2a4feb"/><stop offset="1" stop-color="#1a224f"/></linearGradient><linearGradient id="linear-gradient-2" x1="169.54" y1="601.09" x2="1309.91" y2="152.39" gradientUnits="userSpaceOnUse"><stop offset="0" stop-color="#2a4feb"/><stop offset="0.3" stop-color="#243eb0"/><stop offset="0.59" stop-color="#1e2f7d"/><stop offset="0.81" stop-color="#1b265e"/><stop offset="0.93" stop-color="#1a2352"/></linearGradient><linearGradient id="linear-gradient-3" x1="1192.99" y1="596.75" x2="116.57" y2="600.84" gradientUnits="userSpaceOnUse"><stop offset="0" stop-color="#2a4feb"/><stop offset="0.01" stop-color="#294ce1"/><stop offset="0.07" stop-color="#2440b6"/><stop offset="0.14" stop-color="#213592"/><stop offset="0.2" stop-color="#1e2d76"/><stop offset="0.26" stop-color="#1c2862"/><stop offset="0.32" stop-color="#1a2456"/><stop offset="0.39" stop-color="#1a2352"/></linearGradient><linearGradient id="linear-gradient-4" x1="1190.99" y1="597.21" x2="114.57" y2="601.3" gradientUnits="userSpaceOnUse"><stop offset="0" stop-color="#2a4feb"/><stop offset="0.12" stop-color="#2746cb"/><stop offset="0.39" stop-color="#20338a"/><stop offset="0.59" stop-color="#1c2762"/><stop offset="0.69" stop-color="#1a2352"/><stop offset="0.7" stop-color="#1a2353"/></linearGradient><linearGradient id="linear-gradient-5" x1="1190.99" y1="597.66" x2="114.57" y2="601.75" gradientUnits="userSpaceOnUse"><stop offset="0" stop-color="#2a4feb"/><stop offset="0.16" stop-color="#2746cb"/><stop offset="0.53" stop-color="#20338a"/><stop offset="0.79" stop-color="#1c2762"/><stop offset="0.93" stop-color="#1a2352"/><stop offset="1" stop-color="#1a2353"/></linearGradient><linearGradient id="linear-gradient-6" x1="1190.99" y1="598.12" x2="114.57" y2="602.2" xlink:href="#linear-gradient-5"/><linearGradient id="linear-gradient-7" x1="1191" y1="598.57" x2="114.57" y2="602.65" gradientUnits="userSpaceOnUse"><stop offset="0" stop-color="#2a4feb"/><stop offset="0.16" stop-color="#2746cb"/><stop offset="0.53" stop-color="#20338a"/><stop offset="0.79" stop-color="#1c2762"/><stop offset="0.93" stop-color="#1a2352"/></linearGradient></defs><path class="cls-1" d="M1282.8,1378.06H792.72A620.67,620.67,0,0,1,206.85,961.41a311.42,311.42,0,0,1-2.32-38c0-163.46,127.84-297,289-306.27a329.49,329.49,0,0,0-31.45,141c0,113.22,56.9,213.14,143.66,272.73l-17.34,40.06-26.28,60.66s0,0,0,0l-.63,1.44a9.61,9.61,0,0,0-.58,3.36,10.2,10.2,0,0,0,10.23,10.17,9.48,9.48,0,0,0,2.57-.33l2.64-1.1,60.47-25.09L721.25,1085l.52-.21h0l5.7-2.39a.59.59,0,0,1,.32,0A310.72,310.72,0,0,0,770.3,1088c7.39.51,14.88.75,22.42.75H993.47a289.28,289.28,0,0,1,289.33,289.32Z" transform="translate(-171.99 -142.37)"/><line class="cls-2" x1="409.58" y1="1002.77" x2="406.94" y2="1003.87"/><path class="cls-3" d="M1282.05,142.37A289.32,289.32,0,0,1,992.72,431.7H792c-119.08,0-223.44,62.93-281.65,157.36-162.83.14-298.77,115.2-331,268.46A623.39,623.39,0,0,1,172,762.35c0-342.4,277.57-620,620-620Z" transform="translate(-171.99 -142.37)"/><line class="cls-2" x1="395.35" y1="989.23" x2="394.72" y2="990.67"/><line class="cls-2" x1="409.58" y1="1002.77" x2="406.94" y2="1003.87"/><rect class="cls-4" x="476.57" y="554.88" width="55.58" height="88.97" rx="27.79"/><rect class="cls-5" x="595.62" y="449.32" width="55.58" height="300.08" rx="27.79"/><rect class="cls-6" x="714.68" y="488.61" width="55.58" height="221.51" rx="27.79"/><rect class="cls-7" x="833.73" y="395.75" width="55.58" height="407.23" rx="27.79"/><rect class="cls-8" x="952.79" y="554.88" width="55.58" height="88.97" rx="27.79"/></svg>