<?xml version="1.0" encoding="utf-8"?>
<!-- Generator: Adobe Illustrator 24.3.0, SVG Export Plug-In . SVG Version: 6.00 Build 0)  -->
<svg version="1.1" id="Layer_1" xmlns="http://www.w3.org/2000/svg" xmlns:xlink="http://www.w3.org/1999/xlink" x="0px" y="0px"
	 viewBox="0 0 1500 1500" style="enable-background:new 0 0 1500 1500;" xml:space="preserve">
<style type="text/css">
	.st0{fill:url(#SVGID_1_);}
	.st1{fill:none;}
	.st2{fill:url(#SVGID_2_);}
	.st3{fill:url(#SVGID_3_);}
	.st4{fill:url(#SVGID_4_);}
	.st5{fill:url(#SVGID_5_);}
	.st6{fill:url(#SVGID_6_);}
	.st7{fill:url(#SVGID_7_);}
	.st8{display:none;}
	.st9{display:inline;fill:url(#SVGID_8_);}
	.st10{display:inline;fill:url(#SVGID_9_);}
	.st11{display:inline;fill:url(#SVGID_10_);}
	.st12{display:inline;fill:url(#SVGID_11_);}
	.st13{display:inline;fill:url(#SVGID_12_);}
	.st14{display:inline;fill:url(#SVGID_13_);}
	.st15{display:inline;fill:url(#SVGID_14_);}
	.st16{display:inline;fill:url(#SVGID_15_);}
	.st17{display:inline;fill:url(#SVGID_16_);}
	.st18{display:inline;fill:url(#SVGID_17_);}
</style>
<g>
	<linearGradient id="SVGID_1_" gradientUnits="userSpaceOnUse" x1="1106.1324" y1="1416.49" x2="238.5204" y2="773.6535">
		<stop  offset="0" style="stop-color:#5075EA"/>
		<stop  offset="1" style="stop-color:#073AAA"/>
	</linearGradient>
	<path class="st0" d="M1282.8,1378.1H792.7c-143.7,0-276-48.9-381.2-131c-29.2-22.8-56.3-48.1-81-75.7
		c-54.1-60.5-96.5-131.6-123.7-209.9c-1.5-12.5-2.3-25.1-2.3-38c0-163.5,127.8-297.1,289-306.3c-20.2,42.8-31.5,90.5-31.5,141
		c0,113.2,56.9,213.1,143.7,272.7l-17.3,40.1l-26.3,60.7c0,0,0,0,0,0.1l-0.6,1.4c-0.4,1-0.6,2.2-0.6,3.4c0,5.6,4.6,10.2,10.2,10.2
		c0.9,0,1.7-0.1,2.6-0.3l2.6-1.1l60.5-25.1l84.5-35.1l0.5-0.2l0,0l5.7-2.4c0.1,0,0.2-0.1,0.3,0c14.2,2.9,27.7,4.7,42.5,5.6
		c7.4,0.5,14.9,0.8,22.4,0.8h200.8c94.1,0,177.8,45,230.6,114.6C1260.9,1251.9,1282.8,1312.4,1282.8,1378.1z"/>
	<line class="st1" x1="581.6" y1="1145.1" x2="578.9" y2="1146.2"/>
	<linearGradient id="SVGID_2_" gradientUnits="userSpaceOnUse" x1="169.538" y1="601.0908" x2="1309.9126" y2="152.3921">
		<stop  offset="0" style="stop-color:#5075EA"/>
		<stop  offset="0.3207" style="stop-color:#325DCF"/>
		<stop  offset="0.7096" style="stop-color:#1343B4"/>
		<stop  offset="0.9271" style="stop-color:#073AAA"/>
	</linearGradient>
	<path class="st2" d="M1282.1,142.4c0,65.6-21.9,126.2-58.7,174.7c-8,10.5-16.7,20.5-26,29.9c-52.4,52.4-124.7,84.7-204.6,84.7H792
		c-119.1,0-223.4,62.9-281.7,157.4c-162.8,0.1-298.8,115.2-331.1,268.5c-4.8-31-7.3-62.8-7.3-95.2c0-342.4,277.6-620,620-620H1282.1
		z"/>
	<line class="st1" x1="567.3" y1="1131.6" x2="566.7" y2="1133"/>
	<line class="st1" x1="581.6" y1="1145.1" x2="578.9" y2="1146.2"/>
	<linearGradient id="SVGID_3_" gradientUnits="userSpaceOnUse" x1="1364.9805" y1="739.123" x2="288.555" y2="743.2081">
		<stop  offset="0" style="stop-color:#5075EA"/>
		<stop  offset="2.595708e-02" style="stop-color:#466DE2"/>
		<stop  offset="0.1156" style="stop-color:#2B57C9"/>
		<stop  offset="0.206" style="stop-color:#1747B8"/>
		<stop  offset="0.2966" style="stop-color:#0B3DAD"/>
		<stop  offset="0.388" style="stop-color:#073AAA"/>
		<stop  offset="0.8884" style="stop-color:#073AAA"/>
		<stop  offset="0.9249" style="stop-color:#073AAA"/>
	</linearGradient>
	<path class="st3" d="M676.3,786.2L676.3,786.2c-15.3,0-27.8-12.4-27.8-27.8V725c0-15.3,12.4-27.8,27.8-27.8h0
		c15.3,0,27.8,12.4,27.8,27.8v33.4C704.1,773.8,691.7,786.2,676.3,786.2z"/>
	<linearGradient id="SVGID_4_" gradientUnits="userSpaceOnUse" x1="1362.9785" y1="739.5825" x2="286.5529" y2="743.6675">
		<stop  offset="0" style="stop-color:#2A4FEB"/>
		<stop  offset="8.255304e-02" style="stop-color:#254CE2"/>
		<stop  offset="0.4859" style="stop-color:#0F3FB9"/>
		<stop  offset="0.6946" style="stop-color:#073AAA"/>
		<stop  offset="0.7" style="stop-color:#073AAA"/>
	</linearGradient>
	<path class="st4" d="M795.4,891.8L795.4,891.8c-15.3,0-27.8-12.4-27.8-27.8V619.5c0-15.3,12.4-27.8,27.8-27.8h0
		c15.3,0,27.8,12.4,27.8,27.8V864C823.2,879.3,810.7,891.8,795.4,891.8z"/>
	<linearGradient id="SVGID_5_" gradientUnits="userSpaceOnUse" x1="1362.9802" y1="740.0343" x2="286.5547" y2="744.1194">
		<stop  offset="0" style="stop-color:#2A4FEB"/>
		<stop  offset="0.1102" style="stop-color:#254CE2"/>
		<stop  offset="0.6485" style="stop-color:#0F3FB9"/>
		<stop  offset="0.9271" style="stop-color:#073AAA"/>
		<stop  offset="1" style="stop-color:#073AAA"/>
	</linearGradient>
	<path class="st5" d="M914.5,852.5L914.5,852.5c-15.3,0-27.8-12.4-27.8-27.8V658.8c0-15.3,12.4-27.8,27.8-27.8h0
		c15.3,0,27.8,12.4,27.8,27.8v165.9C942.2,840,929.8,852.5,914.5,852.5z"/>
	<linearGradient id="SVGID_6_" gradientUnits="userSpaceOnUse" x1="1362.9819" y1="740.4861" x2="286.5564" y2="744.5712">
		<stop  offset="0" style="stop-color:#2A4FEB"/>
		<stop  offset="0.1102" style="stop-color:#254CE2"/>
		<stop  offset="0.6485" style="stop-color:#0F3FB9"/>
		<stop  offset="0.9271" style="stop-color:#073AAA"/>
		<stop  offset="1" style="stop-color:#073AAA"/>
	</linearGradient>
	<path class="st6" d="M1033.5,945.4L1033.5,945.4c-15.3,0-27.8-12.4-27.8-27.8V565.9c0-15.3,12.4-27.8,27.8-27.8l0,0
		c15.3,0,27.8,12.4,27.8,27.8v351.7C1061.3,932.9,1048.9,945.4,1033.5,945.4z"/>
	<linearGradient id="SVGID_7_" gradientUnits="userSpaceOnUse" x1="1362.9836" y1="740.9379" x2="286.5581" y2="745.023">
		<stop  offset="0" style="stop-color:#2A4FEB"/>
		<stop  offset="0.1102" style="stop-color:#254CE2"/>
		<stop  offset="0.6485" style="stop-color:#0F3FB9"/>
		<stop  offset="0.9271" style="stop-color:#073AAA"/>
	</linearGradient>
	<path class="st7" d="M1152.6,786.2L1152.6,786.2c-15.3,0-27.8-12.4-27.8-27.8V725c0-15.3,12.4-27.8,27.8-27.8h0
		c15.3,0,27.8,12.4,27.8,27.8v33.4C1180.4,773.8,1167.9,786.2,1152.6,786.2z"/>
</g>
<g class="st8">
	<linearGradient id="SVGID_8_" gradientUnits="userSpaceOnUse" x1="1105.7565" y1="1416.49" x2="238.1444" y2="773.6535">
		<stop  offset="0" style="stop-color:#FFFFFF"/>
		<stop  offset="1" style="stop-color:#888888"/>
	</linearGradient>
	<path class="st9" d="M1282.4,1378.1H792.3c-143.7,0-276-48.9-381.2-131c-29.2-22.8-56.3-48.1-81-75.7
		c-54.1-60.5-96.5-131.6-123.7-209.9c-1.5-12.5-2.3-25.1-2.3-38c0-163.5,127.8-297.1,289-306.3c-20.2,42.8-31.5,90.5-31.5,141
		c0,113.2,56.9,213.1,143.7,272.7l-17.3,40.1l-26.3,60.7c0,0,0,0,0,0.1l-0.6,1.4c-0.4,1-0.6,2.2-0.6,3.4c0,5.6,4.6,10.2,10.2,10.2
		c0.9,0,1.7-0.1,2.6-0.3l2.6-1.1l60.5-25.1l84.5-35.1l0.5-0.2l0,0l5.7-2.4c0.1,0,0.2-0.1,0.3,0c14.2,2.9,27.7,4.7,42.5,5.6
		c7.4,0.5,14.9,0.8,22.4,0.8h200.8c94.1,0,177.8,45,230.6,114.6C1260.6,1251.9,1282.4,1312.4,1282.4,1378.1z"/>
	<linearGradient id="SVGID_9_" gradientUnits="userSpaceOnUse" x1="578.5519" y1="1145.689" x2="581.1923" y2="1145.689">
		<stop  offset="0" style="stop-color:#FFFFFF"/>
		<stop  offset="1" style="stop-color:#231F20"/>
	</linearGradient>
	<line class="st10" x1="581.2" y1="1145.1" x2="578.6" y2="1146.2"/>
	<linearGradient id="SVGID_10_" gradientUnits="userSpaceOnUse" x1="169.162" y1="601.0908" x2="1309.5366" y2="152.3921">
		<stop  offset="0" style="stop-color:#FFFFFF"/>
		<stop  offset="1" style="stop-color:#888888"/>
	</linearGradient>
	<path class="st11" d="M1281.7,142.4c0,65.6-21.9,126.2-58.7,174.7c-8,10.5-16.7,20.5-26,29.9c-52.4,52.4-124.7,84.7-204.6,84.7
		H791.6c-119.1,0-223.4,62.9-281.7,157.4c-162.8,0.1-298.8,115.2-331.1,268.5c-4.8-31-7.3-62.8-7.3-95.2c0-342.4,277.6-620,620-620
		H1281.7z"/>
	<linearGradient id="SVGID_11_" gradientUnits="userSpaceOnUse" x1="566.329" y1="1132.3207" x2="566.9585" y2="1132.3207">
		<stop  offset="0" style="stop-color:#FFFFFF"/>
		<stop  offset="1" style="stop-color:#231F20"/>
	</linearGradient>
	<line class="st12" x1="567" y1="1131.6" x2="566.3" y2="1133"/>
	<linearGradient id="SVGID_12_" gradientUnits="userSpaceOnUse" x1="578.5519" y1="1145.689" x2="581.1923" y2="1145.689">
		<stop  offset="0" style="stop-color:#FFFFFF"/>
		<stop  offset="1" style="stop-color:#231F20"/>
	</linearGradient>
	<line class="st13" x1="581.2" y1="1145.1" x2="578.6" y2="1146.2"/>
	<linearGradient id="SVGID_13_" gradientUnits="userSpaceOnUse" x1="1364.6045" y1="739.123" x2="288.179" y2="743.2081">
		<stop  offset="0" style="stop-color:#FFFFFF"/>
		<stop  offset="1" style="stop-color:#231F20"/>
	</linearGradient>
	<path class="st14" d="M676,786.2L676,786.2c-15.3,0-27.8-12.4-27.8-27.8V725c0-15.3,12.4-27.8,27.8-27.8l0,0
		c15.3,0,27.8,12.4,27.8,27.8v33.4C703.8,773.8,691.3,786.2,676,786.2z"/>
	<linearGradient id="SVGID_14_" gradientUnits="userSpaceOnUse" x1="1362.6024" y1="739.5825" x2="286.1769" y2="743.6675">
		<stop  offset="0" style="stop-color:#FFFFFF"/>
		<stop  offset="1" style="stop-color:#231F20"/>
	</linearGradient>
	<path class="st15" d="M795,891.8L795,891.8c-15.3,0-27.8-12.4-27.8-27.8V619.5c0-15.3,12.4-27.8,27.8-27.8l0,0
		c15.3,0,27.8,12.4,27.8,27.8V864C822.8,879.3,810.4,891.8,795,891.8z"/>
	<linearGradient id="SVGID_15_" gradientUnits="userSpaceOnUse" x1="1362.6041" y1="740.0343" x2="286.1786" y2="744.1194">
		<stop  offset="0" style="stop-color:#FFFFFF"/>
		<stop  offset="1" style="stop-color:#231F20"/>
	</linearGradient>
	<path class="st16" d="M914.1,852.5L914.1,852.5c-15.3,0-27.8-12.4-27.8-27.8V658.8c0-15.3,12.4-27.8,27.8-27.8l0,0
		c15.3,0,27.8,12.4,27.8,27.8v165.9C941.9,840,929.4,852.5,914.1,852.5z"/>
	<linearGradient id="SVGID_16_" gradientUnits="userSpaceOnUse" x1="1362.606" y1="740.4861" x2="286.1804" y2="744.5712">
		<stop  offset="0" style="stop-color:#FFFFFF"/>
		<stop  offset="1" style="stop-color:#231F20"/>
	</linearGradient>
	<path class="st17" d="M1033.1,945.4L1033.1,945.4c-15.3,0-27.8-12.4-27.8-27.8V565.9c0-15.3,12.4-27.8,27.8-27.8l0,0
		c15.3,0,27.8,12.4,27.8,27.8v351.7C1060.9,932.9,1048.5,945.4,1033.1,945.4z"/>
	<linearGradient id="SVGID_17_" gradientUnits="userSpaceOnUse" x1="1362.6077" y1="740.9379" x2="286.1821" y2="745.023">
		<stop  offset="0" style="stop-color:#FFFFFF"/>
		<stop  offset="1" style="stop-color:#231F20"/>
	</linearGradient>
	<path class="st18" d="M1152.2,786.2L1152.2,786.2c-15.3,0-27.8-12.4-27.8-27.8V725c0-15.3,12.4-27.8,27.8-27.8h0
		c15.3,0,27.8,12.4,27.8,27.8v33.4C1180,773.8,1167.5,786.2,1152.2,786.2z"/>
</g>
</svg>
