<svg id="Layer_1" data-name="Layer 1" xmlns="http://www.w3.org/2000/svg" xmlns:xlink="http://www.w3.org/1999/xlink" viewBox="0 0 1379.38 372.91"><defs><style>.cls-1,.cls-2{fill:#2250c1;}.cls-2{stroke:#2e47b7;stroke-miterlimit:10;stroke-width:9px;}.cls-3{fill:url(#linear-gradient);}.cls-4{fill:none;}.cls-5{fill:url(#linear-gradient-2);}.cls-6{fill:url(#linear-gradient-3);}.cls-7{fill:url(#linear-gradient-4);}.cls-8{fill:url(#linear-gradient-5);}.cls-9{fill:url(#linear-gradient-6);}.cls-10{fill:url(#linear-gradient-7);}</style><linearGradient id="linear-gradient" x1="333.6" y1="591.71" x2="71.77" y2="785.7" gradientTransform="matrix(1, 0, 0, -1, 0, 1502)" gradientUnits="userSpaceOnUse"><stop offset="0" stop-color="#5075ea"/><stop offset="1" stop-color="#073aaa"/></linearGradient><linearGradient id="linear-gradient-2" x1="50.96" y1="837.79" x2="395.11" y2="973.2" gradientTransform="matrix(1, 0, 0, -1, 0, 1502)" gradientUnits="userSpaceOnUse"><stop offset="0" stop-color="#5075ea"/><stop offset="0.32" stop-color="#325dcf"/><stop offset="0.71" stop-color="#1343b4"/><stop offset="0.93" stop-color="#073aaa"/></linearGradient><linearGradient id="linear-gradient-3" x1="411.72" y1="796.15" x2="86.88" y2="794.92" gradientTransform="matrix(1, 0, 0, -1, 0, 1502)" gradientUnits="userSpaceOnUse"><stop offset="0" stop-color="#5075ea"/><stop offset="0.03" stop-color="#466de2"/><stop offset="0.12" stop-color="#2b57c9"/><stop offset="0.21" stop-color="#1747b8"/><stop offset="0.3" stop-color="#0b3dad"/><stop offset="0.39" stop-color="#073aaa"/><stop offset="0.89" stop-color="#073aaa"/><stop offset="0.92" stop-color="#073aaa"/></linearGradient><linearGradient id="linear-gradient-4" x1="411.12" y1="796" x2="86.27" y2="794.76" gradientTransform="matrix(1, 0, 0, -1, 0, 1502)" gradientUnits="userSpaceOnUse"><stop offset="0" stop-color="#2a4feb"/><stop offset="0.08" stop-color="#254ce2"/><stop offset="0.49" stop-color="#0f3fb9"/><stop offset="0.69" stop-color="#073aaa"/><stop offset="0.7" stop-color="#073aaa"/></linearGradient><linearGradient id="linear-gradient-5" x1="411.12" y1="795.86" x2="86.28" y2="794.63" gradientTransform="matrix(1, 0, 0, -1, 0, 1502)" gradientUnits="userSpaceOnUse"><stop offset="0" stop-color="#2a4feb"/><stop offset="0.11" stop-color="#254ce2"/><stop offset="0.65" stop-color="#0f3fb9"/><stop offset="0.93" stop-color="#073aaa"/><stop offset="1" stop-color="#073aaa"/></linearGradient><linearGradient id="linear-gradient-6" x1="411.12" y1="795.72" x2="86.28" y2="794.49" xlink:href="#linear-gradient-5"/><linearGradient id="linear-gradient-7" x1="411.12" y1="795.6" x2="86.28" y2="794.37" gradientTransform="matrix(1, 0, 0, -1, 0, 1502)" gradientUnits="userSpaceOnUse"><stop offset="0" stop-color="#2a4feb"/><stop offset="0.11" stop-color="#254ce2"/><stop offset="0.65" stop-color="#0f3fb9"/><stop offset="0.93" stop-color="#073aaa"/></linearGradient></defs><path class="cls-1" d="M512.54,536.6a57.08,57.08,0,0,1,20.81,26.25l-30,16.34q-6.13-8.66-9.49-11.31A22.43,22.43,0,0,0,479.72,563a22,22,0,0,0-8.8,1.82A52.34,52.34,0,0,1,487.4,543q10.07-7.82,15-9.63a59.1,59.1,0,0,0-23.19,10.75q-17.6,13.7-20,35.05-.56,5.17-.55,4.89V669a20.33,20.33,0,0,0,6.14,14.94,19.89,19.89,0,0,0,14.94,6.14,23.32,23.32,0,0,0,6.43-.84,64.49,64.49,0,0,1-14.25,16.34q-12.57,10.33-18.71,12.85a72.38,72.38,0,0,0,30.86-15.92,67.84,67.84,0,0,0,19.27-28.63l30,16.34a57.45,57.45,0,0,1-53.63,36.45A57.68,57.68,0,0,1,422.05,669V584.08a57.68,57.68,0,0,1,57.67-57.68A56.57,56.57,0,0,1,512.54,536.6Z" transform="translate(-51.67 -525.78)"/><path class="cls-1" d="M644.37,541.63a49.61,49.61,0,0,1,15.22,36.58V726.66H623V673H569.1l23.32,5.3v48.32H555.83V578.21a51.84,51.84,0,0,1,88.54-36.58ZM623,636.45V578.21q0-6.84-5.17-16.75a55.44,55.44,0,0,0-31.7-28.21q4.62,2.5,13.55,11.59a49.7,49.7,0,0,1,11.87,18.71,12.84,12.84,0,0,0-3.77-.56,14.82,14.82,0,0,0-10.89,4.47,14.65,14.65,0,0,0-4.47,10.75v58.24Z" transform="translate(-51.67 -525.78)"/><path class="cls-1" d="M786,565.23q-29.75,8.37-33.65,8.93-2.52-7.39-7.41-11a14.54,14.54,0,0,0-9.63-2.65,12.85,12.85,0,0,0-8.24,4.19,12.15,12.15,0,0,0-3.63,8.94q-.28,8.65,9.49,19.55,6,6.71,22.35,20,16.89,14.1,23.88,21.22,11.73,12.3,14.52,23,6.84,27.09-10.33,48.31Q767,725.83,741.84,726.66a59.23,59.23,0,0,1-10.75-.7q24.43-16.89,27.37-46.22-3.21,13.83-14.94,26.39-11.31,12.3-24.3,16.48-27.93-11.31-37.29-48.32L716.29,664q9.5,26.38,26.53,26a13.89,13.89,0,0,0,12-6.84,14.47,14.47,0,0,0,1.67-13.69q-2.79-7.53-18.43-20.8-25.41-21.23-33-30-17.45-20.25-17.45-41.33,0-21.79,15.36-36.45t36.87-14.39a31.83,31.83,0,0,1,4.05.28q-18.72,15.65-20.53,40.22,7.26-24.85,30.44-38.12Q775.92,536.32,786,565.23Z" transform="translate(-51.67 -525.78)"/><path class="cls-1" d="M915.15,526.4V563h-31.7V726.66H847V568.3L870.18,563H815.3V526.4Z" transform="translate(-51.67 -525.78)"/><path class="cls-1" d="M1028.82,543.58a55.73,55.73,0,0,1,16.62,40.5v20.11a57.68,57.68,0,0,1-57.68,57.67H974.08v64.8H937.49V526.4H976q10.47,6.15,19.69,19.14t11.17,25q-1.39-25.69-18.15-44.13A55.9,55.9,0,0,1,1028.82,543.58Zm-20,40.5a20.34,20.34,0,0,0-6.14-14.94,20.65,20.65,0,0,0-15-6.15H974.08v97.2l5.3-34.91h8.38a20.65,20.65,0,0,0,15-6.15,20.35,20.35,0,0,0,6.14-14.94Z" transform="translate(-51.67 -525.78)"/><path class="cls-1" d="M1102.27,683q-11.73-.42-21.64-10.47a51.59,51.59,0,0,1-12.85-22.21V526.4h36.59V683Zm4.47,43.71a39.09,39.09,0,0,1-39-39V655.3q3.21,14.25,10.89,23,10.9,12.3,29.33,11.87h57.67v36.45Z" transform="translate(-51.67 -525.78)"/><path class="cls-1" d="M1240,726.66a52.87,52.87,0,0,1-9.5-.84q22.77-16.2,25-44.82-2.94,12-13.69,24.43-10.47,12.15-21.92,17.18A51.16,51.16,0,0,1,1197,703.9a50.49,50.49,0,0,1-8.94-29V526.4h36.59V674.85a14.6,14.6,0,0,0,4.47,10.75,15.33,15.33,0,0,0,21.64,0,14.64,14.64,0,0,0,4.47-10.75V526.4h36.59V674.85A52,52,0,0,1,1240,726.66Z" transform="translate(-51.67 -525.78)"/><path class="cls-1" d="M1418.16,565.23q-29.75,8.37-33.66,8.93-2.51-7.39-7.4-11a14.54,14.54,0,0,0-9.63-2.65,12.85,12.85,0,0,0-8.24,4.19,12.15,12.15,0,0,0-3.63,8.94q-.28,8.65,9.49,19.55,6,6.71,22.35,20,16.89,14.1,23.88,21.22,11.73,12.3,14.52,23,6.84,27.09-10.33,48.31-16.35,20.12-41.48,20.95a59.17,59.17,0,0,1-10.75-.7q24.43-16.89,27.37-46.22-3.21,13.83-14.94,26.39-11.31,12.3-24.3,16.48-27.93-11.31-37.29-48.32L1348.47,664q9.49,26.38,26.54,26a13.89,13.89,0,0,0,12-6.84,14.47,14.47,0,0,0,1.67-13.69q-2.79-7.53-18.43-20.8-25.42-21.23-33-30-17.46-20.25-17.45-41.33,0-21.79,15.36-36.45,15.21-14.67,36.87-14.39a31.56,31.56,0,0,1,4,.28q-18.7,15.65-20.52,40.22,7.26-24.85,30.44-38.12Q1408.11,536.32,1418.16,565.23Z" transform="translate(-51.67 -525.78)"/><line class="cls-2" x1="370.37" y1="226.37" x2="1376.11" y2="226.37"/><path class="cls-1" d="M478.83,785.23V806h-18v92.71H440.23V809l13.13-3H422.27V785.23Z" transform="translate(-51.67 -525.78)"/><path class="cls-1" d="M491.48,785.23h20.73v40.18l-13.21,3h32.9V785.23h20.73V898.66H531.9V852.15l13.21-3h-32.9v49.52H491.48Z" transform="translate(-51.67 -525.78)"/><path class="cls-1" d="M620.66,785.23V806H585.93v22.39h24.84v20.72H585.93v24.68h-1.19q-6.65-.24-12.26-5.85a28.55,28.55,0,0,1-7.27-12.5V807.3a22.12,22.12,0,0,1,22.06-22.07Zm0,92.71v20.72H587.27a22.14,22.14,0,0,1-22.06-22.07V858.24a28.55,28.55,0,0,0,6.4,13.37q6.4,7,17.41,6.33Z" transform="translate(-51.67 -525.78)"/><path class="cls-1" d="M725.23,795a31.58,31.58,0,0,1,9.41,22.94v11.39A32.67,32.67,0,0,1,702,862h-7.75v36.7H673.5V785.23h21.83a37.13,37.13,0,0,1,11.15,10.84q5.22,7.42,6.33,14.15a39.24,39.24,0,0,0-10.28-25A31.66,31.66,0,0,1,725.23,795ZM713.92,817.9a11.54,11.54,0,0,0-3.48-8.47A11.72,11.72,0,0,0,702,806h-7.75V861l3-19.78H702a11.72,11.72,0,0,0,8.47-3.48,11.52,11.52,0,0,0,3.48-8.46Z" transform="translate(-51.67 -525.78)"/><path class="cls-1" d="M797.45,793.85a28.1,28.1,0,0,1,8.62,20.73v54.73a29.39,29.39,0,0,1-58.77,0V814.58a29.37,29.37,0,0,1,50.15-20.73Zm-12.1,20.73a8.66,8.66,0,0,0-8.63-8.63,9.37,9.37,0,0,0-1.74.16,26.36,26.36,0,0,1,6.73-9.25,31.27,31.27,0,0,1,10.2-6.73q-8.46.72-15.9,7.83-7.9,7.51-8,16.62v54.73a8.31,8.31,0,0,0,2.53,6.09,8.41,8.41,0,0,0,6.17,2.54,8.82,8.82,0,0,0,1.66-.16,26.45,26.45,0,0,1-6.72,9.25,31.37,31.37,0,0,1-10.2,6.73q8.46-.72,15.9-7.84,7.9-7.5,8-16.61Z" transform="translate(-51.67 -525.78)"/><path class="cls-1" d="M850.53,785.23a29.43,29.43,0,0,1,29.34,29.35v54.73a29.31,29.31,0,0,1-28.32,29.35q7.61-8.94,7.6-21.67c0-1.16-.06-2.32-.16-3.48A33.34,33.34,0,0,1,852.58,891q-5.54,7.11-13,7.67H818.73V804.53l20.72-19.3Zm8.62,29.35a8.64,8.64,0,0,0-8.62-8.63h-8.07l-3-19.06v91.05h11.08a8.66,8.66,0,0,0,8.62-8.63Z" transform="translate(-51.67 -525.78)"/><path class="cls-1" d="M943.79,791a32.33,32.33,0,0,1,11.78,14.87l-17,9.26a34.89,34.89,0,0,0-5.38-6.41,12.73,12.73,0,0,0-8-2.77,12.56,12.56,0,0,0-5,1,29.68,29.68,0,0,1,9.34-12.34c3.79-2.95,6.62-4.77,8.46-5.46a33.57,33.57,0,0,0-13.13,6.09,28.31,28.31,0,0,0-11.31,19.86c-.21,2-.32,2.87-.32,2.77V866a11.55,11.55,0,0,0,3.48,8.47,11.33,11.33,0,0,0,8.47,3.48,13.14,13.14,0,0,0,3.64-.48,37,37,0,0,1-8.07,9.26q-7.12,5.85-10.6,7.27a41.1,41.1,0,0,0,17.48-9,38.54,38.54,0,0,0,10.92-16.22l17,9.25a32.51,32.51,0,0,1-30.37,20.65A32.67,32.67,0,0,1,892.53,866V817.9a32.67,32.67,0,0,1,32.67-32.67A32.05,32.05,0,0,1,943.79,791Z" transform="translate(-51.67 -525.78)"/><path class="cls-1" d="M1018.46,793.85a28.1,28.1,0,0,1,8.62,20.73v84.08h-20.72V868.29H975.82l13.21,3v27.37H968.31V814.58a29.37,29.37,0,0,1,50.15-20.73Zm-12.1,53.71v-33q0-3.89-2.93-9.5a31.56,31.56,0,0,0-18-16q2.61,1.42,7.68,6.57a28.2,28.2,0,0,1,6.72,10.6,7.3,7.3,0,0,0-2.14-.32,8.44,8.44,0,0,0-6.17,2.53,8.34,8.34,0,0,0-2.53,6.1v33Z" transform="translate(-51.67 -525.78)"/><path class="cls-1" d="M1098.67,807.22q-16.86,4.74-19.07,5.06a12.5,12.5,0,0,0-4.19-6.25,8.22,8.22,0,0,0-5.46-1.5,7.27,7.27,0,0,0-4.66,2.37,6.85,6.85,0,0,0-2.06,5.06q-.17,4.92,5.38,11.08a122.83,122.83,0,0,0,12.65,11.31q9.57,8,13.53,12,6.64,7,8.23,13.06,3.87,15.35-5.86,27.36-9.26,11.4-23.49,11.87a33.34,33.34,0,0,1-6.09-.4,34.62,34.62,0,0,0,15.5-26.18,32.86,32.86,0,0,1-8.46,14.95,32.49,32.49,0,0,1-13.76,9.34Q1045,890,1039.74,869l19.46-5.86q5.37,15,15,14.72A7.91,7.91,0,0,0,1081,874a8.2,8.2,0,0,0,1-7.75q-1.59-4.28-10.44-11.79-14.4-12-18.67-17Q1043,826,1043,814a27.35,27.35,0,0,1,8.7-20.64,28.41,28.41,0,0,1,20.88-8.15,16.69,16.69,0,0,1,2.3.16,31.52,31.52,0,0,0-11.63,22.78,35.66,35.66,0,0,1,17.24-21.6Q1093,790.84,1098.67,807.22Z" transform="translate(-51.67 -525.78)"/><path class="cls-1" d="M1171.84,785.23V806h-18v92.71h-20.65V809l13.14-3h-31.09V785.23Z" transform="translate(-51.67 -525.78)"/><path class="cls-1" d="M1274.83,793.85a28.14,28.14,0,0,1,8.62,20.73v84.08h-20.73V868.29h-30.53l13.21,3v27.37h-20.72V814.58a29.37,29.37,0,0,1,50.15-20.73Zm-12.11,53.71v-33q0-3.89-2.92-9.5a31.56,31.56,0,0,0-18-16q2.61,1.42,7.67,6.57a28.23,28.23,0,0,1,6.73,10.6,7.3,7.3,0,0,0-2.14-.32,8.44,8.44,0,0,0-6.17,2.53,8.31,8.31,0,0,0-2.53,6.1v33Z" transform="translate(-51.67 -525.78)"/><path class="cls-1" d="M1347.84,795a31.58,31.58,0,0,1,9.41,22.94v11.39A32.67,32.67,0,0,1,1324.58,862h-7.75v36.7H1296.1V785.23h21.84a37.13,37.13,0,0,1,11.15,10.84q5.22,7.42,6.33,14.15a39.2,39.2,0,0,0-10.29-25A31.68,31.68,0,0,1,1347.84,795Zm-11.31,22.94a11.51,11.51,0,0,0-3.49-8.47,11.68,11.68,0,0,0-8.46-3.48h-7.75V861l3-19.78h4.75a11.68,11.68,0,0,0,8.46-3.48,11.49,11.49,0,0,0,3.49-8.46Z" transform="translate(-51.67 -525.78)"/><path class="cls-1" d="M1421.64,795a31.58,31.58,0,0,1,9.41,22.94v11.39A32.67,32.67,0,0,1,1398.38,862h-7.75v36.7h-20.72V785.23h21.83a37.13,37.13,0,0,1,11.15,10.84q5.22,7.42,6.33,14.15a39.24,39.24,0,0,0-10.28-25A31.66,31.66,0,0,1,1421.64,795Zm-11.31,22.94a11.54,11.54,0,0,0-3.48-8.47,11.72,11.72,0,0,0-8.47-3.48h-7.75V861l3-19.78h4.74a11.72,11.72,0,0,0,8.47-3.48,11.52,11.52,0,0,0,3.48-8.46Z" transform="translate(-51.67 -525.78)"/><path class="cls-3" d="M386.92,898.69H239A187.3,187.3,0,0,1,62.21,773a94.45,94.45,0,0,1-.7-11.47,92.57,92.57,0,0,1,87.22-92.43,99.81,99.81,0,0,0,33.86,124.84L177.37,806l-7.94,18.32v0l-.18.43a2.8,2.8,0,0,0-.18,1,3.09,3.09,0,0,0,3.08,3.08,3.46,3.46,0,0,0,.78-.09l.78-.33L192,820.89l25.5-10.59.15-.06h0l1.72-.72s.06,0,.09,0a91.85,91.85,0,0,0,12.83,1.69c2.23.15,4.5.24,6.76.24h60.6a87.29,87.29,0,0,1,87.3,87.24Z" transform="translate(-51.67 -525.78)"/><line class="cls-4" x1="123.64" y1="302.59" x2="122.82" y2="302.93"/><path class="cls-5" d="M386.71,525.78A87,87,0,0,1,369,578.5a93.51,93.51,0,0,1-7.85,9,87,87,0,0,1-61.74,25.56h-60.6a99.71,99.71,0,0,0-85,47.5,102.24,102.24,0,0,0-99.92,81,187.4,187.4,0,0,1-2.21-28.72c0-103.33,83.78-187.11,187.11-187.11Z" transform="translate(-51.67 -525.78)"/><line class="cls-4" x1="119.32" y1="298.52" x2="119.14" y2="298.94"/><line class="cls-4" x1="123.64" y1="302.59" x2="122.82" y2="302.93"/><path class="cls-6" d="M203.89,720.07h0a8.39,8.39,0,0,1-8.39-8.39V701.6a8.39,8.39,0,0,1,8.39-8.39h0a8.39,8.39,0,0,1,8.39,8.39v10.08A8.37,8.37,0,0,1,203.89,720.07Z" transform="translate(-51.67 -525.78)"/><path class="cls-7" d="M239.83,751.94h0a8.4,8.4,0,0,1-8.39-8.39V669.76a8.39,8.39,0,0,1,8.39-8.39h0a8.39,8.39,0,0,1,8.39,8.39v73.79A8.41,8.41,0,0,1,239.83,751.94Z" transform="translate(-51.67 -525.78)"/><path class="cls-8" d="M275.78,740.08h0a8.39,8.39,0,0,1-8.39-8.39V681.62a8.39,8.39,0,0,1,8.39-8.39h0a8.39,8.39,0,0,1,8.39,8.39v50.07A8.44,8.44,0,0,1,275.78,740.08Z" transform="translate(-51.67 -525.78)"/><path class="cls-9" d="M311.69,768.11h0a8.39,8.39,0,0,1-8.39-8.39V653.59a8.39,8.39,0,0,1,8.39-8.39h0a8.39,8.39,0,0,1,8.39,8.39V759.72A8.39,8.39,0,0,1,311.69,768.11Z" transform="translate(-51.67 -525.78)"/><path class="cls-10" d="M347.63,720.07h0a8.39,8.39,0,0,1-8.39-8.39V701.6a8.39,8.39,0,0,1,8.39-8.39h0A8.39,8.39,0,0,1,356,701.6v10.08A8.39,8.39,0,0,1,347.63,720.07Z" transform="translate(-51.67 -525.78)"/></svg>