<svg xmlns="http://www.w3.org/2000/svg" viewBox="0 0 450.24 208.44"><defs><style>.cls-1{isolation:isolate;}.cls-2{fill:#dce6f2;}.cls-3{fill:#184867;}.cls-10,.cls-4{fill:#beccd5;}.cls-32,.cls-4{mix-blend-mode:multiply;}.cls-5{fill:#557fb6;}.cls-6{fill:#9cbce6;}.cls-7{fill:#79a0d4;}.cls-18,.cls-8{fill:#fec1b2;}.cls-9{fill:#fdfdfd;}.cls-11{fill:#fff;}.cls-12{fill:#ff9d00;}.cls-13,.cls-22,.cls-32{fill:none;}.cls-13,.cls-22{stroke:#fff;}.cls-13,.cls-18{stroke-linecap:round;stroke-linejoin:round;stroke-width:0.5px;}.cls-14{fill:#2e353d;}.cls-15{fill:#db9786;}.cls-16{fill:#c47755;}.cls-17{fill:#152035;}.cls-18{stroke:#b07474;}.cls-19{fill:#282c3b;}.cls-20{fill:#ff2842;}.cls-21{fill:#f17047;}.cls-22,.cls-32{stroke-miterlimit:10;}.cls-23{fill:#fbf9f8;}.cls-24{fill:#b6c8e1;}.cls-25{fill:#2e6182;}.cls-26{fill:#3527f2;}.cls-27{fill:#346e94;}.cls-28{fill:#5a4dff;}.cls-29{fill:#ffbcaa;}.cls-30{fill:#6e7f8a;}.cls-31{fill:#1b2c44;}.cls-32{stroke:#a3bbc3;stroke-width:0.75px;}.cls-33{fill:#fea088;}</style></defs><g class="cls-1"><g id="OBJECTS"><ellipse class="cls-2" cx="220.31" cy="189.66" rx="217.11" ry="18.77"/><polygon class="cls-3" points="272.64 188.05 271.11 188.06 255.9 133.42 258.99 133.41 272.64 188.05"/><polygon class="cls-3" points="181.19 188.47 179.65 188.48 190.33 133.71 193.42 133.69 181.19 188.47"/><polygon class="cls-4" points="260.67 140.12 258.99 133.41 255.9 133.42 257.76 140.14 260.67 140.12"/><polygon class="cls-4" points="191.92 140.43 193.42 133.69 190.33 133.71 189.02 140.44 191.92 140.43"/><polygon class="cls-3" points="151.82 185.23 155.18 185.23 159.96 156.07 149.17 156.07 151.82 185.23"/><polygon class="cls-3" points="101.58 175.58 104.94 175.58 109.72 146.42 98.93 146.42 101.58 175.58"/><path class="cls-5" d="M313.67,350.21c.18-1.31,2.93-26.73,0-37.18s-8.77-14.62-18-15-46.92-.91-46.92-.91-6.37,1.06-6.37,12.76,17,51.65,17,51.65l37.11,12.33,13.36-.57S312,362.37,313.67,350.21Z" transform="translate(-149.88 -212.36)"/><path class="cls-6" d="M309.36,370s6.75-39,1.38-57.56c-3.52-12.19-12.48-12.52-15-1.08-3.64,16.26,2.59,59.77,2.59,59.77Z" transform="translate(-149.88 -212.36)"/><polygon class="cls-3" points="82.99 194.93 86.36 194.93 91.13 165.77 80.34 165.77 82.99 194.93"/><polygon class="cls-3" points="32.75 185.27 36.12 185.27 40.89 156.11 30.1 156.11 32.75 185.27"/><path class="cls-7" d="M159.79,254.2s64.86-1.85,71.14.39,13,14.35,15.25,29.16,6.26,60.74,6.26,60.74l-51.56.26-35-37.23Z" transform="translate(-149.88 -212.36)"/><path class="cls-5" d="M177.55,275.72c-7.51-34.85-32.29-23.37-26.91,2.19s29.2,90.56,29.2,90.56L192,370.15S178.57,280.44,177.55,275.72Z" transform="translate(-149.88 -212.36)"/><polygon class="cls-7" points="149.99 161.61 93.31 167.39 78.41 138.04 150.94 131.97 149.99 161.61"/><path class="cls-5" d="M231.61,355.1l14.65-16.35s52.63-.42,53.88.42c.47.31.65,6.37.68,13.87C277.83,354.93,254.71,354.73,231.61,355.1Z" transform="translate(-149.88 -212.36)"/><polygon class="cls-6" points="154.11 158.48 90.46 163.63 87.7 139.08 154.11 134.69 154.11 158.48"/><path class="cls-3" d="M314.82,349c3.5,2.68-9.83,12.38-17.95,15.49s-3.93-6.34,1.36-12.35S312.63,347.31,314.82,349Z" transform="translate(-149.88 -212.36)"/><path class="cls-8" d="M313.06,375.21a16.27,16.27,0,0,1-6.13,2,5.12,5.12,0,0,0-.31-.91c-1.75-3.77-20.41-24.84-25.78-33.84l17.43-2.66c3.18,5.54,11.67,24.75,17,33.75A13,13,0,0,1,313.06,375.21Z" transform="translate(-149.88 -212.36)"/><path class="cls-9" d="M203.83,328.59s-1.89,8.93-3.81,8.81l54.81,8.48c17.94-5.95,20.72-15,20.72-15L293.73,360s4.69-2.69,9.78-5.45A109.52,109.52,0,0,1,314.82,349s-14-18.27-18.48-24.81-8.65-12.68-11.12-15.63-7.53-3.36-16.82,0-25.17,13-25.17,13S211.76,326.15,203.83,328.59Z" transform="translate(-149.88 -212.36)"/><path class="cls-10" d="M237.73,343.75l7.53,3.42a258.62,258.62,0,0,0,30.29-16.33L293.73,360s4.69-2.69,9.78-5.45c-2.9-5.82-8.31-14.62-14.1-23.84-7.12-11.34-7.73-14-11.39-12-3.31,1.78-14.45,9.66-22.3,14.26C246.6,338.3,240.68,343,237.73,343.75Z" transform="translate(-149.88 -212.36)"/><path class="cls-3" d="M278.16,361c-.89,3.13,8.58,1.87,13.71.48s8.65-4.42,6.82-6.87-9.67-6-14.3-3S278.16,361,278.16,361Z" transform="translate(-149.88 -212.36)"/><path class="cls-8" d="M296.76,395.83a72.58,72.58,0,0,0-4.44-14.24c-4.54-10.06-11.38-24.29-13.37-32.33s18.8,1.92,18.8,1.92,1.61,16.87,3,25.36a75.26,75.26,0,0,0,4.86,17.25C302.22,395.5,296.88,395.82,296.76,395.83Z" transform="translate(-149.88 -212.36)"/><path class="cls-9" d="M245.26,347.17l27.25-1.71,3.49-3.13,2.16,18.7,0,0c.2-.26,1.92-2.48,6.74-4.83,5.14-2.49,13.77-1.52,13.77-1.52s-3.42-18.09-5.34-24.61-2.71-12.61-9.66-13.21C279.33,316.46,245.26,347.17,245.26,347.17Z" transform="translate(-149.88 -212.36)"/><path class="cls-11" d="M318.8,403.36s6.29.09,6,4.23c-.13,2-.31,3.07-.31,3.07a33.25,33.25,0,0,1-15.48.3,51.1,51.1,0,0,1-14.29-5.53l-.16-3.21,10.08-.07Z" transform="translate(-149.88 -212.36)"/><path class="cls-12" d="M304.46,389.78s-6.8,1.19-9.5.54c0,0-.24,9.23-.36,11.9,0,0,1.62,1.46,9.75,4a53.49,53.49,0,0,0,8.78,2.11s3.28-4.84,5.67-5a49.36,49.36,0,0,1-8.24-5.14C307.69,396.1,304.46,389.78,304.46,389.78Z" transform="translate(-149.88 -212.36)"/><path class="cls-13" d="M315.89,401.28a4.82,4.82,0,0,0-2.62,2.28" transform="translate(-149.88 -212.36)"/><path class="cls-13" d="M312.88,399.39a4.78,4.78,0,0,0-2.62,2.28" transform="translate(-149.88 -212.36)"/><path class="cls-13" d="M310.61,397.81a4.83,4.83,0,0,0-2.89,1.93" transform="translate(-149.88 -212.36)"/><path class="cls-13" d="M308.31,395.66a4.82,4.82,0,0,0-3,1.73" transform="translate(-149.88 -212.36)"/><path class="cls-13" d="M306.67,392.87a4.8,4.8,0,0,0-3,1.69" transform="translate(-149.88 -212.36)"/><path class="cls-11" d="M333.6,376.9s5.53-3,7.32.76a29.54,29.54,0,0,1,1.23,2.84,33.38,33.38,0,0,1-13.39,7.77,51,51,0,0,1-15.18,2.1l-1.7-2.72,8.78-5Z" transform="translate(-149.88 -212.36)"/><path class="cls-12" d="M314.46,372s-5.36,4.34-8,5.08c0,0,4.27,8.19,5.46,10.59,0,0,2.13.48,10.47-1.24a53,53,0,0,0,8.7-2.41s.52-5.83,2.55-7.1a50.54,50.54,0,0,1-9.71-.5C320.35,375.94,314.46,372,314.46,372Z" transform="translate(-149.88 -212.36)"/><path class="cls-13" d="M330,376.49a4.83,4.83,0,0,0-1.19,3.26" transform="translate(-149.88 -212.36)"/><path class="cls-13" d="M326.49,376.3a4.81,4.81,0,0,0-1.19,3.26" transform="translate(-149.88 -212.36)"/><path class="cls-13" d="M323.74,376a4.76,4.76,0,0,0-1.59,3.09" transform="translate(-149.88 -212.36)"/><path class="cls-13" d="M320.68,375.25a4.86,4.86,0,0,0-1.79,3" transform="translate(-149.88 -212.36)"/><path class="cls-13" d="M317.9,373.61a4.75,4.75,0,0,0-1.83,2.95" transform="translate(-149.88 -212.36)"/><path class="cls-14" d="M195.77,222.31a17.67,17.67,0,0,0-1.84,10.25c.7,7.08,4.65,14,3.16,20.95-.58,2.7-2,5.4-1.32,8.08.82,3.43,4.71,5.29,8.23,5.31a13.84,13.84,0,0,0,13.51-17c-.94-3.94.09-7.33-1.9-10.86-1.49-2.63-6.35-5.6-6.14-8.68s2.73-5.16,3.37-8.11c1.23-5.64-6.73-7-10.57-5.63A12.4,12.4,0,0,0,195.77,222.31Z" transform="translate(-149.88 -212.36)"/><path class="cls-8" d="M226.94,243.89c-.76,4.1.33,10,1.87,11.46a11.22,11.22,0,0,0,4.4,2.19s8.15,14.16,1,18.58-11.88,3.54-21.79-2.83c-7.19-4.63-7.25-13.34-5.51-18.09.12-.33,6.74-2.84,7.21-4.1,1.4-3.72,2.11-11.33,2.11-11.33Z" transform="translate(-149.88 -212.36)"/><path class="cls-15" d="M217.69,250.66c-.64-.48-2.42-1.77-2.73-2.61a61.17,61.17,0,0,0,1.27-9.05l10.71,4.89a20.1,20.1,0,0,0,1.13,10.52C226,254.9,221.15,253.24,217.69,250.66Z" transform="translate(-149.88 -212.36)"/><path class="cls-8" d="M226.9,215.32c6.38,4.81,8.88,14.08,8.29,16.93-.8,3.86-.15,4.74-.33,8.18s-1.27,6.12-3.31,9.59-7.78,2.06-12-1.2-3.68-8.85-5.6-12.3-6.4-1.59-7.76-7.37S220.89,210.78,226.9,215.32Z" transform="translate(-149.88 -212.36)"/><path class="cls-14" d="M203,217.71a19.15,19.15,0,0,0,4.13.7c1,0,5.28-1.77,6.35-2.15,3.15-1.1,10.05-2.2,13.4-.94s5,2.17,6.75,4.57c3.16,4.33,1.14,7.11,1.14,7.11a22.54,22.54,0,0,1-1.39-2.29c-.82-1.53-3.55-1.6-3.55-1.6-1.94,2.13-5.21,1.18-6.84,2.4-1.79,1.34-2.13,3.14-3.44,4-1.7,1.12-2.18,4-2.32,5.59a14.12,14.12,0,0,1-1.95,6.56c-.37.71.73,7.61-3.65,4.46s-7.53-14.25-7.56-15.76c0-.68-2.37-1.72-4.53-2.54C199.24,224,199.73,220.05,203,217.71Z" transform="translate(-149.88 -212.36)"/><path class="cls-8" d="M214.61,232.27c-.74-.81-3.54-1.18-3.83,2.19-.24,2.81,1.09,3.54,2.9,6.12a2.53,2.53,0,0,0,3,1S216.21,234,214.61,232.27Z" transform="translate(-149.88 -212.36)"/><path class="cls-16" d="M214,233.84c-.76-1-1.64-.29-2,.68s.57,2.17.57,2.17-.56-1.72.16-2.2,2.55.75,2,2-1.47,1.38-.89,2,0,1.29.95,1.54.5-.24.51-1.7a4.49,4.49,0,0,0-.11-1.46A5.15,5.15,0,0,0,214,233.84Z" transform="translate(-149.88 -212.36)"/><path class="cls-17" d="M221.66,233.49a16.31,16.31,0,0,1,3.14-1.21c1.11-.19,1.85.09,2-.25s-.66-.69-1.88-.57A4.23,4.23,0,0,0,221.66,233.49Z" transform="translate(-149.88 -212.36)"/><path class="cls-18" d="M230.46,233.68a11.59,11.59,0,0,0,1.56,5c.79,1.52.81,1.84-.15,2.09a8,8,0,0,1-1.73.26" transform="translate(-149.88 -212.36)"/><path class="cls-17" d="M226.69,234.71a.62.62,0,1,1-1.18.31.69.69,0,0,1,.4-.89A.7.7,0,0,1,226.69,234.71Z" transform="translate(-149.88 -212.36)"/><path class="cls-17" d="M234.28,231a4.93,4.93,0,0,0-1.84.1c-.56.24-.79.78-1,.55s0-.88.61-1.22A1.71,1.71,0,0,1,234.28,231Z" transform="translate(-149.88 -212.36)"/><path class="cls-17" d="M234,233.55a.7.7,0,0,1-.4.89.71.71,0,0,1-.78-.58.62.62,0,1,1,1.18-.31Z" transform="translate(-149.88 -212.36)"/><path class="cls-19" d="M226.19,242.55a3.9,3.9,0,0,0,.72,1.48,2.9,2.9,0,0,0,2.56,1.13,1.84,1.84,0,0,0,.41,0,2.64,2.64,0,0,0,1.82-2.27A7.43,7.43,0,0,1,226.19,242.55Z" transform="translate(-149.88 -212.36)"/><path class="cls-11" d="M231.7,242.84s-.17.62-1.64.81-3.47-.35-3.87-1.1C226.19,242.55,229.23,243.75,231.7,242.84Z" transform="translate(-149.88 -212.36)"/><path class="cls-20" d="M226.91,244a2.9,2.9,0,0,0,2.56,1.13,1.84,1.84,0,0,0,.41,0,3.84,3.84,0,0,0-2.67-1.09Z" transform="translate(-149.88 -212.36)"/><path class="cls-12" d="M205.9,227.53a7,7,0,0,1-1.61-.84c-.84-.54-1.78.17-2-.43-.6-1.39,1.09-7,2.55-8,1.15-.8,1.35-.59,4.14-.24C208.93,218,204.29,223.15,205.9,227.53Z" transform="translate(-149.88 -212.36)"/><path class="cls-14" d="M229.85,223.11s-.28,2.64-5.24,5.31a45.87,45.87,0,0,1-10,3.85s-4.56-6.06-3.27-6.52,13.48-7.51,13.48-7.51Z" transform="translate(-149.88 -212.36)"/><path class="cls-8" d="M247.41,269.84c2.85,2.22,9.77,10.42,12.4,13.13s8.4,7.59,8.4,7.59,8.18-2.09,12.57-3,17.51-5.9,17.51-5.9,3.35,4.69,2.07,5.28c-9.12,4.19-19,9.37-24.87,12-7.62,3.36-10.73,3.63-11.51,3.24-2-1-27.45-20.82-27.45-20.82Z" transform="translate(-149.88 -212.36)"/><path class="cls-12" d="M237.14,258.94c3.74,1.07,12.07,11.8,12.07,11.8S239.93,282,237.3,288.38s-6.74,2.2-6.74,2.2l-4.79-9.81Z" transform="translate(-149.88 -212.36)"/><path class="cls-21" d="M238.93,283.88c-2.66-3.91-5.32-7.79-8.23-11.5l6-10.1A43.65,43.65,0,0,0,246.59,274a112.24,112.24,0,0,0-7.26,10.42C239.19,284.27,239.06,284.08,238.93,283.88Z" transform="translate(-149.88 -212.36)"/><path class="cls-12" d="M199,279.07c.48,4.09,1.08,8.22,1.78,11.91.43,2.23.88,4.3,1.38,6.11,3.6,13.24,8.81,35.48,8.81,35.48s15.45,5,21.32-1.23c7.61-8.11,13.91-10.49,16.55-13,0,0-6.12-15.25-4.17-28,1-6.38,2.2-10.58-1.87-15.88-4.77-6.2-5.64-15.47-5.64-15.47l-3.92-1.4c.09,6.52.2,11.14-8.07,11.33S209,262.53,206.88,255.2c0,0-8.19,3.44-9.84,5.9C196.37,262.1,197.65,267.6,199,279.07Z" transform="translate(-149.88 -212.36)"/><path class="cls-21" d="M202.13,297.09c.17.65.36,1.34.54,2,5.87-8.22,5.15-22.6-1.26-30a12,12,0,0,0-4.18-3.21c.39,2.94,1.06,7.25,1.74,13.16.48,4.09,1.08,8.22,1.78,11.91C201.18,293.21,201.63,295.28,202.13,297.09Z" transform="translate(-149.88 -212.36)"/><line class="cls-22" x1="61.92" y1="17.52" x2="61.9" y2="13.19"/><line class="cls-22" x1="64.86" y1="13.61" x2="64.76" y2="18.22"/><path class="cls-23" d="M209.33,236.28c.45,2.73,4.29,5.63,4.29,5.63l1.68-.25c2.75-.41,4.52-3.48,4-6.86s-3.23-5.79-6-5.38l-1.68.25C210,230.86,208.91,233.74,209.33,236.28Z" transform="translate(-149.88 -212.36)"/><path class="cls-24" d="M207.65,236.53c.55,3.38,3.23,5.79,6,5.38s4.51-3.48,4-6.86-3.23-5.79-6-5.38S207.09,233.15,207.65,236.53Z" transform="translate(-149.88 -212.36)"/><path class="cls-23" d="M208,236.32c.47,2.9,2.77,5,5.13,4.62s3.87-3,3.4-5.89-2.78-5-5.13-4.62S207.56,233.41,208,236.32Z" transform="translate(-149.88 -212.36)"/><path class="cls-11" d="M208.14,236.35a3.06,3.06,0,0,0,3.19,2.79,2.94,2.94,0,0,0,2.15-3.58,3.06,3.06,0,0,0-3.19-2.79A2.94,2.94,0,0,0,208.14,236.35Z" transform="translate(-149.88 -212.36)"/><path class="cls-24" d="M226.34,215.3s-6.08-.7-8.42,3.24a16,16,0,0,0-2.13,7.63l-4.57-.43-.77-.35s1.57-4.36,2.68-6.64a7.23,7.23,0,0,1,5.51-4.25s6-.33,7.89.15Z" transform="translate(-149.88 -212.36)"/><path class="cls-23" d="M226.53,214.65a11,11,0,0,0-3.62.13c-2.09.41-4.32,1.28-5.5,3.27a19.25,19.25,0,0,0-2.47,7.65l-4.49-.31a31.28,31.28,0,0,1,1.78-6.89,8.79,8.79,0,0,1,6.22-4.58S225.31,213.61,226.53,214.65Z" transform="translate(-149.88 -212.36)"/><path class="cls-8" d="M294.64,283.27l2.66-1.42s4.05-4.67,5.6-5.15,7.42-2.45,8-2.69.15,2-1,2.63a27.69,27.69,0,0,0-2.86,1.94,43.74,43.74,0,0,0,5-.51c.55-.24,2.9-2.12,3.79-2.74s2.77-1.77,2.71-1.14a41.53,41.53,0,0,1-2.31,6.35c-.52.84-3.93,3.24-5.08,3.87s-5.29,1.17-6.39,1.66-11.62,3.12-11.62,3.12Z" transform="translate(-149.88 -212.36)"/><path class="cls-5" d="M245.8,356.11c1.18-13.65,2.59-29.19.23-36.48-3.33-10.32-8.55-12.56-17.74-13s-40.7-.29-40.7-.29-10.77,3.78-10.77,15.47S192,370.15,192,370.15l38,10.17,13.37-.57S245.35,361.37,245.8,356.11Z" transform="translate(-149.88 -212.36)"/><path class="cls-6" d="M241.49,376s5.21-42.65,1.84-54.89-12.48-12.53-15.05-1.08c-3.64,16.25,5.55,55.58,5.55,55.58Z" transform="translate(-149.88 -212.36)"/><path class="cls-8" d="M184.65,308.84c.07-4.18,2.67-25.16,6.13-33.84l12.91,6.53s-7.77,21.59-7.36,23.53,4.48,5.21,10.82,13.19c4.85,6.1,7.15,7.87,9.17,9.37,1.23.91,3.09,1.14,4.67,1.46a8.56,8.56,0,0,1,3.62,1.8c.94.86,1.46,1.24,1.62,1.72s.2.73-.44.83a3.82,3.82,0,0,1-2.35-.72,4.64,4.64,0,0,0-2-.72c-1.09,0,1.59,1.34,2.05,1.79a30.93,30.93,0,0,0,4.21,2.71c1.55.85,2.42.8,3,1.85s-1.38.94-2,.56-2.37-.95-3.73-1.68a10.78,10.78,0,0,0-1.61-.7,14.48,14.48,0,0,0,2.38,1.8c1.93,1.15,3.16,2.1,3.73,2.34,1.36.56,1.78,1.54,1.25,1.88s-.54.34-3.73-1.19l-2.87-1.4-2.46-1.22s1.38,1,2.3,1.67c2.08,1.57,2.63,1.91,3,2.21.72.58,1.28,1.21.72,1.61s-1.34.16-2.31-.51c-.76-.54-1.51-1-3.62-2.17-1.19-.68-1.89-1-1.89-1a6.65,6.65,0,0,0,1.43,1.17,17.71,17.71,0,0,0,2,1.27c.84.47,1.3.78.93,1.36s-1.16.12-1.78-.14a35.78,35.78,0,0,1-6-3.53,13.34,13.34,0,0,1-3.5-3.93c-.19-.34-2.07-3.88-3.34-5C199.34,323.08,184.6,312,184.65,308.84Z" transform="translate(-149.88 -212.36)"/><path class="cls-15" d="M189.86,282.82c-.51-.39-1-.78-1.56-1.16.79-2.26,1.63-4.52,2.48-6.66l12.91,6.53s-1.44,4.54-2.62,8.85A80.3,80.3,0,0,0,189.86,282.82Z" transform="translate(-149.88 -212.36)"/><path class="cls-12" d="M202.63,288.19c-.38-3.44-8.44-6.45-14.65-8.89.23-1.06,4.64-14.48,9.06-18.2,0,0,10.31,15.73,9.13,18.39A65.67,65.67,0,0,0,202.63,288.19Z" transform="translate(-149.88 -212.36)"/><polygon class="cls-3" points="298.42 185.23 295.06 185.23 290.28 156.07 301.07 156.07 298.42 185.23"/><polygon class="cls-3" points="348.66 175.58 345.3 175.58 340.52 146.42 351.31 146.42 348.66 175.58"/><path class="cls-5" d="M436.33,350.21c-.18-1.31-2.93-26.73,0-37.18s8.77-14.62,18-15,46.92-.91,46.92-.91,6.37,1.06,6.37,12.76-17,51.65-17,51.65L453.5,373.82l-13.36-.57S438,362.37,436.33,350.21Z" transform="translate(-149.88 -212.36)"/><path class="cls-6" d="M440.64,370s-6.75-39-1.38-57.56c3.52-12.19,12.48-12.52,15-1.08,3.64,16.26-2.59,59.77-2.59,59.77Z" transform="translate(-149.88 -212.36)"/><polygon class="cls-3" points="367.25 194.93 363.89 194.93 359.11 165.77 369.9 165.77 367.25 194.93"/><polygon class="cls-3" points="417.49 185.27 414.12 185.27 409.35 156.11 420.14 156.11 417.49 185.27"/><path class="cls-7" d="M590.21,254.2s-64.86-1.85-71.14.39-13,14.35-15.25,29.16-6.26,60.74-6.26,60.74l51.56.26,35-37.23Z" transform="translate(-149.88 -212.36)"/><path class="cls-5" d="M572.45,275.72c7.51-34.85,32.3-23.37,26.91,2.19s-29.2,90.56-29.2,90.56L558,370.15S571.43,280.44,572.45,275.72Z" transform="translate(-149.88 -212.36)"/><polygon class="cls-7" points="300.25 161.61 356.93 167.39 371.83 138.04 299.3 131.97 300.25 161.61"/><path class="cls-5" d="M518.39,355.1l-14.65-16.35s-52.63-.42-53.88.42c-.47.31-.65,6.37-.68,13.87C472.17,354.93,495.29,354.73,518.39,355.1Z" transform="translate(-149.88 -212.36)"/><polygon class="cls-6" points="296.13 158.48 359.78 163.63 362.54 139.08 296.13 134.69 296.13 158.48"/><path class="cls-3" d="M458.88,383.63c.74,2.6-7,1.54-11.19.38s-7.07-3.67-5.58-5.69,7.89-5,11.67-2.47S458.88,383.63,458.88,383.63Z" transform="translate(-149.88 -212.36)"/><path class="cls-8" d="M453.47,393a72.55,72.55,0,0,1,3.65-14.47c4-10.29,11.31-18.68,12.85-26.82s-18.66,3-18.66,3-2,10.74-2.85,19.29a75.87,75.87,0,0,1-3.89,17.49C448,393,453.35,393,453.47,393Z" transform="translate(-149.88 -212.36)"/><path class="cls-25" d="M518.07,347.51l-35.53-4.07L474,342.33s-15.14,41.06-15.16,41.05c-.2-.27-1.72-1.15-6.54-3.49a15.93,15.93,0,0,0-10.48-.91s10-44.24,11.94-50.76,5.85-13.45,12.75-12.43c3.27.49,27.44,3.78,34.19,5.86C514.35,325.85,518.07,347.51,518.07,347.51Z" transform="translate(-149.88 -212.36)"/><path class="cls-11" d="M431.88,401.73s-6.26.43-5.78,4.55c.24,2,.47,3.05.47,3.05a33.33,33.33,0,0,0,15.48-.56,51,51,0,0,0,14-6.32l0-3.21-10.07.49Z" transform="translate(-149.88 -212.36)"/><path class="cls-26" d="M445.45,387.37s6.86.81,9.52,0c0,0,.75,9.2,1,11.86,0,0-1.54,1.54-9.51,4.54a53.32,53.32,0,0,1-8.65,2.6s-3.55-4.65-5.95-4.65a49.91,49.91,0,0,0,7.95-5.59C442.58,393.85,445.45,387.37,445.45,387.37Z" transform="translate(-149.88 -212.36)"/><path class="cls-13" d="M434.68,399.49a4.78,4.78,0,0,1,2.74,2.13" transform="translate(-149.88 -212.36)"/><path class="cls-13" d="M437.58,397.43a4.82,4.82,0,0,1,2.74,2.13" transform="translate(-149.88 -212.36)"/><path class="cls-13" d="M439.76,395.73a4.79,4.79,0,0,1,3,1.77" transform="translate(-149.88 -212.36)"/><path class="cls-13" d="M441.94,393.45A4.88,4.88,0,0,1,445,395" transform="translate(-149.88 -212.36)"/><path class="cls-13" d="M443.41,390.57a4.82,4.82,0,0,1,3.12,1.52" transform="translate(-149.88 -212.36)"/><path class="cls-3" d="M487.68,389.12c.74,2.59-7,1.53-11.19.37s-7.07-3.66-5.58-5.69,7.89-5,11.67-2.47S487.68,389.12,487.68,389.12Z" transform="translate(-149.88 -212.36)"/><path class="cls-8" d="M480.67,399.17a72.54,72.54,0,0,1,3.65-14.46c4-10.3,10-24.88,11.54-33s-18.66,3-18.66,3-.67,16.93-1.55,25.48a74.81,74.81,0,0,1-3.89,17.5C475.2,399.15,480.55,399.17,480.67,399.17Z" transform="translate(-149.88 -212.36)"/><path class="cls-27" d="M544,347.51l-35.53-4.07-8.54-1.11s-12.24,46.55-12.25,46.53c-.2-.27-1.72-1.14-6.54-3.49a16,16,0,0,0-10.48-.91s7.1-49.72,9-56.24,5.85-13.45,12.75-12.43c3.27.49,27.44,3.78,34.19,5.86C540.24,325.85,544,347.51,544,347.51Z" transform="translate(-149.88 -212.36)"/><path class="cls-11" d="M459.08,407.93s-6.26.43-5.78,4.55c.24,2,.47,3,.47,3a33.29,33.29,0,0,0,15.47-.56,50.93,50.93,0,0,0,14-6.32l0-3.21-10.07.48Z" transform="translate(-149.88 -212.36)"/><path class="cls-26" d="M472.65,393.57s6.85.8,9.52,0c0,0,.75,9.21,1,11.87,0,0-1.54,1.54-9.52,4.54a54.31,54.31,0,0,1-8.65,2.6s-3.54-4.65-5.94-4.65a49.65,49.65,0,0,0,7.95-5.6C469.78,400.05,472.65,393.57,472.65,393.57Z" transform="translate(-149.88 -212.36)"/><path class="cls-13" d="M461.88,405.68a4.82,4.82,0,0,1,2.74,2.13" transform="translate(-149.88 -212.36)"/><path class="cls-13" d="M464.78,403.63a4.82,4.82,0,0,1,2.74,2.13" transform="translate(-149.88 -212.36)"/><path class="cls-13" d="M467,401.92a4.84,4.84,0,0,1,3,1.77" transform="translate(-149.88 -212.36)"/><path class="cls-13" d="M469.13,399.65a4.83,4.83,0,0,1,3.11,1.56" transform="translate(-149.88 -212.36)"/><path class="cls-13" d="M470.61,396.77a4.82,4.82,0,0,1,3.12,1.52" transform="translate(-149.88 -212.36)"/><path class="cls-8" d="M530.52,237.72c.76,4.1-2,12-3.52,13.47a11.22,11.22,0,0,1-4.4,2.19s-8.15,14.16-1,18.58,11.88,3.55,21.79-2.83c7.19-4.63,7.25-13.33,5.51-18.08-.13-.34-5.2-2.93-5.67-4.19-1.4-3.72-1.53-11.84-1.53-11.84Z" transform="translate(-149.88 -212.36)"/><path class="cls-8" d="M467.17,297.08l-2.68,1.37s-4.14,4.6-5.7,5.05-7.46,2.32-8.05,2.54-.11-2,1.05-2.6a29.42,29.42,0,0,0,2.9-1.9,43.94,43.94,0,0,0-5.05.42c-.56.24-2.94,2.07-3.84,2.67s-2.8,1.72-2.73,1.09a41.37,41.37,0,0,1,2.42-6.3c.54-.83,4-3.17,5.15-3.78s5.32-1.07,6.43-1.54,11.67-2.91,11.67-2.91Z" transform="translate(-149.88 -212.36)"/><path class="cls-26" d="M520.54,252.14l-7.86.46c-3.49,5.22-18.32,24.23-21.27,27.71-1.37,1.61-28.75,12.12-28.75,12.12l2.56,6.83s23.23-.65,35.23-6.74c3.37-1.71,20.55-14.31,23-21.68S520.54,252.14,520.54,252.14Z" transform="translate(-149.88 -212.36)"/><path class="cls-11" d="M524.33,246.6s-1.64,6.83,6,8.23c9.26,1.7,12.9-8,12.9-8l8.65,4.43L539.48,268.8,519,268.16l-1-18.85Z" transform="translate(-149.88 -212.36)"/><path class="cls-28" d="M507.45,295.18c2.07-9.86,5.23-42.58,5.23-42.58l9.45-3.75s-1.19,9.33,7.57,10.46c12.84,1.64,16.6-10.86,16.6-10.86L560.18,253s.08,30.35.37,40.86-7.14,33.68-7.14,33.68c-22.92,1.63-47.53-6.51-51.25-10.57C502.16,317,506.36,300.32,507.45,295.18Z" transform="translate(-149.88 -212.36)"/><path class="cls-29" d="M526.49,218.49c-1.67.73-4.6,2.36-5,3.85a64.48,64.48,0,0,0-1.83,8.47c-.21,2.63-1.19,9.35-1.25,12.45s.21,4.23.85,4.89,8.51,1.67,10.14,1.16,9.09-3.33,9.83-9.86c0,0,2.64,1.81,5.86-3.65.85-1.43-3.29-8.09-3.63-10-.82-4.58-9.77-4.82-12.09-5.53S526.49,218.49,526.49,218.49Z" transform="translate(-149.88 -212.36)"/><path class="cls-14" d="M521.54,222.34s1.2-1.91,2.78-.76a19.06,19.06,0,0,0,8,2.53,19.86,19.86,0,0,0,5.74-.5s-.65,4-.07,5.2,2.1,2.78,2,4.1a17.81,17.81,0,0,1-.42,2.59s2.1-2,3.43-1.33,1,3-.63,3.9a24,24,0,0,1-3.11,1.38l-4.72,8.42s8.24-8.84,10.71-12.26c3.48-4.82,5.07-10.83,2.47-12.65a8.05,8.05,0,0,0-5.56-8.79c-6.62-2.3-19.6-.48-21.4,2.61C519.33,219.27,521.54,222.34,521.54,222.34Z" transform="translate(-149.88 -212.36)"/><path class="cls-14" d="M519.92,239.54a8.36,8.36,0,0,1,4.57.47c2.39.78,4.27,2.34,5.82,3s5.48-1.4,6.91-4.72,2.51-6.58,2.51-6.58l1,1.38s-1.78,6.15-2.49,9.81a11.48,11.48,0,0,1-8,8.69c-4.57,1.48-10.58-.5-11.57-1.88s-1-3.92-.72-6.12a24,24,0,0,1,.53-3.2A2.59,2.59,0,0,1,519.92,239.54Z" transform="translate(-149.88 -212.36)"/><path class="cls-14" d="M526.52,227.91a5,5,0,0,1,3.76,1.77c.51.59.18,1.1-.37.55a6.17,6.17,0,0,0-3.54-1.55C525.62,228.63,525.76,227.85,526.52,227.91Z" transform="translate(-149.88 -212.36)"/><path class="cls-14" d="M519.4,228c0-.22.3-.48.63-.57a2.81,2.81,0,0,1,1.86,0c.32.15.11.6-.17.58C520,227.85,519.48,228.32,519.4,228Z" transform="translate(-149.88 -212.36)"/><path class="cls-14" d="M526.1,233.21a1.12,1.12,0,0,1,1.12-1.05,1.08,1.08,0,0,1,1,1.12,1.1,1.1,0,0,1-1.12,1.05A1.09,1.09,0,0,1,526.1,233.21Z" transform="translate(-149.88 -212.36)"/><path class="cls-14" d="M520.29,231.11c.55-.05,1.17.53.92,1.12l0,.05a.89.89,0,0,1-.74.6.86.86,0,0,1-.83-.45l0-.05A.87.87,0,0,1,520.29,231.11Z" transform="translate(-149.88 -212.36)"/><path class="cls-18" d="M523.07,232a11.39,11.39,0,0,1-2.67,4.48c-1.12,1.3-1.21,1.61-.33,2.07a7.87,7.87,0,0,0,1.62.66" transform="translate(-149.88 -212.36)"/><path class="cls-14" d="M534,232.29c0-.48-1.76-1.06-3.06-1.36s-5.19-1-6-.86-.89.47-1.27.41c-1-.17-1.11-.72-1.5-1.09a4,4,0,0,0-1.65-.79c-1.29-.36-2-.35-2.17.11a4.34,4.34,0,0,0-.08,1.62c0,.3.07,1.24.21,2,.21,1.17.72,1.89,1.36,2.07,2.16.59,2.32-1.57,2.74-2.28s.6-.77.93-.7.51.23.67,1.07-.11,2.57,2,3.37c2.73,1,4.61.67,5.46-.58,1.16-1.7,1-1.74,1.31-1.84.12,0,.79,0,.89-.3A3.89,3.89,0,0,0,534,232.29Zm-12.35.36c-.39.93-.89,1.76-1.9,1.38-.63-.24-.78-.78-.93-2.27-.22-2.16-.12-2.66,1.93-2.09,1.33.37,1.49.82,1.36,1.47A6.22,6.22,0,0,1,521.68,232.65Zm9.82,1.95c-.72,1.27-2.15,1.7-4,1.28-2.55-.6-2.63-1.46-2.68-2.5a5.54,5.54,0,0,1,.18-2c.27-.54.81-.44,2.44-.15s4.24.66,4.46,1A2.78,2.78,0,0,1,531.5,234.6Zm9.6-.89a17.84,17.84,0,0,0-3-1.18c-.57,0-5.48-1.11-5.48-1.11l.67,2,5.77,1Z" transform="translate(-149.88 -212.36)"/><path class="cls-5" d="M504.2,356.11c-1.18-13.65-2.59-29.19-.23-36.48,3.33-10.32,8.55-12.56,17.74-13s40.7-.29,40.7-.29,10.77,3.78,10.77,15.47S558,370.15,558,370.15l-38,10.17-13.37-.57S504.65,361.37,504.2,356.11Z" transform="translate(-149.88 -212.36)"/><path class="cls-6" d="M508.51,376s-5.21-42.65-1.84-54.89,12.48-12.53,15.05-1.08c3.64,16.25-5.55,55.58-5.55,55.58Z" transform="translate(-149.88 -212.36)"/><path class="cls-8" d="M527.28,300.19c-2.1,1.23-10.77,4.68-12.35,6.35s-4.11,2.31-4.93,4.61c-.6,1.69-1.13,3.13-.69,3.31l.45.17s-.14,1.19.43,1.33,1.09-.52,1.09-.52.43.54.91.27a3.8,3.8,0,0,0,.94-1s.56.68,1.13.24A10.15,10.15,0,0,1,516.6,313c1-.59,3.47-1.46,4.27-2.67s6.88-2.35,9.16-2.8c.87-.18,5-1.84,5-1.84Z" transform="translate(-149.88 -212.36)"/><path class="cls-8" d="M526.47,301.07a25.15,25.15,0,0,1-7.75,1.95c-1.52.15-4.34,1.9-5.18,2.42s-1.87,2.57-2.25,3,.11,1.07,1.21.67,5.48-1.44,5.48-1.44l6-3Z" transform="translate(-149.88 -212.36)"/><path class="cls-26" d="M549.2,262.52c.73-6.79,5.52-10.91,11-9.48s5.46,10.57,5.1,17.88-5.15,28.77-7,30.59-31.09,6.95-31.09,6.95-.85-6.22-3.77-6.95c0,0,21.26-8.23,23.08-10.43S548.11,272.75,549.2,262.52Z" transform="translate(-149.88 -212.36)"/><line class="cls-22" x1="392.85" y1="16.01" x2="392.87" y2="11.67"/><line class="cls-22" x1="389.92" y1="12.09" x2="390.01" y2="16.7"/><path class="cls-23" d="M545.2,234.76c-.45,2.73-4.29,5.63-4.29,5.63l-1.68-.25c-2.74-.4-4.52-3.47-4-6.85s3.23-5.79,6-5.39l1.69.25C544.55,229.35,545.62,232.23,545.2,234.76Z" transform="translate(-149.88 -212.36)"/><path class="cls-24" d="M546.88,235c-.55,3.38-3.23,5.79-6,5.38s-4.51-3.47-4-6.85,3.23-5.79,6-5.39S547.44,231.63,546.88,235Z" transform="translate(-149.88 -212.36)"/><path class="cls-23" d="M546.5,234.8c-.48,2.9-2.78,5-5.13,4.62s-3.88-3-3.4-5.89,2.77-5,5.13-4.62S547,231.9,546.5,234.8Z" transform="translate(-149.88 -212.36)"/><ellipse class="cls-11" cx="543.72" cy="234.44" rx="3.22" ry="2.7" transform="translate(56.23 508.51) rotate(-78.56)"/><path class="cls-24" d="M528.19,213.78s6.08-.7,8.42,3.24a16,16,0,0,1,2.13,7.63l4.57-.42.77-.35s-1.57-4.36-2.68-6.64a7.26,7.26,0,0,0-5.51-4.26s-6-.33-7.89.16Z" transform="translate(-149.88 -212.36)"/><path class="cls-23" d="M528,213.14a10.7,10.7,0,0,1,3.62.13c2.09.41,4.33,1.28,5.5,3.27a19,19,0,0,1,2.47,7.64l4.49-.3a31.32,31.32,0,0,0-1.78-6.9,8.79,8.79,0,0,0-6.22-4.58S529.22,212.1,528,213.14Z" transform="translate(-149.88 -212.36)"/><polygon class="cls-30" points="252.38 128.14 253.06 120.47 253.06 106.96 251.15 106.96 251.15 120.39 251.78 128.14 252.38 128.14"/><polygon class="cls-31" points="251.15 114.35 251.15 120.39 251.78 128.14 252.38 128.14 253.06 120.47 253.06 114.35 251.15 114.35"/><path class="cls-10" d="M392.06,319.2l-.79-2.14a5.22,5.22,0,0,1,3.1-6.7l11.64-4.3a5.22,5.22,0,0,1,6.7,3.09l.79,2.14a5.22,5.22,0,0,1-3.1,6.71l-11.64,4.3A5.22,5.22,0,0,1,392.06,319.2Z" transform="translate(-149.88 -212.36)"/><path class="cls-30" d="M396.2,309.69l-1.83.67a5.22,5.22,0,0,0-3.1,6.7l.79,2.14a5.22,5.22,0,0,0,6.7,3.1l1.83-.67Z" transform="translate(-149.88 -212.36)"/><line class="cls-32" x1="258.3" y1="101.72" x2="259.8" y2="105.8"/><line class="cls-32" x1="255.74" y1="102.66" x2="257.24" y2="106.75"/><line class="cls-32" x1="253.17" y1="103.61" x2="254.67" y2="107.69"/><line class="cls-32" x1="250.6" y1="104.55" x2="252.11" y2="108.64"/><line class="cls-32" x1="255.47" y1="94.02" x2="256.97" y2="98.1"/><line class="cls-32" x1="252.9" y1="94.96" x2="254.4" y2="99.05"/><line class="cls-32" x1="250.33" y1="95.91" x2="251.84" y2="99.99"/><line class="cls-32" x1="247.77" y1="96.85" x2="249.27" y2="100.94"/><polygon class="cls-31" points="263.04 128.14 252.84 121.17 251.73 122.28 262.31 128.14 263.04 128.14"/><polygon class="cls-31" points="242.12 128.14 252.56 122.28 251.45 121.17 241.25 128.14 242.12 128.14"/><polygon class="cls-30" points="200.29 128.14 199.61 120.47 199.61 106.96 201.52 106.96 201.52 120.39 200.9 128.14 200.29 128.14"/><polygon class="cls-31" points="201.52 114.35 201.52 120.39 200.9 128.14 200.29 128.14 199.61 120.47 199.61 114.35 201.52 114.35"/><path class="cls-10" d="M360.37,319.2l.79-2.14a5.23,5.23,0,0,0-3.1-6.7l-11.64-4.3a5.22,5.22,0,0,0-6.7,3.09l-.79,2.14A5.22,5.22,0,0,0,342,318l11.64,4.3A5.22,5.22,0,0,0,360.37,319.2Z" transform="translate(-149.88 -212.36)"/><path class="cls-30" d="M356.23,309.69l1.83.67a5.23,5.23,0,0,1,3.1,6.7l-.79,2.14a5.22,5.22,0,0,1-6.7,3.1l-1.83-.67Z" transform="translate(-149.88 -212.36)"/><line class="cls-32" x1="194.37" y1="101.72" x2="192.87" y2="105.8"/><line class="cls-32" x1="196.94" y1="102.66" x2="195.43" y2="106.75"/><line class="cls-32" x1="199.5" y1="103.61" x2="198" y2="107.69"/><line class="cls-32" x1="202.07" y1="104.55" x2="200.56" y2="108.64"/><line class="cls-32" x1="197.2" y1="94.02" x2="195.7" y2="98.1"/><line class="cls-32" x1="199.77" y1="94.96" x2="198.27" y2="99.05"/><line class="cls-32" x1="202.34" y1="95.91" x2="200.83" y2="99.99"/><line class="cls-32" x1="204.9" y1="96.85" x2="203.4" y2="100.94"/><polygon class="cls-31" points="189.63 128.14 199.83 121.17 200.94 122.28 190.36 128.14 189.63 128.14"/><polygon class="cls-31" points="210.55 128.14 200.11 122.28 201.22 121.17 211.42 128.14 210.55 128.14"/><polygon class="cls-3" points="284.27 201.01 282.6 201.02 265.21 133.12 268.31 133.11 284.27 201.01"/><polygon class="cls-3" points="164.75 201.43 163.08 201.43 182.13 133.38 185.24 133.37 164.75 201.43"/><polygon class="cls-4" points="270.15 140.91 268.31 133.11 265.21 133.12 267.21 140.92 270.15 140.91"/><polygon class="cls-4" points="182.89 141.18 185.24 133.37 182.13 133.38 179.94 141.19 182.89 141.18"/><polygon class="cls-33" points="279.72 134.44 172.35 134.44 172.68 127.47 279.36 127.47 279.72 134.44"/></g></g></svg>