<svg id="Layer_1" data-name="Layer 1" xmlns="http://www.w3.org/2000/svg" xmlns:xlink="http://www.w3.org/1999/xlink" viewBox="0 0 1110.82 1235.69"><defs><style>.cls-1{fill:url(#linear-gradient);}.cls-2{fill:url(#New_Gradient_Swatch_1);}.cls-3{fill:#fff;}.cls-4{fill:url(#New_Gradient_Swatch_1-2);}.cls-5{fill:url(#linear-gradient-2);}.cls-6{fill:url(#linear-gradient-3);}</style><linearGradient id="linear-gradient" x1="1105.76" y1="1416.49" x2="238.14" y2="773.65" gradientUnits="userSpaceOnUse"><stop offset="0" stop-color="#fff"/><stop offset="1" stop-color="#fff"/></linearGradient><linearGradient id="New_Gradient_Swatch_1" x1="406.94" y1="1003.32" x2="409.58" y2="1003.32" gradientUnits="userSpaceOnUse"><stop offset="0" stop-color="#fff"/><stop offset="1" stop-color="#231f20"/></linearGradient><linearGradient id="New_Gradient_Swatch_1-2" x1="394.72" y1="989.95" x2="395.35" y2="989.95" xlink:href="#New_Gradient_Swatch_1"/><linearGradient id="linear-gradient-2" x1="1190.99" y1="598.12" x2="114.57" y2="602.2" xlink:href="#linear-gradient"/><linearGradient id="linear-gradient-3" x1="1191" y1="598.57" x2="114.57" y2="602.65" xlink:href="#linear-gradient"/></defs><path class="cls-1" d="M1282.43,1378.06H792.34A620.63,620.63,0,0,1,206.48,961.41a309.43,309.43,0,0,1-2.33-38c0-163.46,127.85-297,289-306.27a329.35,329.35,0,0,0-31.46,141c0,113.22,56.9,213.14,143.67,272.73L588,1070.89l-26.28,60.66s0,0,0,0l-.63,1.44a9.84,9.84,0,0,0-.57,3.36,10.19,10.19,0,0,0,10.23,10.17,9.54,9.54,0,0,0,2.57-.33l2.64-1.1,60.46-25.09L720.87,1085l.53-.21h0l5.69-2.39a.62.62,0,0,1,.33,0,310.79,310.79,0,0,0,42.5,5.63q11.1.77,22.42.75H993.1a289.28,289.28,0,0,1,289.33,289.32Z" transform="translate(-171.61 -142.37)"/><line class="cls-2" x1="409.58" y1="1002.77" x2="406.94" y2="1003.87"/><path class="cls-3" d="M1281.67,142.37A289.3,289.3,0,0,1,992.35,431.7H791.59c-119.08,0-223.44,62.93-281.65,157.36-162.84.14-298.77,115.2-331,268.46a622.12,622.12,0,0,1-7.28-95.17c0-342.4,277.58-620,620-620Z" transform="translate(-171.61 -142.37)"/><line class="cls-4" x1="395.35" y1="989.23" x2="394.72" y2="990.67"/><line class="cls-2" x1="409.58" y1="1002.77" x2="406.94" y2="1003.87"/><rect class="cls-3" x="476.57" y="554.88" width="55.58" height="88.97" rx="27.79"/><rect class="cls-3" x="595.62" y="449.32" width="55.58" height="300.08" rx="27.79"/><rect class="cls-3" x="714.68" y="488.61" width="55.58" height="221.51" rx="27.79"/><rect class="cls-5" x="833.73" y="395.75" width="55.58" height="407.23" rx="27.79"/><rect class="cls-6" x="952.79" y="554.88" width="55.58" height="88.97" rx="27.79"/></svg>