<?xml version="1.0" encoding="utf-8"?>
<!-- Generator: Adobe Illustrator 24.3.0, SVG Export Plug-In . SVG Version: 6.00 Build 0)  -->
<svg version="1.1" xmlns="http://www.w3.org/2000/svg" xmlns:xlink="http://www.w3.org/1999/xlink" x="0px" y="0px"
	 viewBox="0 0 750 500" style="enable-background:new 0 0 750 500;" xml:space="preserve">
<style type="text/css">
	.st0{display:none;}
	.st1{display:inline;fill:#9C9C9C;}
	.st2{display:inline;}
	.st3{fill:#D3D3D4;}
	.st4{fill:#FFFFFF;}
	.st5{display:inline;fill:#FFC53D;}
	.st6{display:inline;fill:#262547;}
	.st7{font-family:'OpenSans-Extrabold';}
	.st8{font-size:11.5294px;}
	.st9{display:inline;fill:#050504;}
	.st10{font-family:'OpenSans';}
	.st11{font-size:5px;}
	.st12{fill:#050504;}
	.st13{opacity:0.51;fill:none;stroke:#818181;stroke-width:0.5;stroke-miterlimit:10;}
	.st14{fill:none;stroke:#272546;stroke-miterlimit:10;}
	.st15{display:none;fill:none;stroke:#050504;stroke-miterlimit:10;}
	.st16{display:inline;opacity:0.5;}
	.st17{fill:#272546;}
	.st18{font-size:8.695px;}
	.st19{font-family:'NotoSerif-ExtraLightItalic';}
	.st20{font-size:45.9984px;}
	.st21{fill:#111314;}
	.st22{font-family:'NotoSerif-CondensedBlack';}
	.st23{font-size:38.4497px;}
	.st24{fill:#FFC53D;}
	.st25{font-size:10.8057px;}
	.st26{fill:#131834;}
	.st27{fill:none;stroke:#000000;stroke-miterlimit:10;}
	.st28{fill:#BF7862;}
	.st29{fill:none;stroke:#131834;stroke-width:4;stroke-linecap:round;stroke-miterlimit:10;}
	.st30{fill:none;stroke:#131834;stroke-width:0.5;stroke-miterlimit:10;}
	.st31{fill:#C4C1B1;}
	.st32{fill:#DE9983;}
	.st33{fill:none;stroke:#141740;stroke-width:3;stroke-miterlimit:10;}
	.st34{fill:#466680;}
	.st35{fill:#517694;}
	.st36{fill:#F0ECD8;}
	.st37{clip-path:url(#SVGID_2_);fill:#131834;}
	.st38{clip-path:url(#SVGID_4_);fill:#3688EA;}
	.st39{fill:#503444;}
	.st40{fill:#6BA7B3;}
	.st41{fill:#3688EA;}
	.st42{fill:#181D3D;}
	.st43{fill:none;stroke:#000000;stroke-width:0.5;stroke-linecap:round;stroke-miterlimit:10;}
	.st44{fill:none;stroke:#000000;stroke-width:0.5;stroke-miterlimit:10;}
</style>
<g id="BACKGROUND" class="st0">
	<rect y="0" class="st1" width="750" height="500"/>
</g>
<g id="OBJECTS">
	<g class="st0">
		<g class="st2">
			<path class="st3" d="M709.04,61.2H40.96v-7.78c0-2.37,1.91-4.28,4.28-4.28c52.7,0,575.66,0,659.52,0c2.37,0,4.28,1.92,4.28,4.28
				V61.2z"/>
			<rect x="41.14" y="61.47" class="st4" width="667.73" height="381.96"/>
		</g>
		<g class="st2">
			<path class="st4" d="M52.02,55.13c0,1.24-1.01,2.25-2.25,2.25s-2.25-1.01-2.25-2.25s1.01-2.25,2.25-2.25S52.02,53.89,52.02,55.13
				z"/>
			<path class="st4" d="M61.11,55.13c0,1.24-1.01,2.25-2.25,2.25s-2.25-1.01-2.25-2.25s1.01-2.25,2.25-2.25S61.11,53.89,61.11,55.13
				z"/>
			<circle class="st4" cx="67.94" cy="55.13" r="2.25"/>
		</g>
	</g>
	<g class="st0">
		<rect x="633.89" y="73.62" class="st5" width="43.43" height="21.06"/>
		<text transform="matrix(0.9997 0 0 1 73.7986 88.7354)" class="st6 st7 st8">logo</text>
		<text transform="matrix(0.9997 0 0 1 458.324 85.7599)" class="st9 st10 st11">home</text>
		<text transform="matrix(0.9997 0 0 1 576.1649 85.7599)" class="st9 st10 st11">contact us</text>
		<g class="st2">
			<text transform="matrix(0.9997 0 0 1 644.3242 85.6175)" class="st12 st10 st11">try now</text>
		</g>
		<text transform="matrix(0.9997 0 0 1 514.1004 85.7599)" class="st9 st10 st11">podcasts</text>
		<g class="st2">
			<path class="st13" d="M356.73,91.79H218.4V76.63h138.33c1.22,0,2.21,0.99,2.21,2.21v10.75C358.93,90.8,357.94,91.79,356.73,91.79
				z"/>
			<path class="st3" d="M219.31,92.05h-22.85c-0.76,0-1.37-0.61-1.37-1.37V77.75c0-0.76,0.61-1.37,1.37-1.37h22.85V92.05z"/>
			<g>
				<g>
					<path class="st14" d="M208.69,83.07c0,1.43-1.16,2.59-2.59,2.59c-1.43,0-2.59-1.16-2.59-2.59s1.16-2.59,2.59-2.59
						C207.52,80.48,208.69,81.64,208.69,83.07z"/>
				</g>
				<line class="st14" x1="207.94" y1="84.89" x2="210.55" y2="87.5"/>
			</g>
		</g>
	</g>
	<polyline class="st15" points="677.84,246.47 686.96,254.51 677.84,263.66 	"/>
	<g class="st0">
		<text transform="matrix(1 0 0 1 472.6064 273.5067)" class="st16"><tspan x="0" y="0" class="st17 st10 st18">Lorem ipsum dolor sit amet, consectetuer  </tspan><tspan x="0" y="10.43" class="st17 st10 st18">adipiscing elit, sed diam nonummy nibh  </tspan><tspan x="0" y="20.87" class="st17 st10 st18">euismod tincidunt ut laoreet dolore</tspan></text>
		<g class="st2">
			<text transform="matrix(1 0 0 1 470.9734 205.112)"><tspan x="0" y="0" class="st12 st19 st20">Podcast  </tspan><tspan x="0" y="36.37" class="st21 st22 st23">concept</tspan><tspan x="130.77" y="36.37" class="st21 st22 st20"> </tspan></text>
		</g>
		<g class="st2">
			<rect x="474.9" y="318.36" class="st24" width="76.8" height="25.71"/>
			<text transform="matrix(1 0 0 1 494.7255 334.7606)" class="st21 st10 st25">Sing up</text>
		</g>
	</g>
	<g>
		<path class="st26" d="M245.26,76.7c-0.19,1.87-0.38,3.74-0.57,5.61c2.62-0.38,5.24-0.75,7.86-1.13c-2.92-2.09-4.9-6.78-6.41-10.6
			C245.91,72.6,245.47,74.62,245.26,76.7z"/>
		<line class="st27" x1="620.19" y1="466.11" x2="620.19" y2="211.41"/>
		<line class="st27" x1="272.2" y1="466.11" x2="272.2" y2="211.41"/>
		<path class="st28" d="M248.42,105.65c0,0.05,0,0.1,0,0.16"/>
		<line class="st29" x1="134.21" y1="464.86" x2="227.45" y2="464.86"/>
		<path class="st30" d="M491.85,174.8c0.47-6.41-0.67-9.59,0.16-13.45"/>
		<g>
			<ellipse class="st31" cx="310.15" cy="129.39" rx="21.14" ry="24.13"/>
			<g>
				<path class="st32" d="M417.29,445.02c0.9-3.41,1.49-6.92,2.12-10.29c1.57-8.39,3.14-16.79,3.87-25.3
					c0.36-4.23,0.49-8.63-1.09-12.58c-1.58-3.94-5.27-7.32-9.52-7.29c-6.12,0.06-10.81,5.5-13.05,10.65
					c-1.75,4.03-2.55,8.41-3.19,12.76c-1.55,10.47-2.28,21.04-3.01,31.6c-0.19,2.71-0.32,5.64,1.16,7.92
					c1.26,1.94,3.49,3.05,5.72,3.68c4.71,1.34,11.79,1.28,14.23-3.56C415.73,450.23,416.6,447.66,417.29,445.02z"/>
				<g>
					<g>
						<path class="st26" d="M522.26,465.41c1.78-2.48,1.9-4.95,1.96-7.43l0.32-7.43c0.23-4.95,0.41-9.91,0.55-14.86
							c0.29-9.91,0.35-19.82,0.29-29.72c0.01-9.91-0.19-19.82-0.46-29.72c-0.34-9.91-0.76-19.82-1.62-29.72h7.58
							c-0.86,9.91-1.28,19.82-1.62,29.72c-0.28,9.91-0.47,19.82-0.46,29.72c-0.06,9.91,0,19.82,0.29,29.72
							c0.14,4.95,0.33,9.91,0.55,14.86l0.32,7.43c0.07,2.48,0.19,4.95,1.96,7.43H522.26z"/>
					</g>
					<line class="st29" x1="478.39" y1="465.29" x2="574.48" y2="465.29"/>
				</g>
				<g>
					<path class="st32" d="M376.91,441.64c0.9-3.41,1.49-6.92,2.12-10.29c1.57-8.39,3.14-16.79,3.87-25.3
						c0.36-4.23,0.49-8.63-1.09-12.58c-1.58-3.94-5.27-7.32-9.52-7.29c-6.12,0.06-10.81,5.5-13.05,10.65
						c-1.75,4.03-2.55,8.41-3.19,12.76c-1.55,10.47-2.28,21.04-3.01,31.6c-0.19,2.71-0.32,5.64,1.16,7.92
						c1.26,1.94,3.49,3.05,5.72,3.68c4.71,1.34,11.79,1.28,14.23-3.56C375.34,446.84,376.22,444.27,376.91,441.64z"/>
					<path class="st26" d="M377.39,454.61c-0.79,1.91-2,3.59-3.91,4.43c-0.97,0.43-2.05,0.47-3.11,0.51
						c-9.41,0.34-18.82,0.13-28.23-0.02c-10.97-0.17-21.86,0.5-32.8-0.76c-0.12-3.19,2.03-6.12,4.72-7.84
						c2.69-1.72,5.87-2.48,8.96-3.27c5.63-1.44,11.21-3.08,16.73-4.93c4.84-1.62,8.69-2.45,11.26-7.13
						c0.23-0.42,2.29-5.56,1.28-5.65c8.55,0.76,17.11,1.53,25.66,2.29c0.26,0.02,0.53,0.05,0.72,0.22c0.24,0.21,0.28,0.55,0.3,0.86
						c0.42,5.39,0.3,10.82-0.36,16.18C378.43,451.12,378.07,452.95,377.39,454.61z"/>
					<path class="st33" d="M560.91,210.06c-33.33-7.23-70.92-13.14-100.91,0.34c-19.53,8.78-32.71,25.12-36.41,42.52
						c-3.7,17.4,1.62,35.6,12.86,50.88"/>
					<path class="st26" d="M532.69,357.86c12.27-2.36,24.36-5.6,36.16-9.72c27.44-9.58,49.55-38.4,58.3-65.33
						c9.19-28.29,12.53-64.12,7.64-93.38c-3.15-18.85-13.94-38.05-32.05-44.14c-13.03-4.39-27.37-1.28-40.35,3.26
						c-17.5,6.12-27.42,14.71-35.06,31.36c-8.19,17.85-14.21,36.74-24.45,53.6c-14.41,23.71-36.94,42.38-62.92,52.12
						c-17.07,6.4-50.41,10.97-43.79,36.13c7.2,27.38,36.07,36.78,61.47,39.4C482.65,363.74,508.02,362.6,532.69,357.86z"/>
					<path class="st26" d="M424.87,314.63c-9.95,2.29-20.16,3.34-30.25,4.83c-5.31,0.78-16.18,3.81-21.19,0.09
						c-6.34-4.7,4.04-7.44,8.74-10.06c8.09-4.52,16.3-8.83,24.45-13.23c7.53-4.06,17.21-12.73,24.89-4.35
						c4.94,5.39,5.51,13.99,6.07,20.91C433.28,312.97,429.1,313.66,424.87,314.63z"/>
					<path class="st34" d="M532.6,262.46c-2.03-0.47-3.95-0.88-5.6-1.3c-17.1-4.42-34.75-6.33-52.36-7.27
						c-20.06-1.06-40.63-0.81-59.61,5.8c-31.25,10.89-45.03,37.5-53.34,67.61c-8.36,30.28-14.28,61.19-18.92,92.27
						c13.41,3.58,26.71,7.56,40,11.58c1.16-2.99,1.85-6.4,2.62-8.55c2.47-6.88,4.77-13.81,7.03-20.76
						c4.4-13.54,8.63-27.15,13.65-40.48c4.97-13.19,10.8-26.26,19.58-37.29c6.27-7.88,13.76-14.64,20.61-21.97
						c6.61-7.07,16.89-7.55,26.08-8.95c24.13-3.69,48.97-4.32,72.25-12.33c5.93-2.04,8.11-7.15,3.24-12.03
						C544.44,265.4,538.14,263.73,532.6,262.46z"/>
					<path class="st26" d="M417.78,458c-0.79,1.91-2,3.59-3.91,4.43c-0.46,0.21-0.96,0.32-1.46,0.39
						c-7.53,1.06-15.18,0.82-22.78,0.36c-13.38-0.81-26.61,0.52-39.91-1.02c-0.12-3.19,2.03-6.12,4.72-7.84
						c2.69-1.72,5.87-2.48,8.96-3.27c5.63-1.44,11.21-3.08,16.73-4.93c4.84-1.62,8.69-2.45,11.26-7.13
						c0.17-0.32,1.37-3.29,1.54-4.79c0.05-0.45,0.42-0.8,0.87-0.76l24.53,2.19c0.26,0.02,0.53,0.05,0.72,0.22
						c0.24,0.21,0.28,0.55,0.3,0.86c0.42,5.39,0.3,10.82-0.36,16.18C418.81,454.5,418.46,456.34,417.78,458z"/>
					<path class="st35" d="M585.79,278.77c-4.6-14.53-25.42-17.86-38.28-16.82c-26.75,2.14-53.58,2.8-80.18,4.98
						c-21.67,1.77-45.25,6.46-60.15,23.74c-13.08,15.17-16.11,36.35-17.96,56.29c-1.41,15.11-0.38,49.21,0.59,74.93
						c6.8,0.68,13.62,1.24,20.5,1.5c4.04,0.15,7.99,0.41,11.74,1.14c1.05-3.86,2.07-7.54,3.15-10.76
						c2.27-6.8,23.86-82.44,23.21-82.55c21.96,3.48,44.34,4.35,66.51,2.57c15.67-1.26,31.61-3.96,45.27-11.72
						C573.41,314.56,591.12,295.57,585.79,278.77z"/>
					<path class="st36" d="M592.72,273.27c-0.55,1.65-1.2,3.13-2.05,4.15c-2.45,2.95-8.2,1.93-11.8,1.98
						c-10.27,0.17-20.72-0.45-30.5-3.86c-6.08-2.12-11.74-5.27-17.55-8.04c-6.31-3.02-12.82-5.61-19.48-7.75
						c-5.08-1.64-13.61-4.53-19.69-4.54c0.81-3.88,2.19-7.4,3-11.27c2.16-10.42,1.59-21.88,1.61-32.54
						c0.02-11.84-1.11-23.71-4.53-35.08c-4.26-14.16-12.88-34.63-3.55-48.62c8.76-13.14,35-13.93,48.79-15.15
						c3.72-0.33,7.5-0.66,11.18-0.03c4.54,0.78,8.71,2.97,12.67,5.34c21.08,12.64,23.64,33.03,29.98,54.98
						c3.17,10.96,8.13,21.34,11.31,32.3c5.83,20.09-0.41,40.42-7,59.46C594.34,266.86,593.7,270.32,592.72,273.27z"/>
					<g id="XMLID_13_">
						<g id="XMLID_14_">
							<path id="XMLID_15_" class="st28" d="M537.05,91.46c0.16,1.97-3.97,6.47-5.23,7.89c-2,2.25-4.33,3.99-7.14,5.1
								c-7.32,2.89-15,3.15-20.74-2.88c-2.73-2.87-4.58-6.45-6.13-10.08c-2.36-5.54-5.66-20.83-4.17-26.66
								c1.36-5.3,7.04-0.68,12.21-2.46c4.5-1.55,7.92-2.93,12.74-2.1c4.28,0.74,8.4,2.87,11.09,6.34c0.72,0.94,1.38,1.88,1.98,2.83
								c1.42,3.02,2.73,6.1,3.68,9.31c0.79,2.68,1.06,5.39,1.48,8.1C536.86,88.39,536.93,89.93,537.05,91.46z"/>
						</g>
					</g>
					<g id="XMLID_11_">
						<g id="XMLID_12_">
							<path class="st28" d="M540.1,126.68c-6.73,4.72-15.7,6.33-23.78,6.05c-1.78-0.06-3.6-0.24-5.42-0.54
								c4.18-4.13,5.54-7.32,4.67-13.42c-0.45-3.15-1.54-6.17-2.81-9.08c-0.46-1.04-4.44-7.47-4.03-8.19
								c0.12-0.21,0.26-0.4,0.44-0.57c0.95-0.91,2.43-0.89,3.75-0.9c4.93-0.06,9.55-1.61,13.56-4.47c1.91-1.36,3.63-2.96,5.26-4.63
								c0.94-0.96,2.66-4.29,4.09-4.4c0.14-0.01,0.24,0.06,0.35,0.11c1.68,6.75,1.82,13.06,5.89,19.11
								c1.54,2.29,3.36,4.32,5.51,5.82c1.11,1.06,2.46,1.84,4.29,2.17C548.99,118.85,544.97,123.27,540.1,126.68z"/>
						</g>
					</g>
					<path class="st26" d="M539.03,92.13c-1.2,1.79-2.59,2.54-3.6-1.14c-1.22-4.44-3.22-9.75-2.58-14.42
						c0.08-0.59,0.21-1.19,0.14-1.78c-0.07-0.59-0.39-1.2-0.95-1.41c-0.9-0.33-1.81,0.51-2.19,1.39c-0.38,0.88-0.52,1.89-1.16,2.6
						c-0.31,0.34-0.73,0.58-1.18,0.68c-1.61,0.36-3.13-1.16-3.5-2.78c-0.37-1.61,0.03-3.29,0.19-4.93c0.13-1.28,0.14-3.06-0.74-4.12
						c-0.95-1.13-2.73-0.88-4.1-0.67c-3.27,0.5-6.21,2.27-9.09,3.79c-5.56,2.93-11.68,5.13-17.96,4.98
						c-1.72-0.04-3.81-0.57-4.24-2.23c-0.18-0.71,0-1.46,0.25-2.14c1.51-4.2,5.28-7.12,8.98-9.61c-3.07,0.57-6.23,0.58-9.3,0.04
						c-0.4-0.07-0.82-0.17-1.08-0.47c-0.63-0.74,0.21-1.82,1.02-2.38c4.89-3.4,10.76-5.37,16.71-5.6c-1.39-0.28-2.74-0.75-4.02-1.37
						c-0.24-0.12-0.48-0.25-0.62-0.47c-0.37-0.59,0.2-1.32,0.78-1.7c1.41-0.95,3.08-1.43,4.74-1.82c4.89-1.15,9.93-1.69,14.96-1.6
						c0.39,0.01,0.79,0.02,1.18,0.04c7.7,0.33,15.04,2.99,19.07,9.94c3.58,6.17,4.21,13.94,3.45,20.91
						c-0.45,4.1-1.47,8.15-3.01,11.98C540.68,88.94,539.91,90.81,539.03,92.13z"/>
					<g id="XMLID_8_">
						<g id="XMLID_9_">
							<path class="st28" d="M539.17,77.53c-0.94-2.79-3.74-5.47-6.89-4.94c-1.42,0.24-2.73,1.23-3.16,2.6
								c-0.35,1.08-0.12,2.18,0.17,3.25c0.24,0.9,0.32,1.72,0.7,2.59c0.42,0.99,0.9,1.96,1.3,2.97c0.09,0.24,0.86,3.04,0.77,3.03
								c1.33,0.15,2.75-0.09,3.84-0.71C538.97,84.6,540.29,80.85,539.17,77.53z"/>
						</g>
					</g>
					<path class="st36" d="M492.26,123.05c-15.94,8.37-29.52,20.62-42.23,33.19c-6.3,6.23-13.45,11.52-20.09,17.37
						c-7.11,6.26-14.32,14.09-13.37,24.32c0.47,5.05,3.96,10.12,8.97,10.93c2.08,0.34,4.21-0.07,6.31-0.29
						c5.94-0.62,11.43,0.49,16.47-3.32c4.43-3.35,9.17-6.28,14.1-8.84c2.77-1.44,5.64-2.78,8.04-4.79c1.75-1.46,3.2-3.23,4.83-4.82
						c5.07-4.92,11.77-7.93,16.68-13.02c4.15-4.3,8.85-7.93,12.65-12.6c3.72-4.57,6.77-9.68,9.01-15.13
						c0.63-1.54,1.21-3.17,1.11-4.83c-0.08-1.31-0.59-2.56-1.09-3.77c-0.37-0.9-0.75-1.81-1.39-2.54c-0.49-0.56-1.12-0.99-1.6-1.56
						c-1.28-1.53-1.25-3.77-0.81-5.71c0.44-1.94,1.22-3.84,1.21-5.84C511.01,111.96,496.16,121,492.26,123.05z"/>
					<path class="st28" d="M503.25,212.1c3.38,0.08,6.76,0.18,10.14,0.29c8.15,0.26,17.76,2.53,25.69-0.15
						c0.33-0.11,0.69-0.26,0.84-0.59c0.15-0.32,0.03-0.7-0.1-1.04c-3.66-9.67-13.99-16.17-24.02-15.11
						c-3.75,0.4-7.38,2.12-11.13,2.26c-3.26,0.13-7.01-0.42-10.28-0.8c-8.32-0.98-16.39-3.46-24.61-5.05
						c-7.05-1.36-14.23-2.07-21.4-2.11c-5.8-0.03-11.72,0.39-17.11,2.6c-7.54,3.08-18.44,15.37-4.81,18.65
						c5,1.2,10.15,0.54,15.21,0.76c10.8,0.47,21.61,0.1,32.41,0C483.81,211.74,493.53,211.86,503.25,212.1z"/>
					<path class="st26" d="M534.22,83.24c1.6-0.86,2.29-3.1,1.43-4.72c-0.85-1.61-3.09-2.31-4.7-1.47"/>
					<g>
						<defs>
							<path id="SVGID_1_" d="M497.51,140.37c-0.04-0.22-0.06-0.45-0.09-0.67c1.46-5.26,9-5.18,13.24-7.39
								c0.86-0.45,1.59-1.01,2.22-1.64c0.08-0.08,0.17-0.17,0.25-0.25c1.33-1.44,2.14-3.27,2.46-5.35
								c1.29-8.48-3.09-16.12-6.85-23.56c0.12-0.21,0.26-0.4,0.44-0.57c0.95-0.91,2.43-0.89,3.75-0.9
								c4.93-0.06,9.55-1.61,13.56-4.47c1.91-1.36,3.63-2.96,5.26-4.63c0.94-0.96,2.66-4.29,4.09-4.41
								c0.14-0.01,0.24,0.06,0.35,0.11c1.68,6.75,1.82,13.06,5.89,19.11c1.54,2.29,3.36,4.32,5.51,5.82c1.13,1.08,2.51,1.88,4.4,2.2
								c0.48,0.08,0.97,0.12,1.47,0.13c0.2,0.03,0.39,0.08,0.59,0.1c0.24,0.02,0.43-0.03,0.6-0.12c3.06-0.13,6.21-0.85,8.56,0.94
								c1.11,0.85,1.8,2.12,2.34,3.41c3.98,9.48,1.18,21.82-3.85,30.34c-3.84,6.5-10.57,12.5-17.9,14.55
								c-6.98,1.94-14.26,0.3-20.89-2.11c-2.91-1.06-5.68-2.11-8.33-3.33c-7.99-3.67-14.89-7.76-16.98-16.83
								C497.58,140.67,497.54,140.52,497.51,140.37z"/>
						</defs>
						<clipPath id="SVGID_2_">
							<use xlink:href="#SVGID_1_"  style="overflow:visible;"/>
						</clipPath>
						<path class="st37" d="M524.02,103.68c-0.19,0.1-0.41,0.2-0.65,0.28c-4.16,1.71-8.73,2.76-13.12,2.12
							c-1.1,0.47-0.73,1.37-0.18,2.99c0.77,2.27,1.47,4.57,2.09,6.89c4.04-4.13,8.09-8.26,12.13-12.4
							C524.21,103.6,524.12,103.64,524.02,103.68z"/>
					</g>
					<path class="st36" d="M587.39,132.46c4.02,4.65,8.63,10.82,10.51,16.71c2.45,7.69,3.17,15.81,4.23,23.77
						c0.86,6.46,1.95,12.89,3.26,19.28c1.18,5.75,3.17,9.82,5.36,15.05c4.94,11.82,8.7,25.52,7.43,38.4
						c-0.16,1.67-0.43,3.37-1.26,4.83c-1.3,2.29-3.76,3.62-6.12,4.79c-4.51,2.23-9.18,4.32-14.15,5.07
						c-4.97,0.76-10.35,0.05-14.43-2.89c-3.22-2.33-5.37-5.81-7.43-9.21c-5.31-8.73-11.01-15.69-12.91-25.84
						c-1.32-7.08-2.65-14.16-3.97-21.24c-5.41-28.93-10.81-58.77-4.7-87.56c0.51-2.38,21.62,7.92,23.41,9.16
						C580.47,125.44,584.2,128.76,587.39,132.46z"/>
					<path class="st30" d="M564.19,169.52c2.75,10.44-0.36,21.46-0.09,32.25c0.21,8.44,0.09,17.44,2.26,25.63
						c1.61,6.07,2.71,13.82,7.63,18.5"/>
					<path class="st28" d="M584.84,233.16c-2.03,1.55-4,3.21-6,4.75c-7.97,6.14-17.08,10.57-26.35,14.4
						c-4.36,1.8-8.82,3.25-13.21,4.82c-4.67,1.67-8.54,4.18-13.68,4.4c-4.64,0.2-9.23-0.64-13.82-1.16c-2.32-0.26-4.66-0.46-7-0.39
						c-1.19,0.04-2.39,0.14-3.57,0.32c-0.96,0.14-1.72,0.57-2.68,0.8c-0.69,0.17-1.41,0.11-2.11,0.17c-0.7,0.06-1.45,0.27-1.89,0.83
						c-1.51,1.94,2.12,2.65,3.22,2.59c2.15-0.11,4.33-0.54,6.42,0.04c-4.9,2-9.73,4.19-14.48,6.53c-3.3,1.63-7.08,4.22-6.68,7.88
						c0.49,4.54,6.52,5.97,10.2,6.21c5.46,0.36,10.98-0.28,16.2-1.91c3.17-0.98,6.24-2.32,9.48-3.04c3.43-0.75,6.98-0.79,10.49-0.93
						c12.88-0.51,25.43-2.42,38.02-4.92c14.1-2.81,29.8-6.75,40.86-16.54c3.51-3.1,6.37-7.16,7.18-11.77
						c0.78-4.39-0.35-8.97-2.53-12.86c-1.75-3.13-4.38-6.01-7.85-6.89C598.37,224.79,589.96,229.25,584.84,233.16z"/>
					<path class="st4" d="M511.04,92.87c-0.72,1.87-2.3,3.23-4.03,3.48c-1.73,0.24-3.54-0.64-4.62-2.26"/>
					<path class="st33" d="M631.83,261.79c-33.33-7.57-70.92-13.76-100.91,0.35c-19.53,9.19-32.71,26.3-36.41,44.52
						c-3.7,18.21,0.05,34.16,11.29,50.16"/>
					<g>
						<defs>
							<path id="SVGID_3_" d="M532.69,357.86c12.27-2.36,24.36-5.6,36.16-9.72c27.44-9.58,49.55-38.4,58.3-65.33
								c9.19-28.29,12.53-64.12,7.64-93.38c-3.15-18.85-13.94-38.05-32.05-44.14c-13.03-4.39-27.37-1.28-40.35,3.26
								c-17.5,6.12-27.42,14.71-35.06,31.36c-8.19,17.85-14.21,36.74-24.45,53.6c-14.41,23.71-36.94,42.38-62.92,52.12
								c-17.07,6.4-50.41,10.97-43.79,36.13c7.2,27.38,36.07,36.78,61.47,39.4C482.65,363.74,508.02,362.6,532.69,357.86z"/>
						</defs>
						<clipPath id="SVGID_4_">
							<use xlink:href="#SVGID_3_"  style="overflow:visible;"/>
						</clipPath>
						<path class="st38" d="M444.33,366.4c5.22-1.31,10.44-2.65,15.62-4.13c11.33-3.22,22.32-7.23,32.92-12.39
							c20.27-9.87,40.08-21.21,57.3-35.87c15.99-13.61,30.4-29.24,41.79-46.91c5.53-8.58,9.99-17.62,14.37-26.81
							c4.13-8.68,8.33-17.33,12.1-26.18c6.6-15.5,13.17-32.91,12.53-50.12c0.05-0.17,0.11-0.33,0.16-0.52
							c11.76,35.78,15.12,74.92,5.32,111.29c-9.8,36.37-33.55,69.61-66.93,87.06c-23.34,12.2-50.04,16.34-76.32,18.01
							c-13.11,0.83-46.91,4.8-53.03-11.38c0.9-0.4,1.82-0.87,2.76-1.35C443.38,366.87,443.85,366.63,444.33,366.4z"/>
					</g>
					<path class="st30" d="M449.21,332.96c0.91-6.91-0.44-12.91,0.47-19.81"/>
				</g>
			</g>
			<g>
				<path d="M410.1,143.91l-16.53,19.28c-1.04,1.22-0.98,3.03,0.14,4.17l2.36,2.41c1.17,1.2,3.09,1.24,4.31,0.09l18.66-17.49
					c1.3-1.22,1.3-3.29,0-4.5l-4.5-4.2C413.26,142.47,411.24,142.58,410.1,143.91z"/>
				<path d="M428.89,120.08c0.67-0.55,1.63-0.57,2.31-0.03c2.39,1.9,7.36,6.72,9.67,8.99c0.71,0.7,0.79,1.81,0.19,2.6
					c-3.35,4.37-13.9,17.97-20.04,24.18c-0.65,0.66-1.71,0.72-2.44,0.14c-4.32-3.5-8.45-7.64-12.43-12.26
					c-0.61-0.71-0.59-1.78,0.06-2.46C413.2,133.86,420.78,126.83,428.89,120.08z"/>
				<g>
					<line class="st27" x1="411.82" y1="179.56" x2="406.88" y2="207.99"/>
					<g>
						<path d="M415.87,184.1h-9.62v-16.25c0-1.38,1.12-2.5,2.5-2.5h4.62c1.38,0,2.5,1.12,2.5,2.5V184.1z"/>
						<path d="M416.1,185.07h-10.07c-0.47,0-0.85-0.38-0.85-0.85v-4.75c0-0.47,0.38-0.85,0.85-0.85h10.07
							c0.47,0,0.85,0.38,0.85,0.85v4.75C416.95,184.69,416.57,185.07,416.1,185.07z"/>
					</g>
					<polyline class="st27" points="382.59,207.97 411.82,181.48 441.79,207.97 					"/>
					<path d="M385.88,208.33c0,1.68-1.36,3.04-3.05,3.04c-1.68,0-3.04-1.36-3.04-3.04c0-1.68,1.36-3.04,3.04-3.04
						C384.52,205.29,385.88,206.65,385.88,208.33z"/>
					<circle cx="441.06" cy="208.33" r="3.04"/>
					<circle cx="406.88" cy="207.99" r="3.04"/>
					<path class="st39" d="M414.17,164.43c0.22,0.57,0.42,1.15,0.61,1.73c0.3,0.91,0.58,1.86,0.56,2.82
						c-0.06,3.25-2.86,3.78-5.43,2.87c-1.63-0.58-3.22-1.29-4.74-2.11c-2.47-1.33-4.97-3.28-5.42-6.05c-0.65-4,5.99-13.93,9.87-8.1
						C411.47,158.35,413,161.32,414.17,164.43z"/>
				</g>
				<path class="st40" d="M440.87,129.04c-2.31-2.27-7.28-7.09-9.67-8.99c-0.68-0.54-1.64-0.53-2.31,0.03
					c-5.58,4.64-10.91,9.43-15.97,14.37c5.39,4.12,10.35,8.81,14.67,14.03c5.37-6.36,11.15-13.82,13.47-16.84
					C441.66,130.85,441.58,129.74,440.87,129.04z"/>
				<path class="st24" d="M425.98,145.33c-1.55-1.57-3.14-3.1-4.75-4.61c-1.56-1.47-3.15-2.93-4.75-4.36
					c-0.69-0.61-1.68-2.09-2.76-2.81c-0.63,0.6-1.29,1.14-2,1.64c0.81,1.17,2.47,2.46,2.87,2.81c1.65,1.46,3.29,2.95,4.9,4.46
					c1.57,1.47,3.12,2.96,4.66,4.46c0.7,0.67,1.84,2.63,3.03,3.2c0.44-0.59,0.92-1.14,1.38-1.71
					C427.89,147.18,426.39,145.74,425.98,145.33z"/>
				<circle cx="411.42" cy="168.42" r="2.19"/>
			</g>
			<g>
				<g>
					<path d="M313.85,145.19l18.82,17.05c1.19,1.07,1.35,2.88,0.38,4.15l-2.04,2.68c-1.01,1.33-2.91,1.61-4.26,0.63l-20.71-15
						c-1.44-1.05-1.7-3.1-0.56-4.47l3.93-4.73C310.53,144.15,312.55,144.01,313.85,145.19z"/>
					<path d="M292.21,123.91c-0.73-0.47-1.69-0.36-2.29,0.26c-2.13,2.19-6.46,7.59-8.47,10.13c-0.62,0.78-0.56,1.89,0.14,2.6
						c3.87,3.91,16.05,16.08,22.92,21.47c0.73,0.57,1.79,0.5,2.43-0.17c3.85-4.01,7.42-8.64,10.79-13.73
						c0.52-0.78,0.36-1.84-0.37-2.43C309.51,135.61,301.1,129.58,292.21,123.91z"/>
					<path class="st40" d="M281.45,134.31c2.01-2.54,6.33-7.95,8.47-10.13c0.61-0.62,1.56-0.73,2.29-0.26
						c6.12,3.9,12.01,7.98,17.65,12.25c-4.83,4.77-9.16,10.04-12.79,15.76c-6.13-5.64-12.8-12.31-15.48-15.02
						C280.89,136.2,280.83,135.09,281.45,134.31z"/>
					<path class="st24" d="M298.27,148.59c1.34-1.75,2.73-3.47,4.13-5.18c1.37-1.66,2.76-3.3,4.16-4.92
						c0.6-0.69,1.41-2.29,2.39-3.14c0.7,0.51,1.43,0.97,2.19,1.38c-0.65,1.27-2.14,2.75-2.5,3.15c-1.46,1.66-2.89,3.34-4.3,5.04
						c-1.37,1.65-2.72,3.33-4.06,5.01c-0.61,0.76-1.5,2.84-2.6,3.56c-0.51-0.53-1.06-1.01-1.58-1.52
						C296.61,150.66,297.91,149.06,298.27,148.59z"/>
				</g>
				<g>
					<line class="st27" x1="312.96" y1="180.15" x2="317.91" y2="208.58"/>
					<g>
						<path d="M308.91,184.69h9.62v-16.25c0-1.38-1.12-2.5-2.5-2.5h-4.62c-1.38,0-2.5,1.12-2.5,2.5V184.69z"/>
						<path d="M308.69,185.66h10.07c0.47,0,0.85-0.38,0.85-0.85v-4.75c0-0.47-0.38-0.85-0.85-0.85h-10.07
							c-0.47,0-0.85,0.38-0.85,0.85v4.75C307.84,185.28,308.22,185.66,308.69,185.66z"/>
					</g>
					<polyline class="st27" points="342.2,208.56 312.96,182.07 283,208.56 					"/>
					<circle cx="341.95" cy="208.92" r="3.04"/>
					<circle cx="283.73" cy="208.92" r="3.04"/>
					<circle cx="317.91" cy="208.58" r="3.04"/>
					<path class="st39" d="M310.61,165.02c-0.22,0.57-0.42,1.15-0.61,1.73c-0.3,0.91-0.58,1.86-0.56,2.82
						c0.06,3.25,2.86,3.78,5.43,2.87c1.63-0.58,3.22-1.29,4.74-2.11c2.47-1.33,4.97-3.28,5.42-6.05c0.65-4-5.99-13.93-9.87-8.1
						C313.32,158.94,311.79,161.91,310.61,165.02z"/>
				</g>
				<circle cx="313.37" cy="169.01" r="2.19"/>
			</g>
			<g>
				<path class="st26" d="M226.3,243.57c25.46,26.93,52.24,56.55,56.65,93.35c0.21,1.79,0.31,3.81-0.88,5.17
					c-1.12,1.29-2.99,1.53-4.69,1.67c-46.5,3.62-93.46-16.4-125.95-49.85c-18.3-18.84-32.14-41.69-41.4-66.22
					c-4.71-12.46-12.09-60.19-8.96-66.18C119.44,126.28,210.65,227.01,226.3,243.57z"/>
				<path class="st28" d="M324.02,448c0.05-15.49,1.91-30.62,3.99-45.84c-0.43,0.04-0.85,0.05-1.28,0.09
					c-10.72,0.95-21.39,2.39-32.04,3.91c1.24,16.08,3.04,32.29,4.44,47.53c0.18,1.94,1.42,4.14,1.61,6.08
					c0.33,3.33-2.64,3.96-0.18,6.22c1.99,1.82,4.82,2.32,7.5,2.6C321.43,469.99,323.98,459.54,324.02,448z"/>
				<path class="st41" d="M364.67,468.6c0.08-0.06,0.15-0.12,0.23-0.18c1.94-1.66,2.45-4.77,1.13-6.96
					c-1.43-2.4-4.39-3.32-7.08-4.05c-4.76-2.47-11.6-3.16-16.79-4.58c-4.4-1.2-10.98-1.36-14.82-3.76c-1.44-0.9-2.63-2.37-2.74-4.06
					c-0.03-0.5-10.26,0.99-10.94,1.09c-5.39,0.85-10.27,2.51-15.46,3.93c-1.37,0.38,0.58,12.55,0.8,13.91
					c0.24,1.52,0.18,4.3,1.25,5.53c1,1.15,4.7,0.07,6.04,0.09c10.16,0.14,19.25,0.18,29.41,0c6.12-0.11,11.63,0.42,17.75,0.21
					C356.65,469.65,361.98,470.6,364.67,468.6z"/>
				<path class="st31" d="M236.62,310.56c14.41,0.33,28.82-0.53,43.92-0.43c3.03,0.02,6.52,0.3,8.27,2.77
					c1.19,1.68,1.19,3.91,1.11,5.97c-0.72,20.21-3.63,40.34-8.64,59.93c-2.45,9.57-5.42,19.59-2.9,29.13
					c4.75,17.99,28.5,25.77,45.6,18.45c21.45-9.18,24.93-27.77,29.06-48.45c4.7-23.54,7.89-47.38,9.52-71.34
					c1.09-15.98,1.03-33.5-8.89-46.08c-10.74-13.62-29.72-17.25-47.04-18.14c-25.97-1.34-52.14,1.35-77.31,7.88
					c-11.67,3.02-22.81,8.22-34.73,9.26c-8.76,0.77-22.46-0.32-27,9.68c-2.23,4.91,2,20.54,5.22,24.74
					c2.16,2.81,12.4,5.31,15.61,7.03c5.17,2.78,9.93,4.65,15.74,5.97C215.17,309.39,225.89,310.31,236.62,310.56z"/>
				<g>
					<path class="st26" d="M175.71,463.75c1.17-1.2,1.61-2.4,1.82-3.61c0.15-1.2,0.15-2.4,0.22-3.61l0.36-7.21
						c0.25-4.81,0.47-9.61,0.64-14.42c0.35-9.61,0.46-19.23,0.43-28.84c0-9.61-0.2-19.23-0.53-28.84
						c-0.4-9.61-0.89-19.23-1.92-28.84h7.58c-1.03,9.61-1.52,19.23-1.92,28.84c-0.33,9.61-0.53,19.23-0.53,28.84
						c-0.03,9.61,0.08,19.23,0.43,28.84c0.17,4.81,0.39,9.61,0.64,14.42l0.36,7.21c0.08,1.2,0.08,2.4,0.22,3.61
						c0.21,1.2,0.65,2.4,1.82,3.61H175.71z"/>
				</g>
				<path class="st28" d="M195.01,82.49c0.73-4.08,0.95-8.27,1.89-12.32c4.15-17.91,30.55-38.85,45.14-18.3
					c3.28,4.62,4.45,10.3,4.84,15.86c0.41,5.8,0.76,11.44-0.33,17.19c-0.1,0.51-0.21,1.03-0.5,1.45c-0.44,0.62-1.2,0.92-1.92,1.15
					c-1.76,0.56-3.58,0.93-5.42,1.1c0.67-0.06,2.28,1.07,3.04,1.27c1.02,0.26,2.13,0.38,3.18,0.6c0.19,0.6,0.38,1.3,0.03,1.83
					c-0.17,0.26-0.44,0.43-0.68,0.62c-2.14,1.74-1.76,4.88-2.91,7.15c-1.16,2.28-3.61,3.22-6.01,3.59
					c-4.83,0.75-11.23-0.82-14.66,3.64c-0.75,0.98-1.1,2.19-1.44,3.38c-3.3,11.45-7,22.78-11.11,33.97
					c-2.48,6.76-6.13,5.46-11.69,3.81c-4.92-1.46-9.92-3.04-14.31-5.77c-4.14-2.58-7.59-6.75-8.08-11.6
					c-0.48-4.73,1.84-9.25,4.09-13.44c3.9-7.28,7.8-14.55,11.71-21.83c1.54-2.88,3.1-5.78,4.09-8.89
					C194.41,85.49,194.74,84,195.01,82.49z"/>
				<path class="st35" d="M207.23,241.78c1.79-4.55,3.66-9.04,5.64-13.55c4.48-10.23,10.28-21.05,10.05-32.53
					c-0.15-7.78-6.32-11.05-8.54-17.7c-2.86-8.57-5.98-17.08-7.98-25.9c-1.02-4.53-1.8-9.19-2.74-13.79
					c-1.57-7.65,11.6-6.67,7.15-12.99c-2.99-4.25-9.18-7.29-13.47-9.98c-5.67-3.56-11.44-8.41-18.53-6.83
					c-3.6,0.8-6.86,2.72-9.9,4.82c-19.25,13.28-31.8,34.16-41.95,55.23c-5.54,11.51-10.57,23.34-13.59,35.75
					c-1.55,6.38-2.56,13.08-1.19,19.5c1.17,5.45,3.98,10.38,6.94,15.1c6.09,9.7,13.36,18.66,19.71,28.06
					c5.7,8.43,15.27,15.19,24.96,18.08c4.29,1.28,11.17,2.07,15.69,2.07c6.26,0.01,8.78-3.43,12.88-7.93
					c3.19-4.16,6.86-7.88,9.88-12.2c3.04-4.35,5.52-9.06,8.28-13.6c0.17-0.28,0.35-0.63,0.2-0.92c-0.16-0.32-0.59-0.38-0.94-0.39
					c-0.99-0.03-1.97-0.06-2.96-0.09c0.57-0.68,0.63-1.75,0.13-2.49c-0.5-0.74-1.5-1.1-2.35-0.83
					C205.47,246.34,206.34,244.05,207.23,241.78z"/>
				<path class="st28" d="M378.33,446.55c-0.26-15.49,1.32-30.65,3.1-45.91c-0.42,0.04-0.85,0.07-1.28,0.12
					c-10.7,1.16-21.34,2.81-31.96,4.54c1.55,16.05,3.67,32.22,5.37,47.43c0.22,1.94,1.5,4.11,1.73,6.05
					c0.4,3.32-2.57,4.01-0.06,6.22c2.02,1.78,4.87,2.22,7.55,2.45C376.17,468.58,378.52,458.08,378.33,446.55z"/>
				<path class="st41" d="M419.38,466.35c0.08-0.06,0.15-0.12,0.22-0.19c1.91-1.7,2.35-4.82,1-6.98c-1.48-2.37-4.45-3.23-7.16-3.92
					c-4.81-2.38-11.66-2.94-16.88-4.25c-4.42-1.11-11-1.15-14.89-3.47c-1.46-0.87-2.67-2.32-2.82-4.01
					c-0.05-0.58-23.43,2.62-25.83,5.93c-3.78,5.22-0.95,13.83,0.12,19.78c12.24,0.02,24.47-0.25,36.7-0.71
					c6.12-0.23,12.24-0.48,18.35-0.82C411.37,467.55,416.72,468.4,419.38,466.35z"/>
				<path class="st36" d="M366.06,427.83c5.56-1.96,10.69-5.1,14.82-9.34c5.63-5.78,9.49-13.47,9.88-21.53
					c0.26-5.46-1.03-10.87-2.42-16.15c-5.04-19.17-12.04-37.39-19.19-55.83c-2.6-6.7-2.71-13.59-5.18-20.32
					c-3.24-8.83-7.47-17.6-12.65-25.46c-5.88-8.91-13.84-17.02-24.03-20.23c-5.81-1.83-12.01-1.96-18.11-1.9
					c-42.68,0.44-84.73,9.64-126.43,18.8c-7.61,1.67-16.04,2.45-19.53,9.92c-5.87,12.54-4.53,34.04,4.14,44.96
					c5.07,6.38,12.19,10.89,19.76,13.93c16.85,6.76,35.69,6.53,53.7,4.24c20.78-2.64,41.12-7.87,61.41-13.08
					c8.17,10.3,6.97,21.73,10.27,33.76c3.75,13.64,7.7,27.23,12.13,40.67c4.39,13.3,10.12,18.96,24.65,19.89
					C354.93,430.52,360.69,429.72,366.06,427.83z"/>
				<path class="st26" d="M244.9,40.59c-0.66-0.24-1.33-0.45-2-0.65c-4.61-1.4-9.27-2.69-13.95-3.85c-8.05-2-13.08,4.51-20.94,4.33
					c-8.99-0.21-17.4,7.66-17.78,16.65c-17.37,2.16-28.9,15.77-36,30.88c-1.11,2.36-2.02,5-1.39,7.53c0.53,2.1,2.06,3.8,3.65,5.28
					c12.07,11.29,29.13,15.11,45.31,18.49c3.75,0.78,7.56,1.57,11.39,1.36c1.22-0.07,2.56-0.31,3.32-1.27
					c0.79-1.02,0.64-2.45,0.47-3.73c-1.67-12.69-0.85-26.05,4.79-37.55c4.18-8.53,11.21-15.65,19.95-19.48
					c3.55-1.56,7.73-1.77,9.38-5.68c1.52-3.61-0.35-8.85-3.47-10.95C246.79,41.36,245.86,40.94,244.9,40.59z"/>
				<path class="st41" d="M238.29,84.31c-1.93,6.47-8.74,10.15-15.21,8.22c-6.47-1.93-10.15-8.74-8.22-15.21
					c1.93-6.47,8.74-10.15,15.21-8.22C236.54,71.03,240.22,77.84,238.29,84.31z"/>
				<path class="st41" d="M228.37,53.4c-0.23-1.14-2.76-12.64-4.93-18.04c-1.48,0.96-3.17,1.68-4.78,2.26
					c-1.69,0.61-3.57,1.15-5.42,1.19c3.54,5.12,5.55,11.2,6.5,17.35c0.74,4.8,0.95,9.73,0.8,14.59c-0.08,2.57-1.99,6.25-0.62,8.57
					c2.49,4.23,9.14,1.67,9.61-2.67C230.39,68.65,229.98,61.17,228.37,53.4z"/>
				<path class="st26" d="M232.02,82.44c-0.9,3.01-4.06,4.72-7.07,3.82c-3.01-0.9-4.72-4.06-3.82-7.07c0.9-3.01,4.06-4.72,7.07-3.82
					S232.91,79.43,232.02,82.44z"/>
				<path class="st42" d="M203.46,192.9c2.91,3.87,6.54,7.52,10.9,10.04c1.92,1.11,3.94,2.01,5.99,2.84
					c0.55-2.79,1.07-5.59,1.52-8.4c-8.58-2.21-16.62-6.44-23.37-12.19C200.04,187.83,201.62,190.45,203.46,192.9z"/>
				<path class="st35" d="M234.11,203.12c9.21,3.8,16.21,7.1,26.42,6.93c13.97-0.23,27.94-0.46,41.91-0.68
					c4.28-0.07,10.13,0.72,13.92-1.51c6.9-4.06,5.74-16.1,2.13-21.91c-3.85-6.19-11.61-8.44-18.68-10.2
					c-9.44-2.35-18.7-4.77-27.84-8.12c-6.3-2.31-12.42-5.14-18.29-8.71c-18.52-11.28-32.8-27.46-51.91-37.97
					c-2.91,3.41-6.12,6.54-9.44,9.56c-0.6,3.19-1.66,6.34-2.38,9.52c-3.5,15.41,0.56,31.93,11.62,43.3
					c3.96,4.08,8.5,7.48,13.35,10.43C220.99,197.43,227.55,200.41,234.11,203.12z"/>
				<path class="st41" d="M280.02,337.52c-20.28-8.99-39.8-19.63-57.72-32.76c-9.74-7.14-18.72-15.07-27.6-23.24
					c-8.79-8.09-17.44-16.33-25.9-24.75c-29.75-29.61-51.67-56.37-67.73-95.27c-24.01,45.5-20.83,149.46,36.29,186.71
					c22.13,14.44,49.79,18.47,75.72,16.36c13.96-1.14,27.83-4.14,41.03-8.84c4.27-1.52,21.61-7.07,31.74-15.68
					C283.9,339.22,281.96,338.38,280.02,337.52z"/>
				<path class="st30" d="M301.01,337.94c-0.63-6.21-0.34-12.51,0.85-18.63"/>
				<path class="st30" d="M206.07,248.25c-1.09,2.29-3.28,3.83-5.46,5.12c-3.11,1.84-6.38,3.4-9.78,4.63"/>
				<path class="st30" d="M199.1,258.24c-4.17,2.55-8.92,4.13-13.78,4.6"/>
			</g>
			<path class="st43" d="M283.75,70.68l14.74-35.49c0.52-1.25,2.31-1.2,2.76,0.08l16.93,48.39c0.47,1.34,2.37,1.31,2.8-0.03
				l11.04-34.12c0.42-1.29,2.21-1.38,2.76-0.14l9.45,21.44c0.55,1.25,2.37,1.15,2.77-0.17l11.97-39.28c0.44-1.45,2.51-1.38,2.85,0.1
				l14.75,63.39c0.36,1.53,2.54,1.52,2.88-0.01l9.32-41.54c0.34-1.51,2.47-1.55,2.87-0.06l7.9,29.27c0.39,1.46,2.46,1.46,2.86,0
				l14.93-55.47c0.37-1.36,2.24-1.49,2.79-0.19l22.82,54.11"/>
		</g>
		<path class="st30" d="M352.92,469.08c-1.91-5.3-1.61-11.89-1.56-17.52"/>
		<path class="st40" d="M657.02,209.22H234.34v7.26h422.68c0.23,0,0.45-0.01,0.67-0.01v-7.24
			C657.46,209.23,657.24,209.22,657.02,209.22z"/>
		<line class="st44" x1="89.46" y1="469.08" x2="699.14" y2="469.08"/>
		<path class="st44" d="M278.88,475.65c52.36,0.56,104.72,0.63,157.08,0.23"/>
	</g>
</g>
</svg>
