<?xml version="1.0" encoding="utf-8"?>
<!-- Generator: Adobe Illustrator 24.3.0, SVG Export Plug-In . SVG Version: 6.00 Build 0)  -->
<svg version="1.1" id="Layer_1" xmlns="http://www.w3.org/2000/svg" xmlns:xlink="http://www.w3.org/1999/xlink" x="0px" y="0px"
	 viewBox="0 0 646 491" style="enable-background:new 0 0 646 491;" xml:space="preserve">
<style type="text/css">
	.st0{display:none;}
	.st1{display:inline;fill:#9C9C9C;}
	.st2{display:inline;}
	.st3{fill:#D3D3D4;}
	.st4{fill:#FFFFFF;}
	.st5{display:inline;fill:#FFC53D;}
	.st6{display:inline;fill:#262547;}
	.st7{font-family:'OpenSans-Regular';}
	.st8{font-size:11.5294px;}
	.st9{display:inline;fill:#050504;}
	.st10{font-size:5px;}
	.st11{fill:#050504;}
	.st12{opacity:0.51;fill:none;stroke:#818181;stroke-width:0.5;stroke-miterlimit:10;enable-background:new    ;}
	.st13{fill:none;stroke:#272546;stroke-miterlimit:10;}
	.st14{display:none;fill:none;stroke:#050504;stroke-miterlimit:10;}
	.st15{fill:#272546;}
	.st16{font-size:8.695px;}
	.st17{font-family:'NotoSans';}
	.st18{font-size:45.9984px;}
	.st19{fill:#111314;}
	.st20{font-size:38.4497px;}
	.st21{fill:#FFC53D;}
	.st22{font-size:10.8057px;}
	.st23{fill:#131834;}
	.st24{fill:none;stroke:#000000;stroke-miterlimit:10;}
	.st25{fill:#BF7862;}
	.st26{fill:none;stroke:#131834;stroke-width:4;stroke-linecap:round;stroke-miterlimit:10;}
	.st27{fill:none;stroke:#131834;stroke-width:0.5;stroke-miterlimit:10;}
	.st28{fill:#C4C1B1;}
	.st29{fill:#DE9983;}
	.st30{fill:none;stroke:#141740;stroke-width:3;stroke-miterlimit:10;}
	.st31{fill:#466680;}
	.st32{fill:#517694;}
	.st33{fill:#F0ECD8;}
	.st34{clip-path:url(#SVGID_2_);fill:#131834;}
	.st35{clip-path:url(#SVGID_4_);fill:#3688EA;}
	.st36{fill:#503444;}
	.st37{fill:#6BA7B3;}
	.st38{fill:#3688EA;}
	.st39{fill:#181D3D;}
	.st40{fill:none;stroke:#000000;stroke-width:0.5;stroke-linecap:round;stroke-miterlimit:10;}
	.st41{fill:none;stroke:#000000;stroke-width:0.5;stroke-miterlimit:10;}
</style>
<g id="BACKGROUND" class="st0">
	<rect x="-78" y="-9" class="st1" width="750" height="500"/>
</g>
<g id="OBJECTS">
	<g class="st0">
		<g class="st2">
			<path class="st3" d="M639,52.2H-29v-7.8c0-2.4,1.9-4.3,4.3-4.3c52.7,0,575.7,0,659.5,0c2.4,0,4.3,1.9,4.3,4.3L639,52.2L639,52.2z
				"/>
			<rect x="-28.9" y="52.5" class="st4" width="667.7" height="382"/>
		</g>
		<g class="st2">
			<path class="st4" d="M-18,46.1c0,1.2-1,2.2-2.2,2.2s-2.2-1-2.2-2.2s1-2.2,2.2-2.2S-18,44.9-18,46.1z"/>
			<path class="st4" d="M-8.9,46.1c0,1.2-1,2.2-2.2,2.2s-2.2-1-2.2-2.2s1-2.2,2.2-2.2S-8.9,44.9-8.9,46.1z"/>
			<circle class="st4" cx="-2.1" cy="46.1" r="2.2"/>
		</g>
	</g>
	<g class="st0">
		<rect x="563.9" y="64.6" class="st5" width="43.4" height="21.1"/>
		<text transform="matrix(0.9997 0 0 1 3.7988 79.7354)" class="st6 st7 st8">logo</text>
		<text transform="matrix(0.9997 0 0 1 388.3242 76.7598)" class="st9 st7 st10">home</text>
		<text transform="matrix(0.9997 0 0 1 506.165 76.7598)" class="st9 st7 st10">contact us</text>
		<g class="st2">
			<text transform="matrix(0.9997 0 0 1 574.3242 76.6177)" class="st11 st7 st10">try now</text>
		</g>
		<text transform="matrix(0.9997 0 0 1 444.1006 76.7598)" class="st9 st7 st10">podcasts</text>
		<g class="st2">
			<path class="st12" d="M286.7,82.8H148.4V67.6h138.3c1.2,0,2.2,1,2.2,2.2v10.8C288.9,81.8,287.9,82.8,286.7,82.8z"/>
			<path class="st3" d="M149.3,83.1h-22.9c-0.8,0-1.4-0.6-1.4-1.4V68.8c0-0.8,0.6-1.4,1.4-1.4h22.9V83.1z"/>
			<g>
				<g>
					<path class="st13" d="M138.7,74.1c0,1.4-1.2,2.6-2.6,2.6s-2.6-1.2-2.6-2.6s1.2-2.6,2.6-2.6C137.5,71.5,138.7,72.6,138.7,74.1z"
						/>
				</g>
				<line class="st13" x1="137.9" y1="75.9" x2="140.6" y2="78.5"/>
			</g>
		</g>
	</g>
	<polyline class="st14" points="607.8,237.5 617,245.5 607.8,254.7 	"/>
	<g>
		<text transform="matrix(1 0 0 1 402.6064 264.5067)" class="st15 st7 st16">Lorem ipsum dolor sit amet, consectetuer  </text>
		<text transform="matrix(1 0 0 1 402.6064 274.9367)" class="st15 st7 st16">adipiscing elit, sed diam nonummy nibh  </text>
		<text transform="matrix(1 0 0 1 402.6064 285.3767)" class="st15 st7 st16">euismod tincidunt ut laoreet dolore</text>
		<g>
			<text transform="matrix(1 0 0 1 400.9734 196.112)" class="st11 st17 st18">Podcast  </text>
			<text transform="matrix(1 0 0 1 400.9734 232.482)" class="st19 st17 st20">concept</text>
			<text transform="matrix(1 0 0 1 531.7434 232.482)" class="st19 st17 st18"> </text>
		</g>
		<g>
			<rect x="404.9" y="309.4" class="st21" width="76.8" height="25.7"/>
			<text transform="matrix(1 0 0 1 424.7255 325.7606)" class="st19 st7 st22">Sing up</text>
		</g>
	</g>
	<g>
		<path class="st23" d="M175.3,67.7c-0.2,1.9-0.4,3.7-0.6,5.6c2.6-0.4,5.2-0.8,7.9-1.1c-2.9-2.1-4.9-6.8-6.4-10.6
			C175.9,63.6,175.5,65.6,175.3,67.7z"/>
		<line class="st24" x1="550.2" y1="457.1" x2="550.2" y2="202.4"/>
		<line class="st24" x1="202.2" y1="457.1" x2="202.2" y2="202.4"/>
		<path class="st25" d="M178.4,96.7c0,0.1,0,0.1,0,0.2"/>
		<line class="st26" x1="64.2" y1="455.9" x2="157.4" y2="455.9"/>
		<path class="st27" d="M421.9,165.8c0.5-6.4-0.7-9.6,0.2-13.4"/>
		<g>
			<ellipse class="st28" cx="240.1" cy="120.4" rx="21.1" ry="24.1"/>
			<g>
				<path class="st29" d="M347.3,436c0.9-3.4,1.5-6.9,2.1-10.3c1.6-8.4,3.1-16.8,3.9-25.3c0.4-4.2,0.5-8.6-1.1-12.6
					c-1.6-3.9-5.3-7.3-9.5-7.3c-6.1,0.1-10.8,5.5-13,10.6c-1.8,4-2.5,8.4-3.2,12.8c-1.5,10.5-2.3,21-3,31.6
					c-0.2,2.7-0.3,5.6,1.2,7.9c1.3,1.9,3.5,3,5.7,3.7c4.7,1.3,11.8,1.3,14.2-3.6C345.7,441.2,346.6,438.7,347.3,436z"/>
				<g>
					<g>
						<path class="st23" d="M452.3,456.4c1.8-2.5,1.9-5,2-7.4l0.3-7.4c0.2-5,0.4-9.9,0.5-14.9c0.3-9.9,0.3-19.8,0.3-29.7
							c0-9.9-0.2-19.8-0.5-29.7c-0.3-9.9-0.8-19.8-1.6-29.7h7.6c-0.9,9.9-1.3,19.8-1.6,29.7c-0.3,9.9-0.5,19.8-0.5,29.7
							c-0.1,9.9,0,19.8,0.3,29.7c0.1,5,0.3,9.9,0.5,14.9l0.3,7.4c0.1,2.5,0.2,5,2,7.4H452.3z"/>
					</g>
					<line class="st26" x1="408.4" y1="456.3" x2="504.5" y2="456.3"/>
				</g>
				<g>
					<path class="st29" d="M306.9,432.6c0.9-3.4,1.5-6.9,2.1-10.3c1.6-8.4,3.1-16.8,3.9-25.3c0.4-4.2,0.5-8.6-1.1-12.6
						c-1.6-3.9-5.3-7.3-9.5-7.3c-6.1,0.1-10.8,5.5-13,10.6c-1.8,4-2.5,8.4-3.2,12.8c-1.5,10.5-2.3,21-3,31.6
						c-0.2,2.7-0.3,5.6,1.2,7.9c1.3,1.9,3.5,3,5.7,3.7c4.7,1.3,11.8,1.3,14.2-3.6C305.3,437.8,306.2,435.3,306.9,432.6z"/>
					<path class="st23" d="M307.4,445.6c-0.8,1.9-2,3.6-3.9,4.4c-1,0.4-2,0.5-3.1,0.5c-9.4,0.3-18.8,0.1-28.2,0
						c-11-0.2-21.9,0.5-32.8-0.8c-0.1-3.2,2-6.1,4.7-7.8s5.9-2.5,9-3.3c5.6-1.4,11.2-3.1,16.7-4.9c4.8-1.6,8.7-2.5,11.3-7.1
						c0.2-0.4,2.3-5.6,1.3-5.6c8.5,0.8,17.1,1.5,25.7,2.3c0.3,0,0.5,0,0.7,0.2c0.2,0.2,0.3,0.5,0.3,0.9c0.4,5.4,0.3,10.8-0.4,16.2
						C308.4,442.1,308.1,444,307.4,445.6z"/>
					<path class="st30" d="M490.9,201.1c-33.3-7.2-70.9-13.1-100.9,0.3c-19.5,8.8-32.7,25.1-36.4,42.5s1.6,35.6,12.9,50.9"/>
					<path class="st23" d="M462.7,348.9c12.3-2.4,24.4-5.6,36.2-9.7c27.4-9.6,49.5-38.4,58.3-65.3c9.2-28.3,12.5-64.1,7.6-93.4
						c-3.2-18.9-13.9-38.1-32-44.1c-13-4.4-27.4-1.3-40.3,3.3c-17.5,6.1-27.4,14.7-35.1,31.4c-8.2,17.9-14.2,36.7-24.5,53.6
						c-14.4,23.7-36.9,42.4-62.9,52.1c-17.1,6.4-50.4,11-43.8,36.1c7.2,27.4,36.1,36.8,61.5,39.4C412.6,354.7,438,353.6,462.7,348.9
						z"/>
					<path class="st23" d="M354.9,305.6c-10,2.3-20.2,3.3-30.2,4.8c-5.3,0.8-16.2,3.8-21.2,0.1c-6.3-4.7,4-7.4,8.7-10.1
						c8.1-4.5,16.3-8.8,24.5-13.2c7.5-4.1,17.2-12.7,24.9-4.4c4.9,5.4,5.5,14,6.1,20.9C363.3,304,359.1,304.7,354.9,305.6z"/>
					<path class="st31" d="M462.6,253.5c-2-0.5-4-0.9-5.6-1.3c-17.1-4.4-34.8-6.3-52.4-7.3c-20.1-1.1-40.6-0.8-59.6,5.8
						c-31.2,10.9-45,37.5-53.3,67.6c-8.4,30.3-14.3,61.2-18.9,92.3c13.4,3.6,26.7,7.6,40,11.6c1.2-3,1.9-6.4,2.6-8.5
						c2.5-6.9,4.8-13.8,7-20.8c4.4-13.5,8.6-27.1,13.6-40.5c5-13.2,10.8-26.3,19.6-37.3c6.3-7.9,13.8-14.6,20.6-22
						c6.6-7.1,16.9-7.5,26.1-9c24.1-3.7,49-4.3,72.2-12.3c5.9-2,8.1-7.1,3.2-12C474.4,256.4,468.1,254.7,462.6,253.5z"/>
					<path class="st23" d="M347.8,449c-0.8,1.9-2,3.6-3.9,4.4c-0.5,0.2-1,0.3-1.5,0.4c-7.5,1.1-15.2,0.8-22.8,0.4
						c-13.4-0.8-26.6,0.5-39.9-1c-0.1-3.2,2-6.1,4.7-7.8s5.9-2.5,9-3.3c5.6-1.4,11.2-3.1,16.7-4.9c4.8-1.6,8.7-2.5,11.3-7.1
						c0.2-0.3,1.4-3.3,1.5-4.8c0-0.5,0.4-0.8,0.9-0.8l24.5,2.2c0.3,0,0.5,0,0.7,0.2c0.2,0.2,0.3,0.5,0.3,0.9
						c0.4,5.4,0.3,10.8-0.4,16.2C348.8,445.5,348.5,447.3,347.8,449z"/>
					<path class="st32" d="M515.8,269.8c-4.6-14.5-25.4-17.9-38.3-16.8c-26.8,2.1-53.6,2.8-80.2,5c-21.7,1.8-45.2,6.5-60.1,23.7
						c-13.1,15.2-16.1,36.4-18,56.3c-1.4,15.1-0.4,49.2,0.6,74.9c6.8,0.7,13.6,1.2,20.5,1.5c4,0.1,8,0.4,11.7,1.1
						c1-3.9,2.1-7.5,3.1-10.8c2.3-6.8,23.9-82.4,23.2-82.6c22,3.5,44.3,4.4,66.5,2.6c15.7-1.3,31.6-4,45.3-11.7
						C503.4,305.6,521.1,286.6,515.8,269.8z"/>
					<path class="st33" d="M522.7,264.3c-0.5,1.6-1.2,3.1-2,4.1c-2.5,3-8.2,1.9-11.8,2c-10.3,0.2-20.7-0.5-30.5-3.9
						c-6.1-2.1-11.7-5.3-17.5-8c-6.3-3-12.8-5.6-19.5-7.8c-5.1-1.6-13.6-4.5-19.7-4.5c0.8-3.9,2.2-7.4,3-11.3
						c2.2-10.4,1.6-21.9,1.6-32.5c0-11.8-1.1-23.7-4.5-35.1c-4.3-14.2-12.9-34.6-3.5-48.6c8.8-13.1,35-13.9,48.8-15.2
						c3.7-0.3,7.5-0.7,11.2,0c4.5,0.8,8.7,3,12.7,5.3c21.1,12.6,23.6,33,30,55c3.2,11,8.1,21.3,11.3,32.3c5.8,20.1-0.4,40.4-7,59.5
						C524.3,257.9,523.7,261.3,522.7,264.3z"/>
					<g id="XMLID_13_">
						<g id="XMLID_14_">
							<path id="XMLID_15_" class="st25" d="M467,82.5c0.2,2-4,6.5-5.2,7.9c-2,2.2-4.3,4-7.1,5.1c-7.3,2.9-15,3.2-20.7-2.9
								c-2.7-2.9-4.6-6.4-6.1-10.1c-2.4-5.5-5.7-20.8-4.2-26.7c1.4-5.3,7-0.7,12.2-2.5c4.5-1.5,7.9-2.9,12.7-2.1
								c4.3,0.7,8.4,2.9,11.1,6.3c0.7,0.9,1.4,1.9,2,2.8c1.4,3,2.7,6.1,3.7,9.3c0.8,2.7,1.1,5.4,1.5,8.1
								C466.9,79.4,466.9,80.9,467,82.5z"/>
						</g>
					</g>
					<g id="XMLID_11_">
						<g id="XMLID_12_">
							<path class="st25" d="M470.1,117.7c-6.7,4.7-15.7,6.3-23.8,6c-1.8-0.1-3.6-0.2-5.4-0.5c4.2-4.1,5.5-7.3,4.7-13.4
								c-0.5-3.2-1.5-6.2-2.8-9.1c-0.5-1-4.4-7.5-4-8.2c0.1-0.2,0.3-0.4,0.4-0.6c1-0.9,2.4-0.9,3.7-0.9c4.9-0.1,9.5-1.6,13.6-4.5
								c1.9-1.4,3.6-3,5.3-4.6c0.9-1,2.7-4.3,4.1-4.4c0.1,0,0.2,0.1,0.3,0.1c1.7,6.8,1.8,13.1,5.9,19.1c1.5,2.3,3.4,4.3,5.5,5.8
								c1.1,1.1,2.5,1.8,4.3,2.2C479,109.8,475,114.3,470.1,117.7z"/>
						</g>
					</g>
					<path class="st23" d="M469,83.1c-1.2,1.8-2.6,2.5-3.6-1.1c-1.2-4.4-3.2-9.8-2.6-14.4c0.1-0.6,0.2-1.2,0.1-1.8s-0.4-1.2-1-1.4
						c-0.9-0.3-1.8,0.5-2.2,1.4s-0.5,1.9-1.2,2.6c-0.3,0.3-0.7,0.6-1.2,0.7c-1.6,0.4-3.1-1.2-3.5-2.8c-0.4-1.6,0-3.3,0.2-4.9
						c0.1-1.3,0.1-3.1-0.7-4.1c-1-1.1-2.7-0.9-4.1-0.7c-3.3,0.5-6.2,2.3-9.1,3.8c-5.6,2.9-11.7,5.1-18,5c-1.7,0-3.8-0.6-4.2-2.2
						c-0.2-0.7,0-1.5,0.2-2.1c1.5-4.2,5.3-7.1,9-9.6c-3.1,0.6-6.2,0.6-9.3,0c-0.4-0.1-0.8-0.2-1.1-0.5c-0.6-0.7,0.2-1.8,1-2.4
						c4.9-3.4,10.8-5.4,16.7-5.6c-1.4-0.3-2.7-0.8-4-1.4c-0.2-0.1-0.5-0.2-0.6-0.5c-0.4-0.6,0.2-1.3,0.8-1.7c1.4-1,3.1-1.4,4.7-1.8
						c4.9-1.2,9.9-1.7,15-1.6c0.4,0,0.8,0,1.2,0c7.7,0.3,15,3,19.1,9.9c3.6,6.2,4.2,13.9,3.5,20.9c-0.5,4.1-1.5,8.2-3,12
						C470.7,79.9,469.9,81.8,469,83.1z"/>
					<g id="XMLID_8_">
						<g id="XMLID_9_">
							<path class="st25" d="M469.2,68.5c-0.9-2.8-3.7-5.5-6.9-4.9c-1.4,0.2-2.7,1.2-3.2,2.6c-0.3,1.1-0.1,2.2,0.2,3.2
								c0.2,0.9,0.3,1.7,0.7,2.6c0.4,1,0.9,2,1.3,3c0.1,0.2,0.9,3,0.8,3c1.3,0.2,2.8-0.1,3.8-0.7C469,75.6,470.3,71.8,469.2,68.5z"
								/>
						</g>
					</g>
					<path class="st33" d="M422.3,114.1c-15.9,8.4-29.5,20.6-42.2,33.2c-6.3,6.2-13.5,11.5-20.1,17.4c-7.1,6.3-14.3,14.1-13.4,24.3
						c0.5,5.1,4,10.1,9,10.9c2.1,0.3,4.2-0.1,6.3-0.3c5.9-0.6,11.4,0.5,16.5-3.3c4.4-3.4,9.2-6.3,14.1-8.8c2.8-1.4,5.6-2.8,8-4.8
						c1.8-1.5,3.2-3.2,4.8-4.8c5.1-4.9,11.8-7.9,16.7-13c4.1-4.3,8.9-7.9,12.6-12.6c3.7-4.6,6.8-9.7,9-15.1c0.6-1.5,1.2-3.2,1.1-4.8
						c-0.1-1.3-0.6-2.6-1.1-3.8c-0.4-0.9-0.8-1.8-1.4-2.5c-0.5-0.6-1.1-1-1.6-1.6c-1.3-1.5-1.2-3.8-0.8-5.7c0.4-1.9,1.2-3.8,1.2-5.8
						C441,103,426.2,112,422.3,114.1z"/>
					<path class="st25" d="M433.2,203.1c3.4,0.1,6.8,0.2,10.1,0.3c8.2,0.3,17.8,2.5,25.7-0.1c0.3-0.1,0.7-0.3,0.8-0.6
						c0.2-0.3,0-0.7-0.1-1c-3.7-9.7-14-16.2-24-15.1c-3.8,0.4-7.4,2.1-11.1,2.3c-3.3,0.1-7-0.4-10.3-0.8c-8.3-1-16.4-3.5-24.6-5.1
						c-7-1.4-14.2-2.1-21.4-2.1c-5.8,0-11.7,0.4-17.1,2.6c-7.5,3.1-18.4,15.4-4.8,18.6c5,1.2,10.1,0.5,15.2,0.8
						c10.8,0.5,21.6,0.1,32.4,0C413.8,202.7,423.5,202.9,433.2,203.1z"/>
					<path class="st23" d="M464.2,74.2c1.6-0.9,2.3-3.1,1.4-4.7c-0.8-1.6-3.1-2.3-4.7-1.5"/>
					<g>
						<g>
							<defs>
								<path id="SVGID_1_" d="M427.5,131.4c0-0.2-0.1-0.4-0.1-0.7c1.5-5.3,9-5.2,13.2-7.4c0.9-0.4,1.6-1,2.2-1.6
									c0.1-0.1,0.2-0.2,0.2-0.2c1.3-1.4,2.1-3.3,2.5-5.3c1.3-8.5-3.1-16.1-6.9-23.6c0.1-0.2,0.3-0.4,0.4-0.6
									c1-0.9,2.4-0.9,3.8-0.9c4.9-0.1,9.5-1.6,13.6-4.5c1.9-1.4,3.6-3,5.3-4.6c0.9-1,2.7-4.3,4.1-4.4c0.1,0,0.2,0.1,0.3,0.1
									c1.7,6.8,1.8,13.1,5.9,19.1c1.5,2.3,3.4,4.3,5.5,5.8c1.1,1.1,2.5,1.9,4.4,2.2c0.5,0.1,1,0.1,1.5,0.1c0.2,0,0.4,0.1,0.6,0.1
									c0.2,0,0.4,0,0.6-0.1c3.1-0.1,6.2-0.8,8.6,0.9c1.1,0.8,1.8,2.1,2.3,3.4c4,9.5,1.2,21.8-3.8,30.3
									c-3.8,6.5-10.6,12.5-17.9,14.6c-7,1.9-14.3,0.3-20.9-2.1c-2.9-1.1-5.7-2.1-8.3-3.3c-8-3.7-14.9-7.8-17-16.8
									C427.6,131.7,427.5,131.5,427.5,131.4z"/>
							</defs>
							<clipPath id="SVGID_2_">
								<use xlink:href="#SVGID_1_"  style="overflow:visible;"/>
							</clipPath>
							<path class="st34" d="M454,94.7c-0.2,0.1-0.4,0.2-0.7,0.3c-4.2,1.7-8.7,2.8-13.1,2.1c-1.1,0.5-0.7,1.4-0.2,3
								c0.8,2.3,1.5,4.6,2.1,6.9c4-4.1,8.1-8.3,12.1-12.4C454.2,94.6,454.1,94.6,454,94.7z"/>
						</g>
					</g>
					<path class="st33" d="M517.4,123.5c4,4.6,8.6,10.8,10.5,16.7c2.5,7.7,3.2,15.8,4.2,23.8c0.9,6.5,2,12.9,3.3,19.3
						c1.2,5.8,3.2,9.8,5.4,15.1c4.9,11.8,8.7,25.5,7.4,38.4c-0.2,1.7-0.4,3.4-1.3,4.8c-1.3,2.3-3.8,3.6-6.1,4.8
						c-4.5,2.2-9.2,4.3-14.2,5.1c-5,0.8-10.3,0-14.4-2.9c-3.2-2.3-5.4-5.8-7.4-9.2c-5.3-8.7-11-15.7-12.9-25.8
						c-1.3-7.1-2.7-14.2-4-21.2c-5.4-28.9-10.8-58.8-4.7-87.6c0.5-2.4,21.6,7.9,23.4,9.2C510.5,116.4,514.2,119.8,517.4,123.5z"/>
					<path class="st27" d="M494.2,160.5c2.8,10.4-0.4,21.5-0.1,32.2c0.2,8.4,0.1,17.4,2.3,25.6c1.6,6.1,2.7,13.8,7.6,18.5"/>
					<path class="st25" d="M514.8,224.2c-2,1.6-4,3.2-6,4.8c-8,6.1-17.1,10.6-26.3,14.4c-4.4,1.8-8.8,3.2-13.2,4.8
						c-4.7,1.7-8.5,4.2-13.7,4.4c-4.6,0.2-9.2-0.6-13.8-1.2c-2.3-0.3-4.7-0.5-7-0.4c-1.2,0-2.4,0.1-3.6,0.3c-1,0.1-1.7,0.6-2.7,0.8
						c-0.7,0.2-1.4,0.1-2.1,0.2c-0.7,0.1-1.5,0.3-1.9,0.8c-1.5,1.9,2.1,2.6,3.2,2.6c2.1-0.1,4.3-0.5,6.4,0c-4.9,2-9.7,4.2-14.5,6.5
						c-3.3,1.6-7.1,4.2-6.7,7.9c0.5,4.5,6.5,6,10.2,6.2c5.5,0.4,11-0.3,16.2-1.9c3.2-1,6.2-2.3,9.5-3c3.4-0.8,7-0.8,10.5-0.9
						c12.9-0.5,25.4-2.4,38-4.9c14.1-2.8,29.8-6.8,40.9-16.5c3.5-3.1,6.4-7.2,7.2-11.8c0.8-4.4-0.3-9-2.5-12.9
						c-1.8-3.1-4.4-6-7.8-6.9C528.4,215.8,520,220.2,514.8,224.2z"/>
					<path class="st4" d="M441,83.9c-0.7,1.9-2.3,3.2-4,3.5c-1.7,0.2-3.5-0.6-4.6-2.3"/>
					<path class="st30" d="M561.8,252.8c-33.3-7.6-70.9-13.8-100.9,0.4c-19.5,9.2-32.7,26.3-36.4,44.5c-3.7,18.2,0,34.2,11.3,50.2"
						/>
					<g>
						<g>
							<defs>
								<path id="SVGID_3_" d="M462.7,348.9c12.3-2.4,24.4-5.6,36.2-9.7c27.4-9.6,49.5-38.4,58.3-65.3c9.2-28.3,12.5-64.1,7.6-93.4
									c-3.2-18.9-13.9-38.1-32-44.1c-13-4.4-27.4-1.3-40.3,3.3c-17.5,6.1-27.4,14.7-35.1,31.4c-8.2,17.9-14.2,36.7-24.5,53.6
									c-14.4,23.7-36.9,42.4-62.9,52.1c-17.1,6.4-50.4,11-43.8,36.1c7.2,27.4,36.1,36.8,61.5,39.4
									C412.6,354.7,438,353.6,462.7,348.9z"/>
							</defs>
							<clipPath id="SVGID_4_">
								<use xlink:href="#SVGID_3_"  style="overflow:visible;"/>
							</clipPath>
							<path class="st35" d="M374.3,357.4c5.2-1.3,10.4-2.6,15.6-4.1c11.3-3.2,22.3-7.2,32.9-12.4c20.3-9.9,40.1-21.2,57.3-35.9
								c16-13.6,30.4-29.2,41.8-46.9c5.5-8.6,10-17.6,14.4-26.8c4.1-8.7,8.3-17.3,12.1-26.2c6.6-15.5,13.2-32.9,12.5-50.1
								c0-0.2,0.1-0.3,0.2-0.5c11.8,35.8,15.1,74.9,5.3,111.3s-33.5,69.6-66.9,87.1c-23.3,12.2-50,16.3-76.3,18
								c-13.1,0.8-46.9,4.8-53-11.4c0.9-0.4,1.8-0.9,2.8-1.4C373.4,357.9,373.9,357.6,374.3,357.4z"/>
						</g>
					</g>
					<path class="st27" d="M379.2,324c0.9-6.9-0.4-12.9,0.5-19.8"/>
				</g>
			</g>
			<g>
				<path d="M340.1,134.9l-16.5,19.3c-1,1.2-1,3,0.1,4.2l2.4,2.4c1.2,1.2,3.1,1.2,4.3,0.1l18.7-17.5c1.3-1.2,1.3-3.3,0-4.5l-4.5-4.2
					C343.3,133.5,341.2,133.6,340.1,134.9z"/>
				<path d="M358.9,111.1c0.7-0.6,1.6-0.6,2.3,0c2.4,1.9,7.4,6.7,9.7,9c0.7,0.7,0.8,1.8,0.2,2.6c-3.4,4.4-13.9,18-20,24.2
					c-0.6,0.7-1.7,0.7-2.4,0.1c-4.3-3.5-8.5-7.6-12.4-12.3c-0.6-0.7-0.6-1.8,0.1-2.5C343.2,124.9,350.8,117.8,358.9,111.1z"/>
				<g>
					<line class="st24" x1="341.8" y1="170.6" x2="336.9" y2="199"/>
					<g>
						<path d="M345.9,175.1h-9.6v-16.2c0-1.4,1.1-2.5,2.5-2.5h4.6c1.4,0,2.5,1.1,2.5,2.5V175.1z"/>
						<path d="M346.1,176.1H336c-0.5,0-0.9-0.4-0.9-0.9v-4.8c0-0.5,0.4-0.9,0.9-0.9h10.1c0.5,0,0.9,0.4,0.9,0.9v4.8
							C347,175.7,346.6,176.1,346.1,176.1z"/>
					</g>
					<polyline class="st24" points="312.6,199 341.8,172.5 371.8,199 					"/>
					<path d="M315.9,199.3c0,1.7-1.4,3-3,3c-1.7,0-3-1.4-3-3s1.4-3,3-3C314.5,196.3,315.9,197.6,315.9,199.3z"/>
					<circle cx="371.1" cy="199.3" r="3"/>
					<circle cx="336.9" cy="199" r="3"/>
					<path class="st36" d="M344.2,155.4c0.2,0.6,0.4,1.1,0.6,1.7c0.3,0.9,0.6,1.9,0.6,2.8c-0.1,3.2-2.9,3.8-5.4,2.9
						c-1.6-0.6-3.2-1.3-4.7-2.1c-2.5-1.3-5-3.3-5.4-6.1c-0.6-4,6-13.9,9.9-8.1C341.5,149.4,343,152.3,344.2,155.4z"/>
				</g>
				<path class="st37" d="M370.9,120c-2.3-2.3-7.3-7.1-9.7-9c-0.7-0.5-1.6-0.5-2.3,0c-5.6,4.6-10.9,9.4-16,14.4
					c5.4,4.1,10.4,8.8,14.7,14c5.4-6.4,11.1-13.8,13.5-16.8C371.7,121.9,371.6,120.7,370.9,120z"/>
				<path class="st21" d="M356,136.3c-1.5-1.6-3.1-3.1-4.8-4.6c-1.6-1.5-3.1-2.9-4.8-4.4c-0.7-0.6-1.7-2.1-2.8-2.8
					c-0.6,0.6-1.3,1.1-2,1.6c0.8,1.2,2.5,2.5,2.9,2.8c1.6,1.5,3.3,2.9,4.9,4.5c1.6,1.5,3.1,3,4.7,4.5c0.7,0.7,1.8,2.6,3,3.2
					c0.4-0.6,0.9-1.1,1.4-1.7C357.9,138.2,356.4,136.7,356,136.3z"/>
				<circle cx="341.4" cy="159.4" r="2.2"/>
			</g>
			<g>
				<g>
					<path d="M243.9,136.2l18.8,17.1c1.2,1.1,1.4,2.9,0.4,4.1l-2,2.7c-1,1.3-2.9,1.6-4.3,0.6l-20.7-15c-1.4-1.1-1.7-3.1-0.6-4.5
						l3.9-4.7C240.5,135.1,242.5,135,243.9,136.2z"/>
					<path d="M222.2,114.9c-0.7-0.5-1.7-0.4-2.3,0.3c-2.1,2.2-6.5,7.6-8.5,10.1c-0.6,0.8-0.6,1.9,0.1,2.6c3.9,3.9,16,16.1,22.9,21.5
						c0.7,0.6,1.8,0.5,2.4-0.2c3.9-4,7.4-8.6,10.8-13.7c0.5-0.8,0.4-1.8-0.4-2.4C239.5,126.6,231.1,120.6,222.2,114.9z"/>
					<path class="st37" d="M211.5,125.3c2-2.5,6.3-7.9,8.5-10.1c0.6-0.6,1.6-0.7,2.3-0.3c6.1,3.9,12,8,17.6,12.2
						c-4.8,4.8-9.2,10-12.8,15.8c-6.1-5.6-12.8-12.3-15.5-15C210.9,127.2,210.8,126.1,211.5,125.3z"/>
					<path class="st21" d="M228.3,139.6c1.3-1.8,2.7-3.5,4.1-5.2c1.4-1.7,2.8-3.3,4.2-4.9c0.6-0.7,1.4-2.3,2.4-3.1
						c0.7,0.5,1.4,1,2.2,1.4c-0.6,1.3-2.1,2.8-2.5,3.1c-1.5,1.7-2.9,3.3-4.3,5c-1.4,1.6-2.7,3.3-4.1,5c-0.6,0.8-1.5,2.8-2.6,3.6
						c-0.5-0.5-1.1-1-1.6-1.5C226.6,141.7,227.9,140.1,228.3,139.6z"/>
				</g>
				<g>
					<line class="st24" x1="243" y1="171.1" x2="247.9" y2="199.6"/>
					<g>
						<path d="M238.9,175.7h9.6v-16.2c0-1.4-1.1-2.5-2.5-2.5h-4.6c-1.4,0-2.5,1.1-2.5,2.5V175.7z"/>
						<path d="M238.7,176.7h10.1c0.5,0,0.9-0.4,0.9-0.9v-4.8c0-0.5-0.4-0.9-0.9-0.9h-10.1c-0.5,0-0.9,0.4-0.9,0.9v4.8
							C237.8,176.3,238.2,176.7,238.7,176.7z"/>
					</g>
					<polyline class="st24" points="272.2,199.6 243,173.1 213,199.6 					"/>
					<circle cx="272" cy="199.9" r="3"/>
					<circle cx="213.7" cy="199.9" r="3"/>
					<circle cx="247.9" cy="199.6" r="3"/>
					<path class="st36" d="M240.6,156c-0.2,0.6-0.4,1.1-0.6,1.7c-0.3,0.9-0.6,1.9-0.6,2.8c0.1,3.2,2.9,3.8,5.4,2.9
						c1.6-0.6,3.2-1.3,4.7-2.1c2.5-1.3,5-3.3,5.4-6.1c0.6-4-6-13.9-9.9-8.1C243.3,149.9,241.8,152.9,240.6,156z"/>
				</g>
				<circle cx="243.4" cy="160" r="2.2"/>
			</g>
			<g>
				<path class="st23" d="M156.3,234.6c25.5,26.9,52.2,56.5,56.7,93.4c0.2,1.8,0.3,3.8-0.9,5.2c-1.1,1.3-3,1.5-4.7,1.7
					c-46.5,3.6-93.5-16.4-125.9-49.9c-18.3-18.8-32.1-41.7-41.4-66.2c-4.7-12.5-12.1-60.2-9-66.2C49.4,117.3,140.6,218,156.3,234.6z
					"/>
				<path class="st25" d="M254,439c0-15.5,1.9-30.6,4-45.8c-0.4,0-0.9,0-1.3,0.1c-10.7,1-21.4,2.4-32,3.9c1.2,16.1,3,32.3,4.4,47.5
					c0.2,1.9,1.4,4.1,1.6,6.1c0.3,3.3-2.6,4-0.2,6.2c2,1.8,4.8,2.3,7.5,2.6C251.4,461,254,450.5,254,439z"/>
				<path class="st38" d="M294.7,459.6c0.1-0.1,0.1-0.1,0.2-0.2c1.9-1.7,2.5-4.8,1.1-7c-1.4-2.4-4.4-3.3-7.1-4
					c-4.8-2.5-11.6-3.2-16.8-4.6c-4.4-1.2-11-1.4-14.8-3.8c-1.4-0.9-2.6-2.4-2.7-4.1c0-0.5-10.3,1-10.9,1.1
					c-5.4,0.9-10.3,2.5-15.5,3.9c-1.4,0.4,0.6,12.5,0.8,13.9c0.2,1.5,0.2,4.3,1.2,5.5c1,1.1,4.7,0.1,6,0.1c10.2,0.1,19.2,0.2,29.4,0
					c6.1-0.1,11.6,0.4,17.8,0.2C286.6,460.6,292,461.6,294.7,459.6z"/>
				<path class="st28" d="M166.6,301.6c14.4,0.3,28.8-0.5,43.9-0.4c3,0,6.5,0.3,8.3,2.8c1.2,1.7,1.2,3.9,1.1,6
					c-0.7,20.2-3.6,40.3-8.6,59.9c-2.5,9.6-5.4,19.6-2.9,29.1c4.8,18,28.5,25.8,45.6,18.5c21.5-9.2,24.9-27.8,29.1-48.5
					c4.7-23.5,7.9-47.4,9.5-71.3c1.1-16,1-33.5-8.9-46.1c-10.7-13.6-29.7-17.2-47-18.1c-26-1.3-52.1,1.4-77.3,7.9
					c-11.7,3-22.8,8.2-34.7,9.3c-8.8,0.8-22.5-0.3-27,9.7c-2.2,4.9,2,20.5,5.2,24.7c2.2,2.8,12.4,5.3,15.6,7c5.2,2.8,9.9,4.6,15.7,6
					C145.2,300.4,155.9,301.3,166.6,301.6z"/>
				<g>
					<path class="st23" d="M105.7,454.8c1.2-1.2,1.6-2.4,1.8-3.6c0.1-1.2,0.1-2.4,0.2-3.6l0.4-7.2c0.2-4.8,0.5-9.6,0.6-14.4
						c0.4-9.6,0.5-19.2,0.4-28.8c0-9.6-0.2-19.2-0.5-28.8c-0.4-9.6-0.9-19.2-1.9-28.8h7.6c-1,9.6-1.5,19.2-1.9,28.8
						c-0.3,9.6-0.5,19.2-0.5,28.8c0,9.6,0.1,19.2,0.4,28.8c0.2,4.8,0.4,9.6,0.6,14.4l0.4,7.2c0.1,1.2,0.1,2.4,0.2,3.6
						c0.2,1.2,0.6,2.4,1.8,3.6H105.7z"/>
				</g>
				<path class="st25" d="M125,73.5c0.7-4.1,0.9-8.3,1.9-12.3c4.1-17.9,30.6-38.8,45.1-18.3c3.3,4.6,4.4,10.3,4.8,15.9
					c0.4,5.8,0.8,11.4-0.3,17.2c-0.1,0.5-0.2,1-0.5,1.4c-0.4,0.6-1.2,0.9-1.9,1.2c-1.8,0.6-3.6,0.9-5.4,1.1c0.7-0.1,2.3,1.1,3,1.3
					c1,0.3,2.1,0.4,3.2,0.6c0.2,0.6,0.4,1.3,0,1.8c-0.2,0.3-0.4,0.4-0.7,0.6c-2.1,1.7-1.8,4.9-2.9,7.2c-1.2,2.3-3.6,3.2-6,3.6
					c-4.8,0.8-11.2-0.8-14.7,3.6c-0.8,1-1.1,2.2-1.4,3.4c-3.3,11.4-7,22.8-11.1,34c-2.5,6.8-6.1,5.5-11.7,3.8
					c-4.9-1.5-9.9-3-14.3-5.8c-4.1-2.6-7.6-6.8-8.1-11.6c-0.5-4.7,1.8-9.2,4.1-13.4c3.9-7.3,7.8-14.6,11.7-21.8
					c1.5-2.9,3.1-5.8,4.1-8.9C124.4,76.5,124.7,75,125,73.5z"/>
				<path class="st32" d="M137.2,232.8c1.8-4.6,3.7-9,5.6-13.6c4.5-10.2,10.3-21.1,10.1-32.5c-0.1-7.8-6.3-11.1-8.5-17.7
					c-2.9-8.6-6-17.1-8-25.9c-1-4.5-1.8-9.2-2.7-13.8c-1.6-7.6,11.6-6.7,7.1-13c-3-4.2-9.2-7.3-13.5-10c-5.7-3.6-11.4-8.4-18.5-6.8
					c-3.6,0.8-6.9,2.7-9.9,4.8c-19.2,13.3-31.8,34.2-41.9,55.2c-5.5,11.5-10.6,23.3-13.6,35.8c-1.6,6.4-2.6,13.1-1.2,19.5
					c1.2,5.4,4,10.4,6.9,15.1c6.1,9.7,13.4,18.7,19.7,28.1c5.7,8.4,15.3,15.2,25,18.1c4.3,1.3,11.2,2.1,15.7,2.1
					c6.3,0,8.8-3.4,12.9-7.9c3.2-4.2,6.9-7.9,9.9-12.2c3-4.4,5.5-9.1,8.3-13.6c0.2-0.3,0.4-0.6,0.2-0.9c-0.2-0.3-0.6-0.4-0.9-0.4
					c-1,0-2-0.1-3-0.1c0.6-0.7,0.6-1.8,0.1-2.5s-1.5-1.1-2.4-0.8C135.5,237.3,136.3,235.1,137.2,232.8z"/>
				<path class="st25" d="M308.3,437.5c-0.3-15.5,1.3-30.6,3.1-45.9c-0.4,0-0.9,0.1-1.3,0.1c-10.7,1.2-21.3,2.8-32,4.5
					c1.5,16,3.7,32.2,5.4,47.4c0.2,1.9,1.5,4.1,1.7,6c0.4,3.3-2.6,4-0.1,6.2c2,1.8,4.9,2.2,7.5,2.5
					C306.2,459.6,308.5,449.1,308.3,437.5z"/>
				<path class="st38" d="M349.4,457.4c0.1-0.1,0.1-0.1,0.2-0.2c1.9-1.7,2.4-4.8,1-7c-1.5-2.4-4.5-3.2-7.2-3.9
					c-4.8-2.4-11.7-2.9-16.9-4.2c-4.4-1.1-11-1.1-14.9-3.5c-1.5-0.9-2.7-2.3-2.8-4c0-0.6-23.4,2.6-25.8,5.9
					c-3.8,5.2-1,13.8,0.1,19.8c12.2,0,24.5-0.2,36.7-0.7c6.1-0.2,12.2-0.5,18.4-0.8C341.4,458.5,346.7,459.4,349.4,457.4z"/>
				<path class="st33" d="M296.1,418.8c5.6-2,10.7-5.1,14.8-9.3c5.6-5.8,9.5-13.5,9.9-21.5c0.3-5.5-1-10.9-2.4-16.1
					c-5-19.2-12-37.4-19.2-55.8c-2.6-6.7-2.7-13.6-5.2-20.3c-3.2-8.8-7.5-17.6-12.6-25.5c-5.9-8.9-13.8-17-24-20.2
					c-5.8-1.8-12-2-18.1-1.9c-42.7,0.4-84.7,9.6-126.4,18.8c-7.6,1.7-16,2.5-19.5,9.9c-5.9,12.5-4.5,34,4.1,45
					c5.1,6.4,12.2,10.9,19.8,13.9c16.9,6.8,35.7,6.5,53.7,4.2c20.8-2.6,41.1-7.9,61.4-13.1c8.2,10.3,7,21.7,10.3,33.8
					c3.8,13.6,7.7,27.2,12.1,40.7c4.4,13.3,10.1,19,24.6,19.9C284.9,421.5,290.7,420.7,296.1,418.8z"/>
				<path class="st23" d="M174.9,31.6c-0.7-0.2-1.3-0.5-2-0.7c-4.6-1.4-9.3-2.7-13.9-3.8c-8.1-2-13.1,4.5-20.9,4.3
					c-9-0.2-17.4,7.7-17.8,16.7c-17.4,2.2-28.9,15.8-36,30.9c-1.1,2.4-2,5-1.4,7.5c0.5,2.1,2.1,3.8,3.6,5.3
					c12.1,11.3,29.1,15.1,45.3,18.5c3.8,0.8,7.6,1.6,11.4,1.4c1.2-0.1,2.6-0.3,3.3-1.3c0.8-1,0.6-2.4,0.5-3.7
					c-1.7-12.7-0.9-26,4.8-37.5c4.2-8.5,11.2-15.7,19.9-19.5c3.6-1.6,7.7-1.8,9.4-5.7c1.5-3.6-0.4-8.9-3.5-11
					C176.8,32.4,175.9,31.9,174.9,31.6z"/>
				<path class="st38" d="M168.3,75.3c-1.9,6.5-8.7,10.2-15.2,8.2s-10.1-8.7-8.2-15.2s8.7-10.2,15.2-8.2S170.2,68.8,168.3,75.3z"/>
				<path class="st38" d="M158.4,44.4c-0.2-1.1-2.8-12.6-4.9-18c-1.5,1-3.2,1.7-4.8,2.3c-1.7,0.6-3.6,1.2-5.4,1.2
					c3.5,5.1,5.6,11.2,6.5,17.3c0.7,4.8,0.9,9.7,0.8,14.6c-0.1,2.6-2,6.2-0.6,8.6c2.5,4.2,9.1,1.7,9.6-2.7
					C160.4,59.7,160,52.2,158.4,44.4z"/>
				<path class="st23" d="M162,73.4c-0.9,3-4.1,4.7-7.1,3.8c-3-0.9-4.7-4.1-3.8-7.1s4.1-4.7,7.1-3.8S162.9,70.4,162,73.4z"/>
				<path class="st39" d="M133.5,183.9c2.9,3.9,6.5,7.5,10.9,10c1.9,1.1,3.9,2,6,2.8c0.6-2.8,1.1-5.6,1.5-8.4
					c-8.6-2.2-16.6-6.4-23.4-12.2C130,178.8,131.6,181.4,133.5,183.9z"/>
				<path class="st32" d="M164.1,194.1c9.2,3.8,16.2,7.1,26.4,6.9c14-0.2,27.9-0.5,41.9-0.7c4.3-0.1,10.1,0.7,13.9-1.5
					c6.9-4.1,5.7-16.1,2.1-21.9c-3.9-6.2-11.6-8.4-18.7-10.2c-9.4-2.4-18.7-4.8-27.8-8.1c-6.3-2.3-12.4-5.1-18.3-8.7
					c-18.5-11.3-32.8-27.5-51.9-38c-2.9,3.4-6.1,6.5-9.4,9.6c-0.6,3.2-1.7,6.3-2.4,9.5c-3.5,15.4,0.6,31.9,11.6,43.3
					c4,4.1,8.5,7.5,13.4,10.4C151,188.4,157.6,191.4,164.1,194.1z"/>
				<path class="st38" d="M210,328.5c-20.3-9-39.8-19.6-57.7-32.8c-9.7-7.1-18.7-15.1-27.6-23.2c-8.8-8.1-17.4-16.3-25.9-24.8
					c-29.8-29.6-51.7-56.4-67.7-95.3C7.1,198,10.2,302,67.4,339.2c22.1,14.4,49.8,18.5,75.7,16.4c14-1.1,27.8-4.1,41-8.8
					c4.3-1.5,21.6-7.1,31.7-15.7C213.9,330.2,212,329.4,210,328.5z"/>
				<path class="st27" d="M231,328.9c-0.6-6.2-0.3-12.5,0.9-18.6"/>
				<path class="st27" d="M136.1,239.2c-1.1,2.3-3.3,3.8-5.5,5.1c-3.1,1.8-6.4,3.4-9.8,4.6"/>
				<path class="st27" d="M129.1,249.2c-4.2,2.5-8.9,4.1-13.8,4.6"/>
			</g>
			<path class="st40" d="M213.8,61.7l14.7-35.5c0.5-1.2,2.3-1.2,2.8,0.1l16.9,48.4c0.5,1.3,2.4,1.3,2.8,0l11-34.1
				c0.4-1.3,2.2-1.4,2.8-0.1l9.5,21.4c0.5,1.2,2.4,1.2,2.8-0.2l12-39.3c0.4-1.5,2.5-1.4,2.9,0.1l14.8,63.4c0.4,1.5,2.5,1.5,2.9,0
				l9.3-41.5c0.3-1.5,2.5-1.5,2.9-0.1l7.9,29.3c0.4,1.5,2.5,1.5,2.9,0L347.3,18c0.4-1.4,2.2-1.5,2.8-0.2L372.9,72"/>
		</g>
		<path class="st27" d="M282.9,460.1c-1.9-5.3-1.6-11.9-1.6-17.5"/>
		<path class="st37" d="M587,200.2H164.3v7.3H587c0.2,0,0.5,0,0.7,0v-7.2C587.5,200.2,587.2,200.2,587,200.2z"/>
		<line class="st41" x1="19.5" y1="460.1" x2="629.1" y2="460.1"/>
		<path class="st41" d="M208.9,466.6c52.4,0.6,104.7,0.6,157.1,0.2"/>
	</g>
</g>
</svg>
